<?xml version="1.0" encoding="utf-8"?>
<!-- Generator: Adobe Illustrator 24.1.1, SVG Export Plug-In . SVG Version: 6.00 Build 0)  -->
<svg version="1.1" id="Layer_1" xmlns="http://www.w3.org/2000/svg" xmlns:xlink="http://www.w3.org/1999/xlink" x="0px" y="0px"
	 viewBox="0 0 500 500" style="enable-background:new 0 0 500 500;" xml:space="preserve">
<style type="text/css">
	.st0{fill:#F5F5F5;}
	.st1{fill:#E6E6E6;}
	.st2{fill:#37474F;}
	.st3{fill:#455A64;}
	.st4{fill:#30A945;}
	.st5{opacity:0.7;}
	.st6{fill:#FFFFFF;}
	.st7{opacity:0.6;}
	.st8{opacity:0.8;}
	.st9{opacity:5.000000e-02;enable-background:new    ;}
	.st10{fill:#EBEBEB;}
	.st11{fill:#E0E0E0;}
	.st12{opacity:0.5;enable-background:new    ;}
	.st13{opacity:0.5;fill:#FFFFFF;enable-background:new    ;}
	.st14{fill:#263238;}
	.st15{opacity:0.2;}
	.st16{opacity:0.3;}
	.st17{opacity:0.5;}
	.st18{fill:#FFBE9D;}
	.st19{opacity:0.7;fill:#F0F0F0;enable-background:new    ;}
	.st20{opacity:0.6;fill:#F0F0F0;enable-background:new    ;}
	.st21{opacity:0.8;fill:#F0F0F0;enable-background:new    ;}
	.st22{fill:#F0F0F0;}
	.st23{opacity:0.25;enable-background:new    ;}
	.st24{opacity:0.35;enable-background:new    ;}
	.st25{opacity:0.15;enable-background:new    ;}
	.st26{opacity:0.7;fill:#FFFFFF;enable-background:new    ;}
	.st27{opacity:0.6;fill:#FFFFFF;enable-background:new    ;}
	.st28{opacity:0.8;fill:#FFFFFF;enable-background:new    ;}
	.st29{opacity:0.45;enable-background:new    ;}
	.st30{opacity:0.55;enable-background:new    ;}
	.st31{opacity:0.8;fill:#30A945;enable-background:new    ;}
	.st32{opacity:0.8;enable-background:new    ;}
	.st33{opacity:0.1;fill:#455A64;enable-background:new    ;}
	.st34{opacity:0.1;enable-background:new    ;}
	.st35{opacity:0.75;fill:#FFFFFF;enable-background:new    ;}
	.st36{opacity:0.9;fill:#263238;enable-background:new    ;}
	.st37{opacity:0.6;enable-background:new    ;}
	.st38{opacity:0.3;enable-background:new    ;}
	.st39{opacity:0.1;fill:#37474F;enable-background:new    ;}
</style>
<g id="freepik--Floor--inject-94">
	<ellipse id="freepik--floor--inject-94" class="st0" cx="250.6" cy="340.8" rx="233" ry="134.5"/>
</g>
<g id="freepik--Shadows--inject-94">
	<path id="freepik--Shadow--inject-94" class="st1" d="M37.5,349.5l152.2,87.9c1.5,0.8,3.2,0.8,4.7,0l253.8-146.5
		c1.3-0.8,1.3-2,0-2.7L296,200.3c-1.5-0.8-3.2-0.8-4.7,0L37.5,346.8C36.1,347.6,36.1,348.8,37.5,349.5z"/>
	<ellipse id="freepik--shadow--inject-94" class="st1" cx="370.7" cy="380.2" rx="71.6" ry="41.3"/>
</g>
<g id="freepik--Desk--inject-94">
	<g id="freepik--Table--inject-94">
		<path class="st2" d="M178.5,310.6v100.2c0,0.9,0.5,1.8,1.3,2.3l2.8,1.6c0.8,0.4,1.8,0.4,2.6,0l2.8-1.6c0.8-0.5,1.3-1.3,1.3-2.3
			V310.6c0-0.8-0.6-1.2-1.3-0.8l-2.8,1.6c-0.8,0.4-1.8,0.4-2.6,0l-2.8-1.6C179.1,309.4,178.5,309.8,178.5,310.6z"/>
		<path class="st3" d="M185.2,414.6l2.8-1.6c0.8-0.5,1.3-1.3,1.3-2.3V310.6c0-0.8-0.6-1.2-1.3-0.8l-2.8,1.6
			c-0.8,0.5-1.3,1.3-1.3,2.3v100.2C183.9,414.7,184.5,415,185.2,414.6z"/>
		<path class="st2" d="M60.7,242.5v100.2c0,0.9,0.5,1.8,1.3,2.3l2.8,1.6c0.8,0.4,1.8,0.4,2.6,0l2.8-1.6c0.8-0.5,1.3-1.3,1.3-2.3
			V242.5c0-0.8-0.6-1.2-1.3-0.8l-2.8,1.6c-0.8,0.4-1.8,0.4-2.6,0l-2.8-1.6C61.3,241.4,60.7,241.7,60.7,242.5z"/>
		<path class="st3" d="M67.4,346.6l2.8-1.6c0.8-0.5,1.3-1.3,1.3-2.3V242.5c0-0.8-0.6-1.2-1.3-0.8l-2.8,1.6c-0.8,0.5-1.3,1.3-1.3,2.3
			v100.2C66.1,346.6,66.7,347,67.4,346.6z"/>
		<path class="st2" d="M397.9,184v100.1c0,0.9,0.5,1.7,1.3,2.3l2.8,1.6c0.8,0.4,1.8,0.4,2.6,0l2.8-1.6c0.8-0.5,1.3-1.3,1.3-2.3V184
			c0-0.8-0.6-1.2-1.3-0.8l-2.8,1.6c-0.8,0.4-1.8,0.4-2.6,0l-2.8-1.6C398.5,182.8,397.9,183.1,397.9,184z"/>
		<path class="st3" d="M404.5,288l2.8-1.6c0.8-0.5,1.3-1.3,1.3-2.3V184c0-0.8-0.6-1.2-1.3-0.8l-2.8,1.6c-0.8,0.5-1.2,1.3-1.3,2.3
			v100.2C403.2,288.1,403.8,288.4,404.5,288z"/>
		<g id="freepik--desk--inject-94">
			<path class="st4" d="M35.1,251.7v-0.9c0.1-1.7,1-3.2,2.4-4.1l253.8-146.5c1.5-0.8,3.2-0.8,4.7,0l127.8,73.8
				c1.4,0.9,2.3,2.4,2.4,4.1v1c-0.1,1.7-1,3.2-2.4,4.1L170,329.6c-1.5,0.8-3.2,0.8-4.7,0L37.5,255.8
				C36.1,254.9,35.2,253.4,35.1,251.7z"/>
			<g class="st5">
				<path class="st6" d="M35.1,251.7v-0.9c0.1-1.7,1-3.2,2.4-4.1l253.8-146.5c1.5-0.8,3.2-0.8,4.7,0l127.8,73.8
					c1.4,0.9,2.3,2.4,2.4,4.1v1c-0.1,1.7-1,3.2-2.4,4.1L170,329.6c-1.5,0.8-3.2,0.8-4.7,0L37.5,255.8
					C36.1,254.9,35.2,253.4,35.1,251.7z"/>
			</g>
			<path class="st4" d="M167.6,323.8v6.4c-0.8,0-1.6-0.2-2.4-0.6L37.5,255.8c-1.4-0.9-2.3-2.4-2.4-4.1v-0.9c0.1-1.5,0.8-2.8,1.9-3.8
				c-0.9,0.7-0.7,1.8,0.4,2.4l127.8,73.8C166,323.6,166.8,323.8,167.6,323.8z"/>
			<g class="st7">
				<path class="st6" d="M167.6,323.8v6.4c-0.8,0-1.6-0.2-2.4-0.6L37.5,255.8c-1.4-0.9-2.3-2.4-2.4-4.1v-0.9
					c0.1-1.5,0.8-2.8,1.9-3.8c-0.9,0.7-0.7,1.8,0.4,2.4l127.8,73.8C166,323.6,166.8,323.8,167.6,323.8z"/>
			</g>
			<path class="st4" d="M37.5,249.4l127.8,73.8c1.5,0.8,3.2,0.8,4.7,0l253.8-146.5c1.3-0.8,1.3-2,0-2.7L296,100.1
				c-1.5-0.8-3.2-0.8-4.7,0L37.5,246.7C36.1,247.4,36.1,248.6,37.5,249.4z"/>
			<g class="st8">
				<path class="st6" d="M37.5,249.4l127.8,73.8c1.5,0.8,3.2,0.8,4.7,0l253.8-146.5c1.3-0.8,1.3-2,0-2.7L296,100.1
					c-1.5-0.8-3.2-0.8-4.7,0L37.5,246.7C36.1,247.4,36.1,248.6,37.5,249.4z"/>
			</g>
		</g>
	</g>
	<g id="freepik--Keyboard--inject-94">
		<path id="freepik--shadow--inject-94_1_" class="st9" d="M185.5,243.1l23.2,13.4c0.8,0.4,1.8,0.4,2.6,0l68.5-39.5
			c0.4-0.1,0.6-0.6,0.5-1c-0.1-0.2-0.3-0.4-0.5-0.5l-23.2-13.4c-0.8-0.4-1.8-0.4-2.6,0l-68.5,39.5c-0.4,0.1-0.7,0.6-0.5,1
			C185,242.8,185.2,243,185.5,243.1z"/>
		<g id="freepik--keyboard--inject-94">
			<path class="st10" d="M278.3,213.1c0-0.3-0.2-0.6-0.5-0.8L256,199.8c-0.8-0.4-1.8-0.4-2.6,0L187,238.3c-0.3,0.1-0.5,0.4-0.5,0.8
				v2.3c0,0.3,0.2,0.6,0.5,0.8l21.8,12.6c0.8,0.4,1.8,0.4,2.6,0l66.5-38.4c0.3-0.1,0.5-0.4,0.5-0.8L278.3,213.1z"/>
			<path class="st6" d="M208.7,252.3L187,239.8c-0.7-0.4-0.7-1.1,0-1.5l66.4-38.4c0.8-0.4,1.8-0.4,2.6,0l21.8,12.6
				c0.7,0.4,0.7,1.1,0,1.5l-66.5,38.4C210.5,252.7,209.6,252.7,208.7,252.3z"/>
			<path class="st11" d="M209.9,252.6v2.3c-0.4,0-0.8-0.1-1.2-0.3L187,242c-0.3-0.1-0.5-0.4-0.5-0.8V239c0,0.3,0.2,0.6,0.5,0.8
				l21.8,12.5C209.1,252.5,209.5,252.6,209.9,252.6z"/>
			<path class="st4" d="M210,250.4L210,250.4l-2.1-1.3l2.9-1.7l2.2,1.3L210,250.4L210,250.4z M206.6,248.4L206.6,248.4l-2.2-1.2
				l2.3-1.3l2.2,1.3L206.6,248.4L206.6,248.4z M214.1,248L214.1,248l-2.2-1.2l2.3-1.3l2.2,1.3L214.1,248L214.1,248z M203.3,246.4
				L203.3,246.4l-2.1-1.2l3.7-2.1l2.2,1.3L203.3,246.4L203.3,246.4z M210.1,246.4L210.1,246.4l-2.2-1.2l1.8-1l2.2,1.3L210.1,246.4
				L210.1,246.4z M217.5,246L217.5,246l-2.2-1.2l2.3-1.3l2.2,1.3L217.5,246L217.5,246z M213.1,244.6L213.1,244.6l-2.2-1.2l1.8-1.1
				l2.2,1.3L213.1,244.6L213.1,244.6z M199.9,244.5L199.9,244.5l-2.2-1.2l2.9-1.7l2.2,1.3L199.9,244.5L199.9,244.5z M221,244
				L221,244l-2.2-1.3l16.6-9.6l2.2,1.3L221,244L221,244z M208.1,243.6L208.1,243.6l-2.1-1.2l1.8-1.1l2.2,1.3l-1.8,1L208.1,243.6z
				 M216,243L216,243l-2.2-1.3l1.8-1.1l2.2,1.3L216,243L216,243z M196.5,242.6L196.5,242.6l-2.1-1.3l1.8-1l2.2,1.3L196.5,242.6
				L196.5,242.6z M204,242.1L204,242.1l-2.1-1.3l1.8-1l2.2,1.3l-1.8,1H204z M211.1,241.9L211.1,241.9l-2.2-1.3l1.8-1.1l2.2,1.3
				L211.1,241.9L211.1,241.9z M219,241.2L219,241.2l-2.2-1.2l1.8-1l2.2,1.3L219,241.2L219,241.2z M199.5,240.8L199.5,240.8l-2.2-1.2
				l1.8-1l2.2,1.3L199.5,240.8L199.5,240.8z M206.9,240.4L206.9,240.4l-2.2-1.2l1.8-1.1l2.2,1.3L206.9,240.4L206.9,240.4z
				 M214.1,240.2L214.1,240.2l-2.2-1.2l1.8-1.1l2.2,1.3L214.1,240.2L214.1,240.2z M192.4,240.2L192.4,240.2l-2.2-1.2l2.3-1.3
				l2.2,1.3L192.4,240.2L192.4,240.2z M222,239.5L222,239.5l-2.2-1.2l1.8-1.1l2.2,1.3L222,239.5L222,239.5z M202.5,239.1
				L202.5,239.1l-2.1-1.3l1.8-1.1l2.2,1.3L202.5,239.1L202.5,239.1z M209.9,238.7L209.9,238.7l-2.2-1.3l1.8-1.1l2.2,1.3L209.9,238.7
				L209.9,238.7z M217.1,238.5L217.1,238.5l-2.2-1.3l1.8-1l2.2,1.3L217.1,238.5L217.1,238.5z M225,237.8L225,237.8l-2.2-1.3l1.8-1.1
				l2.2,1.3L225,237.8L225,237.8z M197.2,237.5L197.2,237.5l-2.2-1.2l1.8-1.1l2.2,1.3L197.2,237.5L197.2,237.5z M205.5,237.4
				L205.5,237.4l-2.2-1.3l1.8-1.1l2.2,1.3L205.5,237.4L205.5,237.4z M213,237L213,237l-2.2-1.2l1.8-1.1l2.2,1.3L213,237z
				 M220.1,236.8L220.1,236.8l-2.1-1.3l1.8-1l2.2,1.3L220.1,236.8L220.1,236.8z M228.1,236.1L228.1,236.1l-2.2-1.2l1.8-1.1l2.2,1.3
				L228.1,236.1L228.1,236.1z M200.2,235.8L200.2,235.8l-2.2-1.3l1.8-1.1l2.2,1.3L200.2,235.8L200.2,235.8z M208.5,235.7
				L208.5,235.7l-2.2-1.2l1.8-1.1l2.2,1.3L208.5,235.7L208.5,235.7z M216,235.3L216,235.3l-2.2-1.3l1.8-1.1l2.2,1.3L216,235.3
				L216,235.3z M223.1,235.1H223l-2.2-1.2l1.8-1.1l2.2,1.3L223.1,235.1L223.1,235.1z M231.1,234.4L231.1,234.4l-2.2-1.2l1.8-1.1
				l2.2,1.3L231.1,234.4L231.1,234.4z M203.2,234L203.2,234l-2.2-1.2l1.8-1.1l2.2,1.3L203.2,234L203.2,234z M211.5,233.9
				L211.5,233.9l-2.2-1.3l1.8-1l2.2,1.3L211.5,233.9L211.5,233.9z M238.8,233.8L238.8,233.8l-2.1-1.3l2.3-1.3l2.2,1.3L238.8,233.8
				L238.8,233.8z M218.9,233.5L218.9,233.5l-2.2-1.3l1.8-1l2.2,1.3L218.9,233.5L218.9,233.5z M226.1,233.3L226.1,233.3l-2.2-1.3
				l1.8-1.1l2.2,1.3L226.1,233.3L226.1,233.3z M234,232.6L234,232.6l-2.1-1.3l1.8-1l2.2,1.3L234,232.6L234,232.6z M206.2,232.3
				L206.2,232.3L204,231l1.8-1l2.2,1.3L206.2,232.3L206.2,232.3z M214.5,232.2L214.5,232.2l-2.2-1.2l1.8-1l2.2,1.3L214.5,232.2
				L214.5,232.2z M221.9,231.8L221.9,231.8l-2.2-1.2l1.8-1l2.2,1.3L221.9,231.8L221.9,231.8z M242.3,231.8L242.3,231.8l-2.2-1.2
				l2.3-1.3l2.2,1.3L242.3,231.8L242.3,231.8z M229.1,231.6L229.1,231.6l-2.2-1.2l1.8-1.1l2.2,1.3L229.1,231.6L229.1,231.6z
				 M237,230.9L237,230.9l-2.2-1.2l1.8-1l2.2,1.3L237,230.9L237,230.9z M217.4,230.5L217.4,230.5l-2.2-1.2l1.8-1.1l2.2,1.3
				L217.4,230.5L217.4,230.5z M224.9,230.1L224.9,230.1l-2.2-1.2l1.8-1.1l2.2,1.3L224.9,230.1L224.9,230.1z M232,229.9L232,229.9
				l-2.2-1.2l1.8-1.1l2.2,1.3L232,229.9L232,229.9z M210.4,229.9L210.4,229.9l-2.2-1.2l1.8-1.1l2.2,1.3L210.4,229.9L210.4,229.9z
				 M245.7,229.9L245.7,229.9l-2.2-1.3l2.3-1.3l2.2,1.3L245.7,229.9L245.7,229.9z M240,229.3L240,229.3l-2.2-1.3l1.8-1.1l2.2,1.3
				L240,229.3L240,229.3z M220.4,228.9L220.4,228.9l-2.2-1.3l1.8-1.1l2.2,1.3L220.4,228.9L220.4,228.9z M227.9,228.5L227.9,228.5
				l-2.2-1.3l1.8-1.1l2.2,1.3L227.9,228.5L227.9,228.5z M235,228.2L235,228.2l-2.2-1.3l1.8-1l2.2,1.3L235,228.2L235,228.2z
				 M213.4,228.2L213.4,228.2l-2.2-1.3l1.8-1.1l2.2,1.3L213.4,228.2L213.4,228.2z M249.2,227.9L249.2,227.9l-2.2-1.3l2.9-1.7
				l2.2,1.3L249.2,227.9L249.2,227.9z M243,227.5L243,227.5l-2.2-1.2l5.8-3.3l2.2,1.3L243,227.5L243,227.5z M223.4,227.1
				L223.4,227.1l-2.1-1.2l1.8-1.1l2.2,1.3L223.4,227.1L223.4,227.1z M230.9,226.7L230.9,226.7l-2.2-1.2l1.8-1.1l2.2,1.3L230.9,226.7
				L230.9,226.7z M238,226.5L238,226.5l-2.2-1.2l1.8-1l2.2,1.3L238,226.5L238,226.5z M216.4,226.5L216.4,226.5l-2.2-1.2l1.8-1.1
				l2.2,1.3L216.4,226.5L216.4,226.5z M226.4,225.5L226.4,225.5l-2.2-1.2l1.8-1.3l2.2,1.3l-1.8,1.1L226.4,225.5z M253.9,225.2
				L253.9,225.2l-2.2-1.3l1.8-1.1l2.2,1.3L253.9,225.2L253.9,225.2z M233.9,225.1L233.9,225.1l-2.2-1.2l1.8-1.1l2.2,1.3L233.9,225.1
				L233.9,225.1z M241,224.9L241,224.9l-2.2-1.2l1.7-1c0.1-0.1,0.2-0.2,0.2-0.3c0-0.1-0.1-0.3-0.2-0.3l-2.8-1.6l2.1-1.2l5.6,3.2
				l-4.4,2.4L241,224.9z M219.4,224.9L219.4,224.9l-2.2-1.2l1.8-1.1l2.2,1.3L219.4,224.9L219.4,224.9z M229.4,223.9L229.4,223.9
				l-2.1-1.3l1.8-1.1l2.2,1.3L229.4,223.9L229.4,223.9z M256.9,223.6L256.9,223.6l-2.2-1.2l1.8-1.1l2.2,1.3L256.9,223.6L256.9,223.6
				z M236.9,223.4L236.9,223.4l-2.3-1.4l1.8-1l2.2,1.3l-1.8,1L236.9,223.4z M223.7,222.4L223.7,222.4l-2.2-1.3l1.8-1l2.2,1.3
				L223.7,222.4L223.7,222.4z M232.4,222.2L232.4,222.2l-2.2-1.2l1.8-1l2.2,1.3L232.4,222.2L232.4,222.2z M259.9,221.9L259.9,221.9
				l-2.2-1.2l1.8-1.1l2.2,1.3L259.9,221.9L259.9,221.9z M253.6,221.7L253.6,221.7l-2.2-1.3l1.8-1l2.2,1.3L253.6,221.7L253.6,221.7z
				 M226.7,220.7L226.7,220.7l-2.2-1.2l1.8-1l2.2,1.3L226.7,220.7L226.7,220.7z M235.4,220.4L235.4,220.4l-2.1-1.2l3.2-1.9l2.2,1.3
				L235.4,220.4L235.4,220.4z M263.5,219.8L263.5,219.8l-2.1-1.3l4.8-2.8l2.2,1.3L263.5,219.8L263.5,219.8z M243.8,219.5
				L243.8,219.5l-2.3-1.5l1.8-1.1l2.2,1.3l-1.8,1.1L243.8,219.5z M229.7,219L229.7,219l-2.2-1.2l1.8-1.1l2.2,1.3L229.7,219
				L229.7,219z M260.2,217.8L260.2,217.8l-2.2-1.3l1.8-1l2.2,1.3L260.2,217.8L260.2,217.8z M246.8,217.8L246.8,217.8l-2.2-1.2
				l1.8-1.1l2.2,1.3L246.8,217.8L246.8,217.8z M240.4,217.5L240.4,217.5l-2.3-1.5l1.8-1l2.2,1.3l-1.8,1L240.4,217.5z M232.7,217.3
				L232.7,217.3l-2.1-1.3l1.8-1.1l2.2,1.3l-1.9,0.8L232.7,217.3z M269.5,216.3L269.5,216.3l-2.2-1.3l1.8-1l2.2,1.3L269.5,216.3
				L269.5,216.3z M263.1,216.1H263l-2.1-1.2l1.8-1l2.2,1.3L263.1,216.1L263.1,216.1z M249.8,216L249.8,216l-2.2-1.3l1.8-1l2.2,1.3
				L249.8,216L249.8,216z M256.8,215.9L256.8,215.9l-2.1-1.3l1.8-1.1l2.2,1.3L256.8,215.9L256.8,215.9z M243.5,215.8L243.5,215.8
				l-2.2-1.2l1.8-1.1l2.2,1.3L243.5,215.8L243.5,215.8z M236.4,215.2L236.4,215.2l-2.2-1.2l1.8-1.1l2.2,1.3L236.4,215.2L236.4,215.2
				z M272.5,214.6L272.5,214.6l-5.6-3.2l1.8-1.1l5.6,3.2L272.5,214.6L272.5,214.6z M266.1,214.4H266l-2.2-1.2l1.8-1.1l2.2,1.3
				L266.1,214.4L266.1,214.4z M259.8,214.2L259.8,214.2l-2.2-1.3l1.8-1.1l2.2,1.3L259.8,214.2L259.8,214.2z M246.4,214.1
				L246.4,214.1l-2.1-1.2l1.8-1.1l2.2,1.3L246.4,214.1L246.4,214.1z M253.4,213.9L253.4,213.9l-2.2-1.2l1.8-1.1l2.2,1.3L253.4,213.9
				L253.4,213.9z M239.4,213.4L239.4,213.4l-2.2-1.3l1.8-1l2.2,1.3L239.4,213.4L239.4,213.4z M262.8,212.4L262.8,212.4l-2.2-1.2
				l1.8-1.1l2.2,1.3L262.8,212.4L262.8,212.4z M256.4,212.2L256.4,212.2l-2.2-1.3l1.8-1l2.2,1.3L256.4,212.2L256.4,212.2z
				 M250.1,212L250.1,212l-2.2-1.2l1.8-1l2.2,1.3L250.1,212L250.1,212z M242.4,211.7L242.4,211.7l-2.2-1.2l1.8-1l2.2,1.3
				L242.4,211.7L242.4,211.7z M265.8,210.7L265.8,210.7l-5.6-3.2l1.8-1.1l5.6,3.2L265.8,210.7L265.8,210.7z M259.4,210.5
				L259.4,210.5l-2.3-1.5l1.8-1l2.2,1.3l-1.8,1L259.4,210.5z M253,210L253,210l-2.1-1.2l1.8-1.1l2.1,1.3L253,210z M245,208.9
				L245,208.9l-0.9-0.5l1.8-1.1l1,0.5L245,208.9L245,208.9z M255.9,208.3L255.9,208.3l-2.2-1.3l1.8-1.1l2.2,1.3L255.9,208.3
				L255.9,208.3z M248,207.1L248,207.1l-1-0.5l1.8-1.1l1,0.5L248,207.1L248,207.1z M258.9,206.6L258.9,206.6l-2.2-1.2l1.8-1.1
				l2.2,1.3L258.9,206.6L258.9,206.6z M250.9,205.4L250.9,205.4l-1-0.5l1.8-1l1,0.5L250.9,205.4L250.9,205.4z M253.9,203.7
				L253.9,203.7l-1-0.5l1.8-1l1,0.5L253.9,203.7L253.9,203.7z"/>
			<path class="st12" d="M210,250.4L210,250.4l-2.1-1.3l2.9-1.7l2.2,1.3L210,250.4L210,250.4z M206.6,248.4L206.6,248.4l-2.2-1.2
				l2.3-1.3l2.2,1.3L206.6,248.4L206.6,248.4z M214.1,248L214.1,248l-2.2-1.2l2.3-1.3l2.2,1.3L214.1,248L214.1,248z M203.3,246.4
				L203.3,246.4l-2.1-1.2l3.7-2.1l2.2,1.3L203.3,246.4L203.3,246.4z M210.1,246.4L210.1,246.4l-2.2-1.2l1.8-1l2.2,1.3L210.1,246.4
				L210.1,246.4z M217.5,246L217.5,246l-2.2-1.2l2.3-1.3l2.2,1.3L217.5,246L217.5,246z M213.1,244.6L213.1,244.6l-2.2-1.2l1.8-1.1
				l2.2,1.3L213.1,244.6L213.1,244.6z M199.9,244.5L199.9,244.5l-2.2-1.2l2.9-1.7l2.2,1.3L199.9,244.5L199.9,244.5z M221,244
				L221,244l-2.2-1.3l16.6-9.6l2.2,1.3L221,244L221,244z M208.1,243.6L208.1,243.6l-2.1-1.2l1.8-1.1l2.2,1.3l-1.8,1L208.1,243.6z
				 M216,243L216,243l-2.2-1.3l1.8-1.1l2.2,1.3L216,243L216,243z M196.5,242.6L196.5,242.6l-2.1-1.3l1.8-1l2.2,1.3L196.5,242.6
				L196.5,242.6z M204,242.1L204,242.1l-2.1-1.3l1.8-1l2.2,1.3l-1.8,1H204z M211.1,241.9L211.1,241.9l-2.2-1.3l1.8-1.1l2.2,1.3
				L211.1,241.9L211.1,241.9z M219,241.2L219,241.2l-2.2-1.2l1.8-1l2.2,1.3L219,241.2L219,241.2z M199.5,240.8L199.5,240.8l-2.2-1.2
				l1.8-1l2.2,1.3L199.5,240.8L199.5,240.8z M206.9,240.4L206.9,240.4l-2.2-1.2l1.8-1.1l2.2,1.3L206.9,240.4L206.9,240.4z
				 M214.1,240.2L214.1,240.2l-2.2-1.2l1.8-1.1l2.2,1.3L214.1,240.2L214.1,240.2z M192.4,240.2L192.4,240.2l-2.2-1.2l2.3-1.3
				l2.2,1.3L192.4,240.2L192.4,240.2z M222,239.5L222,239.5l-2.2-1.2l1.8-1.1l2.2,1.3L222,239.5L222,239.5z M202.5,239.1
				L202.5,239.1l-2.1-1.3l1.8-1.1l2.2,1.3L202.5,239.1L202.5,239.1z M209.9,238.7L209.9,238.7l-2.2-1.3l1.8-1.1l2.2,1.3L209.9,238.7
				L209.9,238.7z M217.1,238.5L217.1,238.5l-2.2-1.3l1.8-1l2.2,1.3L217.1,238.5L217.1,238.5z M225,237.8L225,237.8l-2.2-1.3l1.8-1.1
				l2.2,1.3L225,237.8L225,237.8z M197.2,237.5L197.2,237.5l-2.2-1.2l1.8-1.1l2.2,1.3L197.2,237.5L197.2,237.5z M205.5,237.4
				L205.5,237.4l-2.2-1.3l1.8-1.1l2.2,1.3L205.5,237.4L205.5,237.4z M213,237L213,237l-2.2-1.2l1.8-1.1l2.2,1.3L213,237z
				 M220.1,236.8L220.1,236.8l-2.1-1.3l1.8-1l2.2,1.3L220.1,236.8L220.1,236.8z M228.1,236.1L228.1,236.1l-2.2-1.2l1.8-1.1l2.2,1.3
				L228.1,236.1L228.1,236.1z M200.2,235.8L200.2,235.8l-2.2-1.3l1.8-1.1l2.2,1.3L200.2,235.8L200.2,235.8z M208.5,235.7
				L208.5,235.7l-2.2-1.2l1.8-1.1l2.2,1.3L208.5,235.7L208.5,235.7z M216,235.3L216,235.3l-2.2-1.3l1.8-1.1l2.2,1.3L216,235.3
				L216,235.3z M223.1,235.1H223l-2.2-1.2l1.8-1.1l2.2,1.3L223.1,235.1L223.1,235.1z M231.1,234.4L231.1,234.4l-2.2-1.2l1.8-1.1
				l2.2,1.3L231.1,234.4L231.1,234.4z M203.2,234L203.2,234l-2.2-1.2l1.8-1.1l2.2,1.3L203.2,234L203.2,234z M211.5,233.9
				L211.5,233.9l-2.2-1.3l1.8-1l2.2,1.3L211.5,233.9L211.5,233.9z M238.8,233.8L238.8,233.8l-2.1-1.3l2.3-1.3l2.2,1.3L238.8,233.8
				L238.8,233.8z M218.9,233.5L218.9,233.5l-2.2-1.3l1.8-1l2.2,1.3L218.9,233.5L218.9,233.5z M226.1,233.3L226.1,233.3l-2.2-1.3
				l1.8-1.1l2.2,1.3L226.1,233.3L226.1,233.3z M234,232.6L234,232.6l-2.1-1.3l1.8-1l2.2,1.3L234,232.6L234,232.6z M206.2,232.3
				L206.2,232.3L204,231l1.8-1l2.2,1.3L206.2,232.3L206.2,232.3z M214.5,232.2L214.5,232.2l-2.2-1.2l1.8-1l2.2,1.3L214.5,232.2
				L214.5,232.2z M221.9,231.8L221.9,231.8l-2.2-1.2l1.8-1l2.2,1.3L221.9,231.8L221.9,231.8z M242.3,231.8L242.3,231.8l-2.2-1.2
				l2.3-1.3l2.2,1.3L242.3,231.8L242.3,231.8z M229.1,231.6L229.1,231.6l-2.2-1.2l1.8-1.1l2.2,1.3L229.1,231.6L229.1,231.6z
				 M237,230.9L237,230.9l-2.2-1.2l1.8-1l2.2,1.3L237,230.9L237,230.9z M217.4,230.5L217.4,230.5l-2.2-1.2l1.8-1.1l2.2,1.3
				L217.4,230.5L217.4,230.5z M224.9,230.1L224.9,230.1l-2.2-1.2l1.8-1.1l2.2,1.3L224.9,230.1L224.9,230.1z M232,229.9L232,229.9
				l-2.2-1.2l1.8-1.1l2.2,1.3L232,229.9L232,229.9z M210.4,229.9L210.4,229.9l-2.2-1.2l1.8-1.1l2.2,1.3L210.4,229.9L210.4,229.9z
				 M245.7,229.9L245.7,229.9l-2.2-1.3l2.3-1.3l2.2,1.3L245.7,229.9L245.7,229.9z M240,229.3L240,229.3l-2.2-1.3l1.8-1.1l2.2,1.3
				L240,229.3L240,229.3z M220.4,228.9L220.4,228.9l-2.2-1.3l1.8-1.1l2.2,1.3L220.4,228.9L220.4,228.9z M227.9,228.5L227.9,228.5
				l-2.2-1.3l1.8-1.1l2.2,1.3L227.9,228.5L227.9,228.5z M235,228.2L235,228.2l-2.2-1.3l1.8-1l2.2,1.3L235,228.2L235,228.2z
				 M213.4,228.2L213.4,228.2l-2.2-1.3l1.8-1.1l2.2,1.3L213.4,228.2L213.4,228.2z M249.2,227.9L249.2,227.9l-2.2-1.3l2.9-1.7
				l2.2,1.3L249.2,227.9L249.2,227.9z M243,227.5L243,227.5l-2.2-1.2l5.8-3.3l2.2,1.3L243,227.5L243,227.5z M223.4,227.1
				L223.4,227.1l-2.1-1.2l1.8-1.1l2.2,1.3L223.4,227.1L223.4,227.1z M230.9,226.7L230.9,226.7l-2.2-1.2l1.8-1.1l2.2,1.3L230.9,226.7
				L230.9,226.7z M238,226.5L238,226.5l-2.2-1.2l1.8-1l2.2,1.3L238,226.5L238,226.5z M216.4,226.5L216.4,226.5l-2.2-1.2l1.8-1.1
				l2.2,1.3L216.4,226.5L216.4,226.5z M226.4,225.5L226.4,225.5l-2.2-1.2l1.8-1.3l2.2,1.3l-1.8,1.1L226.4,225.5z M253.9,225.2
				L253.9,225.2l-2.2-1.3l1.8-1.1l2.2,1.3L253.9,225.2L253.9,225.2z M233.9,225.1L233.9,225.1l-2.2-1.2l1.8-1.1l2.2,1.3L233.9,225.1
				L233.9,225.1z M241,224.9L241,224.9l-2.2-1.2l1.7-1c0.1-0.1,0.2-0.2,0.2-0.3c0-0.1-0.1-0.3-0.2-0.3l-2.8-1.6l2.1-1.2l5.6,3.2
				l-4.4,2.4L241,224.9z M219.4,224.9L219.4,224.9l-2.2-1.2l1.8-1.1l2.2,1.3L219.4,224.9L219.4,224.9z M229.4,223.9L229.4,223.9
				l-2.1-1.3l1.8-1.1l2.2,1.3L229.4,223.9L229.4,223.9z M256.9,223.6L256.9,223.6l-2.2-1.2l1.8-1.1l2.2,1.3L256.9,223.6L256.9,223.6
				z M236.9,223.4L236.9,223.4l-2.3-1.4l1.8-1l2.2,1.3l-1.8,1L236.9,223.4z M223.7,222.4L223.7,222.4l-2.2-1.3l1.8-1l2.2,1.3
				L223.7,222.4L223.7,222.4z M232.4,222.2L232.4,222.2l-2.2-1.2l1.8-1l2.2,1.3L232.4,222.2L232.4,222.2z M259.9,221.9L259.9,221.9
				l-2.2-1.2l1.8-1.1l2.2,1.3L259.9,221.9L259.9,221.9z M253.6,221.7L253.6,221.7l-2.2-1.3l1.8-1l2.2,1.3L253.6,221.7L253.6,221.7z
				 M226.7,220.7L226.7,220.7l-2.2-1.2l1.8-1l2.2,1.3L226.7,220.7L226.7,220.7z M235.4,220.4L235.4,220.4l-2.1-1.2l3.2-1.9l2.2,1.3
				L235.4,220.4L235.4,220.4z M263.5,219.8L263.5,219.8l-2.1-1.3l4.8-2.8l2.2,1.3L263.5,219.8L263.5,219.8z M243.8,219.5
				L243.8,219.5l-2.3-1.5l1.8-1.1l2.2,1.3l-1.8,1.1L243.8,219.5z M229.7,219L229.7,219l-2.2-1.2l1.8-1.1l2.2,1.3L229.7,219
				L229.7,219z M260.2,217.8L260.2,217.8l-2.2-1.3l1.8-1l2.2,1.3L260.2,217.8L260.2,217.8z M246.8,217.8L246.8,217.8l-2.2-1.2
				l1.8-1.1l2.2,1.3L246.8,217.8L246.8,217.8z M240.4,217.5L240.4,217.5l-2.3-1.5l1.8-1l2.2,1.3l-1.8,1L240.4,217.5z M232.7,217.3
				L232.7,217.3l-2.1-1.3l1.8-1.1l2.2,1.3l-1.9,0.8L232.7,217.3z M269.5,216.3L269.5,216.3l-2.2-1.3l1.8-1l2.2,1.3L269.5,216.3
				L269.5,216.3z M263.1,216.1H263l-2.1-1.2l1.8-1l2.2,1.3L263.1,216.1L263.1,216.1z M249.8,216L249.8,216l-2.2-1.3l1.8-1l2.2,1.3
				L249.8,216L249.8,216z M256.8,215.9L256.8,215.9l-2.1-1.3l1.8-1.1l2.2,1.3L256.8,215.9L256.8,215.9z M243.5,215.8L243.5,215.8
				l-2.2-1.2l1.8-1.1l2.2,1.3L243.5,215.8L243.5,215.8z M236.4,215.2L236.4,215.2l-2.2-1.2l1.8-1.1l2.2,1.3L236.4,215.2L236.4,215.2
				z M272.5,214.6L272.5,214.6l-5.6-3.2l1.8-1.1l5.6,3.2L272.5,214.6L272.5,214.6z M266.1,214.4H266l-2.2-1.2l1.8-1.1l2.2,1.3
				L266.1,214.4L266.1,214.4z M259.8,214.2L259.8,214.2l-2.2-1.3l1.8-1.1l2.2,1.3L259.8,214.2L259.8,214.2z M246.4,214.1
				L246.4,214.1l-2.1-1.2l1.8-1.1l2.2,1.3L246.4,214.1L246.4,214.1z M253.4,213.9L253.4,213.9l-2.2-1.2l1.8-1.1l2.2,1.3L253.4,213.9
				L253.4,213.9z M239.4,213.4L239.4,213.4l-2.2-1.3l1.8-1l2.2,1.3L239.4,213.4L239.4,213.4z M262.8,212.4L262.8,212.4l-2.2-1.2
				l1.8-1.1l2.2,1.3L262.8,212.4L262.8,212.4z M256.4,212.2L256.4,212.2l-2.2-1.3l1.8-1l2.2,1.3L256.4,212.2L256.4,212.2z
				 M250.1,212L250.1,212l-2.2-1.2l1.8-1l2.2,1.3L250.1,212L250.1,212z M242.4,211.7L242.4,211.7l-2.2-1.2l1.8-1l2.2,1.3
				L242.4,211.7L242.4,211.7z M265.8,210.7L265.8,210.7l-5.6-3.2l1.8-1.1l5.6,3.2L265.8,210.7L265.8,210.7z M259.4,210.5
				L259.4,210.5l-2.3-1.5l1.8-1l2.2,1.3l-1.8,1L259.4,210.5z M253,210L253,210l-2.1-1.2l1.8-1.1l2.1,1.3L253,210z M245,208.9
				L245,208.9l-0.9-0.5l1.8-1.1l1,0.5L245,208.9L245,208.9z M255.9,208.3L255.9,208.3l-2.2-1.3l1.8-1.1l2.2,1.3L255.9,208.3
				L255.9,208.3z M248,207.1L248,207.1l-1-0.5l1.8-1.1l1,0.5L248,207.1L248,207.1z M258.9,206.6L258.9,206.6l-2.2-1.2l1.8-1.1
				l2.2,1.3L258.9,206.6L258.9,206.6z M250.9,205.4L250.9,205.4l-1-0.5l1.8-1l1,0.5L250.9,205.4L250.9,205.4z M253.9,203.7
				L253.9,203.7l-1-0.5l1.8-1l1,0.5L253.9,203.7L253.9,203.7z"/>
		</g>
	</g>
	<g id="freepik--PC--inject-94">
		<polygon id="freepik--shadow--inject-94_2_" class="st9" points="162.4,211.1 138,197.1 259.8,126.7 284.2,140.8 		"/>
		<g id="freepik--Monitor--inject-94">
			<path class="st1" d="M235.9,190.8l17.4-10.1c1.8-1,2.7-2.4,2.7-3.8v-2.4l-20.9-11.9c-1-0.7-1.7-1.8-1.7-3v-21.5L203,155.8v21.5
				c0.1,1.2,0.7,2.3,1.7,3l18.3,10.5C227.1,192.9,231.9,192.9,235.9,190.8z"/>
			<path class="st11" d="M210.3,181.1v2.4l-5.6-3.2c-1-0.7-1.7-1.8-1.7-3v-21.4l5.8-3.3c0.1,1.5,0.3,3,0.4,4.5l-4.1,2.4v16.8
				c0.1,1.2,0.7,2.3,1.7,3L210.3,181.1z"/>
			<path class="st0" d="M205.1,176.1c0.1,1.2,0.7,2.3,1.7,3l16.1,9.3c4.1,2.1,8.9,2.1,13,0l17.4-10.1c3.6-2.1,3.6-5.4,0-7.5
				l-16.1-9.3c-1-0.7-1.7-1.8-1.7-3v-16.8l-30.4,17.6V176.1z"/>
			<path class="st10" d="M240.7,163.6L240.7,163.6l-3.5-2c-1-0.7-1.7-1.8-1.7-3v-16.8l-30.4,17.6v16.8c0.1,1.2,0.7,2.3,1.7,3l3.5,2
				L240.7,163.6z"/>
			<path class="st10" d="M256,174.6v2.4c0,1.4-0.9,2.7-2.7,3.8l-17.4,10.1c-1.9,1-4,1.6-6.2,1.5v-2.4c2.2,0,4.3-0.5,6.2-1.5
				l17.4-10.1C255.1,177.3,256,175.9,256,174.6z"/>
			<path class="st3" d="M156.3,199.2c1.3,0.6,2.9,0.6,4.2-0.1L278,131.3c1.3-0.8,2.1-2.2,2.2-3.8V24.6c0-1.5-0.8-2.8-2-3.7
				c-1.3-0.6-2.9-0.6-4.2,0.1L156.4,88.9c-1.3,0.8-2.1,2.2-2.2,3.8v102.9C154.3,197,155,198.4,156.3,199.2z"/>
			<path class="st4" d="M160.5,199.1L278,131.3c1.3-0.8,2.1-2.2,2.2-3.8V24.6c0-1.4-1-1.9-2.2-1.3L160.5,91.3
				c-1.3,0.8-2.1,2.2-2.2,3.7v102.9C158.3,199.3,159.3,199.8,160.5,199.1z"/>
			<path class="st2" d="M160.5,199.1L278,131.3c1.3-0.8,2.1-2.2,2.2-3.8V24.6c0-1.4-1-1.9-2.2-1.3L160.5,91.3
				c-1.3,0.8-2.1,2.2-2.2,3.7v102.9C158.3,199.3,159.3,199.8,160.5,199.1z"/>
			<path class="st11" d="M160.1,199.3c-1.9,1.1-4.4,0.3-5.4-1.6c-0.4-0.7-0.5-1.4-0.5-2.2V184l4.1,2.4v11.6
				C158.3,199.1,159.1,199.7,160.1,199.3z"/>
			<path class="st6" d="M158.3,186.3v11.6c0,1.4,1,1.9,2.2,1.3L278,131.3c1.3-0.8,2.1-2.2,2.2-3.8V116L158.3,186.3z"/>
			<path class="st4" d="M162.4,177.8V96.4c0.1-0.9,0.5-1.7,1.3-2.3l111.1-64.2c0.7-0.4,1.3-0.1,1.3,0.8v81.4c0,0.9-0.5,1.8-1.3,2.3
				l-111.1,64.2C162.9,178.9,162.4,178.6,162.4,177.8z"/>
			<path class="st13" d="M162.4,177.8V96.4c0.1-0.9,0.5-1.7,1.3-2.3l111.1-64.2c0.7-0.4,1.3-0.1,1.3,0.8v81.4c0,0.9-0.5,1.8-1.3,2.3
				l-111.1,64.2C162.9,178.9,162.4,178.6,162.4,177.8z"/>
			<path class="st3" d="M168.9,95.7l99-57.1c0.7-0.4,1.3-0.1,1.3,0.8v72.1c0,0.9-0.5,1.7-1.3,2.2l-98.9,57.1
				c-0.7,0.4-1.3,0.1-1.3-0.8V98C167.7,97,168.1,96.2,168.9,95.7z"/>
			<path class="st14" d="M171.7,104.8v45.3c0,0.3,0.2,0.4,0.4,0.3l7.3-4.2c0.2-0.2,0.4-0.4,0.4-0.8v-45.3c0-0.3-0.2-0.4-0.4-0.3
				l-7.3,4.2C171.9,104.3,171.7,104.5,171.7,104.8z"/>
			<path class="st2" d="M172.7,105.9l2.4-1.4c0.2-0.1,0.3,0,0.3,0.2v2.8c0,0.2-0.1,0.4-0.3,0.6l-2.4,1.4c-0.2,0.1-0.3,0-0.3-0.2
				v-2.8C172.4,106.2,172.5,106,172.7,105.9z"/>
			<path class="st2" d="M176.4,103.8l2.4-1.4c0.2-0.1,0.3,0,0.3,0.2v2.8c0,0.2-0.1,0.4-0.3,0.6l-2.4,1.4c-0.2,0.1-0.3,0-0.3-0.2
				v-2.8C176.1,104.1,176.2,103.9,176.4,103.8z"/>
			<path class="st2" d="M172.7,110.1l2.4-1.4c0.2-0.1,0.3,0,0.3,0.2v2.8c0,0.2-0.1,0.4-0.3,0.6l-2.4,1.4c-0.2,0.1-0.3,0-0.3-0.2
				v-2.8C172.4,110.4,172.5,110.2,172.7,110.1z"/>
			<path class="st2" d="M176.4,108l2.4-1.4c0.2-0.1,0.3,0,0.3,0.2v2.8c0,0.2-0.1,0.4-0.3,0.6l-2.4,1.4c-0.2,0.1-0.3,0-0.3-0.2v-2.8
				C176.1,108.3,176.2,108.1,176.4,108z"/>
			<path class="st2" d="M172.7,114.3l2.4-1.4c0.2-0.1,0.3,0,0.3,0.2v2.8c0,0.2-0.1,0.4-0.3,0.6l-2.4,1.4c-0.2,0.1-0.3,0-0.3-0.2
				v-2.8C172.4,114.6,172.5,114.4,172.7,114.3z"/>
			<path class="st2" d="M176.4,112.2l2.4-1.4c0.2-0.1,0.3,0,0.3,0.2v2.8c0,0.2-0.1,0.4-0.3,0.6l-2.4,1.4c-0.2,0.1-0.3,0-0.3-0.2
				v-2.8C176.1,112.5,176.2,112.3,176.4,112.2z"/>
			<path class="st2" d="M172.7,118.5l2.4-1.4c0.2-0.1,0.3,0,0.3,0.2v2.8c0,0.2-0.1,0.4-0.3,0.6l-2.4,1.4c-0.2,0.1-0.3,0-0.3-0.2
				v-2.8C172.4,118.8,172.5,118.6,172.7,118.5z"/>
			<path class="st2" d="M176.4,116.4l2.4-1.4c0.2-0.1,0.3,0,0.3,0.2v2.8c0,0.2-0.1,0.4-0.3,0.6l-2.4,1.4c-0.2,0.1-0.3,0-0.3-0.2
				v-2.8C176.1,116.7,176.2,116.5,176.4,116.4z"/>
			<path class="st2" d="M172.7,122.7l2.4-1.4c0.2-0.1,0.3,0,0.3,0.2v2.8c0,0.2-0.1,0.4-0.3,0.6l-2.4,1.4c-0.2,0.1-0.3,0-0.3-0.2
				v-2.8C172.4,123,172.5,122.8,172.7,122.7z"/>
			<path class="st2" d="M176.4,120.6l2.4-1.4c0.2-0.1,0.3,0,0.3,0.2v2.8c0,0.2-0.1,0.4-0.3,0.6l-2.4,1.4c-0.2,0.1-0.3,0-0.3-0.2
				v-2.8C176.1,120.9,176.2,120.7,176.4,120.6z"/>
			<path class="st2" d="M172.7,126.9l2.4-1.4c0.2-0.1,0.3,0,0.3,0.2v2.8c0,0.2-0.1,0.4-0.3,0.6l-2.4,1.4c-0.2,0.1-0.3,0-0.3-0.2
				v-2.8C172.4,127.2,172.5,127,172.7,126.9z"/>
			<path class="st2" d="M176.4,124.8l2.4-1.4c0.2-0.1,0.3,0,0.3,0.2v2.8c0,0.2-0.1,0.4-0.3,0.6l-2.4,1.4c-0.2,0.1-0.3,0-0.3-0.2
				v-2.8C176.1,125.1,176.2,124.9,176.4,124.8z"/>
			<path class="st2" d="M172.7,131.1l2.4-1.4c0.2-0.1,0.3,0,0.3,0.2v2.8c0,0.2-0.1,0.4-0.3,0.6l-2.4,1.4c-0.2,0.1-0.3,0-0.3-0.2
				v-2.8C172.4,131.4,172.5,131.2,172.7,131.1z"/>
			<path class="st2" d="M176.4,129l2.4-1.4c0.2-0.1,0.3,0,0.3,0.2v2.8c0,0.2-0.1,0.4-0.3,0.6l-2.4,1.4c-0.2,0.1-0.3,0-0.3-0.2v-2.8
				C176.1,129.3,176.2,129.1,176.4,129z"/>
			<path class="st2" d="M172.7,135.3l2.4-1.4c0.2-0.1,0.3,0,0.3,0.2v2.8c0,0.2-0.1,0.4-0.3,0.6l-2.4,1.4c-0.2,0.1-0.3,0-0.3-0.2
				v-2.8C172.4,135.6,172.5,135.4,172.7,135.3z"/>
			<path class="st2" d="M176.4,133.1l2.4-1.4c0.2-0.1,0.3,0,0.3,0.2v2.8c0,0.2-0.1,0.4-0.3,0.6l-2.4,1.4c-0.2,0.1-0.3,0-0.3-0.2
				v-2.8C176.1,133.5,176.2,133.3,176.4,133.1z"/>
			<path class="st11" d="M172.9,140.6l3.6-2.1c0.3-0.2,0.5,0,0.5,0.3v4.1c0,0.3-0.2,0.7-0.5,0.8l-3.6,2.1c-0.3,0.1-0.5,0-0.5-0.3
				v-4.1C172.4,141,172.6,140.7,172.9,140.6z"/>
			<path class="st3" d="M178.4,141.3v3.4c0,0.1-0.1,0.1-0.1,0.2l-2.9,1.7v-3.4c0-0.1,0.1-0.1,0.1-0.2L178.4,141.3 M178.9,140.2
				c-0.1,0-0.1,0-0.2,0.1l-3.6,2.1c-0.3,0.2-0.5,0.5-0.5,0.8v4.1c0,0.2,0.1,0.4,0.3,0.4c0.1,0,0.2,0,0.2-0.1l3.6-2.1
				c0.3-0.2,0.5-0.5,0.5-0.8v-4.1C179.2,140.3,179.1,140.2,178.9,140.2L178.9,140.2z"/>
			<path class="st2" d="M186,103.4l56.6-32.7c1.2-0.7,2.2-0.1,2.2,1.3v41.9c-0.1,1.5-0.9,2.9-2.2,3.8L186,150.3
				c-1.2,0.7-2.2,0.1-2.2-1.3v-41.9C183.9,105.6,184.7,104.2,186,103.4z"/>
			<path class="st2" d="M269.2,39.3c0-0.8-0.6-1.2-1.3-0.7l-99,57.1c-0.8,0.5-1.3,1.3-1.3,2.3v5.5l101.6-58.6V39.3z"/>
			<path class="st3" d="M219.2,155.8c-1.2,0.8-1.9,2.1-2,3.5c0,1.3,0.9,1.8,2,1.2c1.2-0.8,1.9-2.1,2-3.5
				C221.3,155.7,220.3,155.2,219.2,155.8z"/>
			<path class="st14" d="M158.9,92.9c-0.4,0.7-0.6,1.4-0.6,2.2v91.3l-4.1-2.3V92.7c0-0.8,0.3-1.5,0.6-2.1L158.9,92.9z"/>
		</g>
	</g>
	<g id="freepik--Tablet--inject-94">
		<path id="freepik--shadow--inject-94_3_" class="st9" d="M266.5,194.9l52.5-30.3c0.6-0.3,1.2-0.3,1.8,0l31.6,18.3
			c0.5,0.3,0.5,0.7,0,1L300,214.2c-0.6,0.3-1.2,0.3-1.8,0l-31.6-18.3C266,195.7,266,195.2,266.5,194.9z"/>
		<g id="freepik--tablet--inject-94">
			<path class="st4" d="M267.4,191.6l51.1-29.5c0.5-0.3,1.2-0.3,1.7,0l30.8,17.8c0.5,0.3,0.8,0.9,0.9,1.5v0.4c0,0.6-0.4,1.2-0.9,1.5
				l-51.1,29.5c-0.5,0.3-1.2,0.3-1.7,0L267.4,195c-0.5-0.3-0.8-0.9-0.9-1.5v-0.4C266.6,192.5,266.9,192,267.4,191.6z"/>
			<path class="st4" d="M267.4,191.6l51.1-29.5c0.5-0.3,1.2-0.3,1.7,0l30.8,17.8c0.5,0.3,0.5,0.7,0,1l-51.1,29.5
				c-0.5,0.3-1.2,0.3-1.7,0l-30.8-17.8c-0.3-0.1-0.4-0.4-0.3-0.7C267.1,191.8,267.3,191.7,267.4,191.6z"/>
			<g class="st15">
				<path d="M267.4,191.6l51.1-29.5c0.5-0.3,1.2-0.3,1.7,0l30.8,17.8c0.5,0.3,0.5,0.7,0,1l-51.1,29.5c-0.5,0.3-1.2,0.3-1.7,0
					l-30.8-17.8c-0.3-0.1-0.4-0.4-0.3-0.7C267.1,191.8,267.3,191.7,267.4,191.6z"/>
			</g>
			<path class="st3" d="M318.5,166.9c0.5-0.3,1.2-0.3,1.7,0c3.8,2.2,18.9,10.9,22.6,13.1c0.5,0.3,0.5,0.7,0,1
				c-5,2.9-29.9,17.2-34.8,20.1c-0.5,0.3-1.2,0.3-1.7,0l-22.6-13c-0.5-0.3-0.5-0.7,0-1L318.5,166.9z"/>
			<path class="st2" d="M286.9,196c-1.5,0.9-1.5,2.3,0,3.2c1.7,0.9,3.8,0.9,5.5,0c1.5-0.9,1.5-2.3,0-3.2
				C290.6,195.1,288.6,195.1,286.9,196z"/>
			<path class="st2" d="M295.4,199.3l-2.5,1.4c-0.7,0.4-0.8,1-0.3,1.3c0.8,0.3,1.6,0.2,2.3-0.2l2.5-1.4c0.7-0.4,0.8-1,0.3-1.3
				C297,198.8,296.1,198.9,295.4,199.3z"/>
			<path class="st2" d="M298.3,201l-2.5,1.4c-0.7,0.4-0.9,1-0.3,1.3c0.8,0.3,1.6,0.2,2.3-0.2l2.5-1.4c0.7-0.4,0.9-1,0.3-1.3
				C299.9,200.5,299,200.6,298.3,201z"/>
			<path class="st2" d="M301.2,202.6l-2.5,1.4c-0.7,0.4-0.8,1-0.3,1.3c0.8,0.3,1.6,0.3,2.3-0.2l2.5-1.4c0.7-0.4,0.9-1,0.3-1.3
				C302.7,202.2,301.9,202.2,301.2,202.6z"/>
			<path class="st2" d="M278.8,189.8l-2.5,1.4c-0.7,0.4-0.9,1-0.3,1.3c0.8,0.3,1.6,0.3,2.3-0.2l2.5-1.4c0.7-0.4,0.9-1,0.3-1.3
				C280.4,189.3,279.5,189.4,278.8,189.8z"/>
			<path class="st2" d="M281.7,191.4l-2.5,1.4c-0.7,0.4-0.8,1-0.3,1.3c0.8,0.3,1.6,0.3,2.3-0.2l2.5-1.4c0.7-0.4,0.8-1,0.3-1.3
				C283.3,191,282.4,191,281.7,191.4z"/>
			<path class="st2" d="M284.6,193.1l-2.5,1.4c-0.7,0.4-0.9,1-0.3,1.3c0.8,0.3,1.6,0.2,2.3-0.2l2.5-1.4c0.7-0.4,0.9-1,0.3-1.3
				C286.2,192.6,285.3,192.7,284.6,193.1z"/>
			<g class="st16">
				<path d="M299,210.6v2.4c-0.3,0-0.6-0.1-0.9-0.2L267.4,195c-0.5-0.3-0.8-0.9-0.9-1.5v-0.3c0-0.5,0.3-1,0.7-1.4
					c-0.3,0.3-0.3,0.6,0.2,0.9l30.8,17.8C298.4,210.6,298.7,210.6,299,210.6z"/>
			</g>
			<g class="st17">
				<path d="M351.9,181.4v0.4c0,0.6-0.4,1.2-0.9,1.5l-51.1,29.5c-0.3,0.1-0.6,0.2-0.9,0.2v-2.3c0.3,0,0.6-0.1,0.9-0.2l51.1-29.5
					c0.4-0.2,0.5-0.6,0.2-0.9C351.6,180.4,351.8,180.9,351.9,181.4z"/>
			</g>
		</g>
	</g>
	<g id="freepik--Palettes--inject-94">
		<path id="freepik--shadow--inject-94_4_" class="st9" d="M338.1,128.8c-0.1-0.2-0.4-0.4-0.6-0.4l-44-6.8h-0.2
			c-0.3,0-0.6,0.2-0.8,0.4l-1.9,4.1l-2.4,2.4c-0.1,0.1-0.1,0.1-0.1,0.2l-1.3,0.8c-0.2,0.1-0.4,0.3-0.4,0.6c0,0.2,0.1,0.5,0.4,0.6
			l32.2,18.6c0.2,0.1,0.3,0.1,0.5,0.1c0.2,0,0.4,0,0.5-0.1l6.7-3.9c0.2-0.1,0.4-0.3,0.4-0.6c0-0.2-0.1-0.5-0.4-0.6l-7.8-4.5l9.2,3.1
			c0.1,0,0.2,0,0.3,0.1c0.2,0,0.5-0.1,0.7-0.3l4.7-4.7c0.2-0.2,0.2-0.4,0.2-0.6c-0.1-0.2-0.3-0.4-0.5-0.5l-10.4-3.5l11.7,1.8h0.2
			c0.3,0,0.6-0.2,0.8-0.4l2.4-5.3C338.2,129.2,338.2,129,338.1,128.8z"/>
		<g id="freepik--Palette--inject-94">
			<path class="st2" d="M326.5,142.9c0-0.1,0-0.1-0.1-0.1l-32.2-18.6c-0.2-0.1-0.4-0.1-0.5,0L287,128c-0.1,0-0.1,0.1-0.1,0.1v1
				c0,0.1,0,0.1,0.1,0.1l32.2,18.6c0.2,0.1,0.3,0.1,0.5,0l6.7-3.9c0.1,0,0.1-0.1,0.1-0.1L326.5,142.9z"/>
			<path class="st14" d="M319.5,146.9v1c-0.1,0-0.2,0-0.3-0.1L287,129.3c-0.1,0-0.1-0.1-0.1-0.1v-1c0,0.1,0,0.1,0.1,0.1l32.2,18.6
				C319.3,146.9,319.4,146.9,319.5,146.9z"/>
			<path class="st3" d="M294.2,124.1l32.2,18.6c0.1,0,0.1,0.1,0.1,0.2c0,0.1-0.1,0.1-0.1,0.1l-6.7,3.9c-0.2,0.1-0.3,0.1-0.5,0
				L287,128.3c-0.1-0.1-0.1-0.2,0-0.3l6.7-3.8C293.8,124,294,124,294.2,124.1z"/>
			<polygon class="st18" points="293.9,125.8 289.9,128.1 293.9,130.4 297.9,128.1 			"/>
			<polygon class="st18" points="304.1,131.7 300.1,134 304.1,136.3 308.1,134 			"/>
			<polygon class="st19" points="304.1,131.7 300.1,134 304.1,136.3 308.1,134 			"/>
			<polygon class="st18" points="309.2,134.7 305.3,137 309.2,139.3 313.2,137 			"/>
			<polygon class="st20" points="309.2,134.7 305.3,137 309.2,139.3 313.2,137 			"/>
			<polygon class="st18" points="314.4,137.6 310.4,139.9 314.4,142.2 318.3,139.9 			"/>
			<polygon class="st21" points="314.4,137.6 310.4,139.9 314.4,142.2 318.3,139.9 			"/>
			<polygon class="st18" points="319.5,140.6 315.5,142.9 319.5,145.2 323.5,142.9 			"/>
			<polygon class="st22" points="319.5,140.6 315.5,142.9 319.5,145.2 323.5,142.9 			"/>
			<polygon class="st18" points="299,128.8 295,131.1 299,133.4 303,131.1 			"/>
			<polygon class="st20" points="299,128.8 295,131.1 299,133.4 303,131.1 			"/>
			<path class="st14" d="M294.3,125.3c-0.3,0.1-0.6,0.1-0.8,0c-0.2-0.1-0.2-0.3,0-0.5c0.3-0.1,0.6-0.1,0.8,0c0.1,0,0.2,0.2,0.1,0.3
				C294.4,125.2,294.4,125.2,294.3,125.3z"/>
		</g>
		<g id="freepik--palette--inject-94">
			<path class="st2" d="M333.4,135.4c0-0.1-0.1-0.1-0.2-0.2l-39.5-13.2c-0.2-0.1-0.4,0-0.5,0.1l-4.7,4.7c0,0,0,0.1,0,0.1v1
				c0,0.1,0.1,0.1,0.2,0.2l39.5,13.2c0.2,0.1,0.4,0,0.5-0.1l4.7-4.7c0,0,0-0.1,0-0.1L333.4,135.4z"/>
			<path class="st14" d="M328.4,140.4v1c-0.1,0-0.2,0-0.3,0l-39.5-13.2c-0.1,0-0.2-0.1-0.2-0.2v-1c0,0.1,0.1,0.1,0.2,0.2l39.5,13.2
				C328.2,140.4,328.3,140.4,328.4,140.4z"/>
			<path class="st3" d="M293.7,122.1l39.5,13.2c0.2,0.1,0.2,0.2,0.1,0.3l-4.7,4.7c-0.1,0.1-0.3,0.1-0.5,0.1l-39.5-13.2
				c-0.2-0.1-0.2-0.2-0.1-0.3l4.7-4.7C293.4,122.1,293.6,122,293.7,122.1z"/>
			<polygon class="st4" points="294.3,123.8 291.4,126.6 296.3,128.2 299.1,125.4 			"/>
			<polygon class="st4" points="306.8,128 304,130.8 308.8,132.4 311.7,129.6 			"/>
			<polygon class="st23" points="306.8,128 304,130.8 308.8,132.4 311.7,129.6 			"/>
			<polygon class="st4" points="313,130 310.2,132.9 315.1,134.5 317.9,131.7 			"/>
			<polygon class="st24" points="313,130 310.2,132.9 315.1,134.5 317.9,131.7 			"/>
			<polygon class="st4" points="319.3,132.1 316.5,135 321.4,136.6 324.2,133.8 			"/>
			<polygon class="st24" points="319.3,132.1 316.5,135 321.4,136.6 324.2,133.8 			"/>
			<polygon class="st4" points="325.5,134.2 322.7,137 327.6,138.7 330.4,135.9 			"/>
			<polygon class="st12" points="325.5,134.2 322.7,137 327.6,138.7 330.4,135.9 			"/>
			<polygon class="st4" points="300.5,125.9 297.7,128.7 302.6,130.3 305.4,127.5 			"/>
			<polygon class="st25" points="300.5,125.9 297.7,128.7 302.6,130.3 305.4,127.5 			"/>
			<path class="st14" d="M294.4,123.2c-0.2,0.2-0.5,0.2-0.8,0.1c-0.3-0.1-0.4-0.3-0.2-0.4c0.2-0.2,0.5-0.2,0.8-0.1
				C294.5,122.8,294.6,123,294.4,123.2z"/>
		</g>
		<g id="freepik--palette--inject-94_1_">
			<path class="st2" d="M337.6,127.2c0-0.1-0.1-0.2-0.3-0.2l-44-6.8c-0.2,0-0.3,0-0.5,0.2l-2.4,5.3c0,0,0,0,0,0.1v1
				c0,0.1,0.1,0.2,0.3,0.2l44,6.8c0.2,0,0.3,0,0.4-0.1l2.5-5.3c0,0,0,0,0-0.1V127.2z"/>
			<path class="st14" d="M335,132.6v1c-0.1,0-0.1,0-0.2,0l-44-6.8c-0.2,0-0.3-0.1-0.3-0.2v-1c0,0.1,0.1,0.2,0.3,0.2l44,6.8H335z"/>
			<path class="st3" d="M293.3,120.2l44,6.8c0.2,0,0.3,0.1,0.3,0.3l-2.5,5.3c-0.1,0.1-0.3,0.2-0.4,0.1l-44-6.8
				c-0.2,0-0.3-0.1-0.3-0.3l2.4-5.3C293,120.2,293.2,120.1,293.3,120.2z"/>
			<polygon class="st4" points="294.6,121.7 293.1,124.8 298.6,125.7 300,122.5 			"/>
			<polygon class="st4" points="308.5,123.9 307.1,127 312.5,127.8 314,124.7 			"/>
			<polygon class="st26" points="308.5,123.9 307.1,127 312.5,127.8 314,124.7 			"/>
			<polygon class="st4" points="315.5,124.9 314.1,128.1 319.5,128.9 321,125.8 			"/>
			<polygon class="st27" points="315.5,124.9 314.1,128.1 319.5,128.9 321,125.8 			"/>
			<polygon class="st4" points="322.5,126 321,129.2 326.5,130 328,126.9 			"/>
			<polygon class="st28" points="322.5,126 321,129.2 326.5,130 328,126.9 			"/>
			<polygon class="st4" points="329.5,127.1 328,130.3 333.5,131.1 334.9,127.9 			"/>
			<polygon class="st6" points="329.5,127.1 328,130.3 333.5,131.1 334.9,127.9 			"/>
			<polygon class="st4" points="301.6,122.8 300.1,125.9 305.5,126.8 307,123.6 			"/>
			<polygon class="st27" points="301.6,122.8 300.1,125.9 305.5,126.8 307,123.6 			"/>
			<path class="st14" d="M294.5,121.1c-0.2,0.2-0.4,0.3-0.7,0.2c-0.3,0-0.5-0.2-0.4-0.4c0.2-0.2,0.4-0.3,0.7-0.2
				C294.4,120.8,294.5,120.9,294.5,121.1z"/>
		</g>
	</g>
	<g id="freepik--Printer--inject-94">
		<path id="freepik--shadow--inject-94_5_" class="st9" d="M160,238l-44.9-26c-0.8-0.4-1.8-0.4-2.6,0l-63.9,37
			c-0.4,0.1-0.6,0.6-0.5,1c0.1,0.2,0.3,0.4,0.5,0.5l44.9,26c0.8,0.4,1.8,0.4,2.6,0l10.4-6c0.8-0.4,1.8-0.4,2.6,0l15.4,8.9
			c0.8,0.4,1.8,0.4,2.6,0l32.6-18.8c0.4-0.1,0.6-0.6,0.5-1c-0.1-0.2-0.3-0.4-0.5-0.5l-15.3-8.9c-0.4-0.1-0.6-0.6-0.5-1
			c0.1-0.2,0.3-0.4,0.5-0.5l15.7-9.1C160.7,239.1,160.7,238.5,160,238z"/>
		<g id="freepik--printer--inject-94">
			<path class="st4" d="M96.9,273.3l57.7-33.3c1.4-0.9,2.3-2.4,2.4-4.1v-20.3c-0.1-1.7-1-3.2-2.4-4.1l-39.9-23
				c-1.5-0.8-3.3-0.8-4.8,0l-57.8,33.3c-1.4,0.9-2.3,2.5-2.4,4.1v20.3c0.1,1.7,1,3.2,2.4,4.1l39.9,23C93.6,274,95.4,274,96.9,273.3z
				"/>
			<path class="st29" d="M94.5,271.9v-20.3c-0.1-1.7-1-3.2-2.4-4.1l-39.9-23c-1.3-0.8-2.4-0.1-2.4,1.4v20.3c0.1,1.7,1,3.2,2.4,4.1
				l39.9,23C93.4,274,94.5,273.4,94.5,271.9z"/>
			<path class="st4" d="M155.9,212.6l-62.5,36.1c-0.3-0.5-0.8-0.9-1.3-1.2l-39.9-23c-1.2-0.7-2.2-0.3-2.3,0.9
				c0.2-1.5,1.1-2.9,2.3-3.7l57.8-33.4c1.5-0.8,3.3-0.8,4.8,0l39.9,23C155.2,211.7,155.6,212.1,155.9,212.6z"/>
			<path class="st24" d="M155.9,212.6l-62.5,36.1c-0.3-0.5-0.8-0.9-1.3-1.2l-39.9-23c-1.2-0.7-2.2-0.3-2.3,0.9
				c0.2-1.5,1.1-2.9,2.3-3.7l57.8-33.4c1.5-0.8,3.3-0.8,4.8,0l39.9,23C155.2,211.7,155.6,212.1,155.9,212.6z"/>
			<path class="st30" d="M157,215.5v20.3c-0.1,1.7-1,3.2-2.4,4.1l-57.7,33.3c-1.4,0.7-3,0.8-4.4,0.2c1.1,0.5,2-0.2,2-1.5v-20.3
				c0-1.1-0.4-2.1-1.1-3l62.5-36.1C156.6,213.4,157,214.4,157,215.5z"/>
			<path class="st31" d="M74.1,226.8l27,15.6c1.5,0.8,2.4,2.4,2.4,4.1v5.4c0,1.2,0.8,1.7,1.9,1.1l40.9-23.6c1.1-0.7,1.8-2,1.9-3.3
				v-5.4c0-1.7-0.9-3.3-2.4-4.1l-27-15.6c-1.2-0.6-2.6-0.6-3.8,0l-40.8,23.6c-0.6,0.2-0.9,0.9-0.7,1.5
				C73.5,226.4,73.8,226.7,74.1,226.8z"/>
			<polygon class="st11" points="103.4,264.4 103.4,261.8 148.1,236 148.1,238.6 			"/>
			<polygon class="st4" points="103.4,264.4 103.4,261.8 148.1,236 148.1,238.6 			"/>
			<polygon class="st32" points="103.4,264.4 103.4,261.8 148.1,236 148.1,238.6 			"/>
			<path class="st11" d="M106.8,262.4l18,10.4c0.6,0.3,1.3,0.3,1.9,0l33.8-19.5c0.7-0.2,1.1-0.8,0.9-1.5c-0.1-0.4-0.5-0.8-0.9-0.9
				l-18-10.4l-35.7,20.6L106.8,262.4z"/>
			<path class="st10" d="M161.5,252.1c-0.1,0.5-0.5,1-0.9,1.2l-33.8,19.5c-0.3,0.2-0.7,0.3-1,0.2v-1.3c0.3,0,0.7-0.1,1-0.2
				l33.8-19.5c0.3-0.1,0.5-0.4,0.4-0.8c-0.1-0.2-0.2-0.3-0.4-0.4C161,251.1,161.4,251.6,161.5,252.1z"/>
			<path class="st6" d="M124.8,271.5c0.6,0.3,1.3,0.3,1.9,0l33.8-19.5c0.3-0.1,0.5-0.4,0.4-0.7c-0.1-0.2-0.2-0.3-0.4-0.4l-18-10.4
				l-35.7,20.6L124.8,271.5z"/>
			<polygon class="st11" points="63.3,220.5 107.9,194.7 110.1,196 65.4,221.8 			"/>
			<polygon class="st4" points="63.3,220.5 107.9,194.7 110.1,196 65.4,221.8 			"/>
			<polygon class="st32" points="63.3,220.5 107.9,194.7 110.1,196 65.4,221.8 			"/>
			<polygon class="st11" points="63.3,220.5 61.2,211.4 105.8,185.6 107.9,194.7 			"/>
			<polygon class="st4" points="64.3,221.1 62.2,212 106.9,186.2 108.9,195.4 			"/>
			<polygon class="st30" points="64.3,221.1 62.2,212 106.9,186.2 108.9,195.4 			"/>
			<polygon class="st4" points="62.2,212 61.2,211.4 63.3,220.5 64.3,221.1 			"/>
			<polygon class="st29" points="62.2,212 61.2,211.4 63.3,220.5 64.3,221.1 			"/>
			<polygon class="st4" points="61.2,211.4 62.2,212 106.9,186.2 105.8,185.6 			"/>
			<polygon class="st24" points="61.2,211.4 62.2,212 106.9,186.2 105.8,185.6 			"/>
			<path class="st22" d="M107.9,220.5c-2.5,1.4-2.5,3.8,0,5.2c2.8,1.4,6.2,1.4,9,0c2.5-1.4,2.5-3.8,0-5.2
				C114.1,219.1,110.7,219.1,107.9,220.5z"/>
		</g>
	</g>
	<g id="freepik--Pencil--inject-94">
		<polygon id="freepik--shadow--inject-94_6_" class="st33" points="174.3,225.8 177.3,227.6 201.5,213.4 204.2,210.3 198.6,211.7 
					"/>
		<path class="st18" d="M198.9,209.6l5.2-1c0.1,0,0.2,0,0.2,0.1c0,0,0,0.1,0,0.1l-3.5,4L198.9,209.6z"/>
		<path class="st14" d="M204.2,208.8c0.1-0.1,0-0.2,0-0.2c0,0-0.1,0-0.1,0l-1,0.2l0,0c0.3,0.2,0.4,0.5,0.4,0.8v0.1L204.2,208.8z"/>
		<path class="st4" d="M181.4,223.8l0.4-0.3l0.5-0.3l18.3-10.5c0.2-0.6,0.1-1.2-0.1-1.7c-0.3-0.7-0.9-1.3-1.7-1.5l-18.3,10.5l-1,0.6
			C180.3,220.3,182.1,223.5,181.4,223.8z"/>
		<path class="st10" d="M183.1,222.9l0.9-0.5c0.3-0.1,0.1-0.8-0.2-1.5c-0.4-0.9-1.3-1.9-1.6-1.6l-0.7,0.4l-0.3,0.1
			c0.4-0.2,1.2,0.7,1.6,1.7C183.2,222,183.3,222.7,183.1,222.9L183.1,222.9L183.1,222.9z"/>
		<path class="st4" d="M183.3,222.8c0.6-0.3-1.2-3.5-1.9-3.2l-0.9,0.5c0.6-0.4,2.5,2.8,1.9,3.2L183.3,222.8z"/>
		<path class="st10" d="M181.4,223.8l0.9-0.5c0.6-0.3-1.1-3.4-1.8-3.2l0,0l-0.9,0.5C180.3,220.3,182.1,223.5,181.4,223.8z"/>
		<path class="st25" d="M204.2,208.6l-0.2-0.1l-3.7,2l-19.4,11.1c0,0-0.1-0.1-0.1,0c0.6,0.9,1,1.9,0.6,2.1l0.4-0.3l0.5-0.3
			l18.3-10.5l0,0l3.5-4C204.2,208.7,204.2,208.7,204.2,208.6z"/>
		<path class="st18" d="M177.5,226.1l4-2.3c0.3-0.1,0.1-0.8-0.2-1.5c-0.4-0.9-1.3-1.9-1.6-1.7l0,0l-4,2.3c-0.8,0.4-0.1,2.2,0.8,2.9
			C176.7,226.1,177.1,226.2,177.5,226.1z"/>
		<path class="st34" d="M177.7,224.8c-0.2-0.9-0.8-1.6-1.6-2c-0.2-0.1-0.4,0-0.6,0.1c-0.6,0.6,0.1,2.1,0.9,2.8
			c0.3,0.3,0.6,0.4,1,0.3C177.8,225.9,177.9,225.4,177.7,224.8z"/>
	</g>
	<g id="freepik--Papers--inject-94">
		<path id="freepik--shadow--inject-94_7_" class="st9" d="M172.1,307.3c-0.5,0-1.1-0.1-1.6-0.4L144.8,292c-0.7-0.3-1-1-0.7-1.7
			c0.1-0.3,0.4-0.6,0.7-0.7l4.6-2.7l-2.2-1.3c-0.7-0.3-1-1-0.7-1.7c0.1-0.3,0.4-0.6,0.7-0.7l38-22c0.5-0.3,1-0.4,1.6-0.4
			c0.5,0,1.1,0.1,1.6,0.4l25.8,14.9c0.7,0.3,1,1,0.7,1.7c-0.1,0.3-0.4,0.6-0.7,0.7l-4.6,2.7l2.2,1.3c0.7,0.3,1,1,0.7,1.7
			c-0.1,0.3-0.4,0.6-0.7,0.7l-38,22C173.2,307.1,172.7,307.3,172.1,307.3z"/>
		<path class="st10" d="M212,281.7c0-0.3-0.2-0.6-0.5-0.8l-25.8-14.9c-0.8-0.4-1.8-0.4-2.6,0L145,288c-0.3,0.1-0.5,0.4-0.5,0.8v1.3
			c0,0.3,0.2,0.6,0.5,0.7l25.8,14.9c0.8,0.4,1.8,0.4,2.6,0l38-22c0.3-0.1,0.5-0.4,0.5-0.7L212,281.7z"/>
		<path class="st6" d="M145,288l38-22c0.8-0.4,1.8-0.4,2.6,0l25.9,15c0.7,0.4,0.7,1.1,0,1.5l-38,22c-0.8,0.4-1.8,0.4-2.6,0l-25.9-15
			c-0.4-0.1-0.7-0.6-0.5-1C144.5,288.3,144.7,288.1,145,288z"/>
		<path class="st11" d="M172.1,304.8v1.2c-0.5,0-0.9-0.1-1.3-0.3L145,290.7c-0.3-0.1-0.5-0.4-0.5-0.8v-1.2c0,0.3,0.2,0.6,0.5,0.8
			l25.8,14.9C171.2,304.7,171.7,304.8,172.1,304.8z"/>
		<path class="st10" d="M214.4,275.4c0-0.3-0.2-0.6-0.5-0.8L188,259.8c-0.8-0.4-1.8-0.4-2.6,0l-38,22c-0.3,0.1-0.5,0.4-0.5,0.8v1.2
			c0,0.3,0.2,0.6,0.5,0.7l25.8,14.9c0.8,0.4,1.8,0.4,2.6,0l38-22c0.3-0.1,0.5-0.4,0.5-0.7L214.4,275.4z"/>
		<path class="st6" d="M147.4,281.7l38-22c0.8-0.4,1.8-0.4,2.6,0l25.8,14.9c0.7,0.4,0.7,1.1,0,1.5l-38,22c-0.8,0.4-1.8,0.4-2.6,0
			l-25.8-14.9c-0.4-0.1-0.6-0.6-0.5-1C147,282,147.2,281.8,147.4,281.7z"/>
		<path class="st3" d="M193.7,271.4c0-0.4-0.7-0.2-0.7,0.1c-0.1,2.2-1.1,4.6-3.6,4.6c-0.6,0-1.2-0.2-1.7-0.5c0.6-1.8,1-6.2-1.4-5
			c-2,1-1,3.7,0.5,5.2c-2.5,3-3.9,0.5-4.1-1.4c0-0.1,0-0.3-0.1-0.4c0-0.4-0.8-0.2-0.8,0.2c0,0.2,0,0.5,0.1,0.7
			c0.2,1.2,0.2,2.4,0,3.6v0.1c-0.1,0.8-0.4,1.5-1,2c-0.8,0.6-1.8-0.3-2.2-1c-0.3-0.5-0.5-1-0.6-1.6c-0.1-0.3-0.1-0.7-0.1-1
			c0-0.4-0.7-0.2-0.7,0.1c0.1,3.2-1.5,5.7-3.7,8c-0.5,0.5-1,1-1.4,1.4c-0.5-1.6-1-3.1-1.5-4.7c-0.1-0.5-0.3-1-0.4-1.5
			c0.6-0.6,1-1.3,1.3-2.1c0.3-0.9,0.6-3-0.7-3.3s-1.7,1.3-1.9,2.2c-0.1,1.1-0.1,2.2,0.2,3.3c-1.8,1.4-4.1,2.3-6.4,2.4l0,0
			c2.3,0.1,4.6-0.6,6.5-1.9c0.3,1.1,0.7,2.2,1.1,3.3c0.2,0.6,0.6,1.7,1,2.8c-0.6,0.6-1.1,1.3-1.4,2.1c-0.4,1.2-0.5,2.8,0.8,3.4
			c0.6,0.4,1.3,0.2,1.7-0.3c0,0,0-0.1,0.1-0.1c0.6-0.9,0.2-2.8,0-3.8c-0.1-0.5-0.3-1-0.4-1.4c0.3-0.3,0.6-0.5,0.8-0.8
			c1-0.9,1.9-1.9,2.7-3c0.9-1.2,1.5-2.6,1.9-4c0.6,1.6,1.7,2.8,3.6,1.6c1.3-0.8,1.6-2.4,1.6-3.9c0.4,0.5,0.9,0.8,1.5,0.9
			c1.3,0.1,2.5-0.7,3-1.8c0.3,0.2,0.6,0.4,1,0.4C191.8,277.4,193.9,274.6,193.7,271.4z M170,277.6c0-0.4,0.1-0.8,0.3-1.1
			c0.1-0.1,0.2-0.2,0.3-0.3c0.1,0,0.3,0.1,0.3,0.2c0.2,0.7,0.2,1.5-0.1,2.2c-0.1,0.4-0.4,0.8-0.6,1.1c0-0.2-0.1-0.4-0.1-0.6
			C170,278.7,170,278.1,170,277.6z M171,289.9c0.1-0.4,0.2-0.8,0.4-1.1c0.1-0.2,0.1-0.4,0.2-0.5c0-0.1,0.2-0.2,0.2-0.3
			c0.4,1.1,0.9,2.4,0.4,3.5c-0.1,0.2-0.3,0.4-0.5,0.5c-0.2,0-0.4,0-0.5-0.2c-0.1-0.1-0.2-0.3-0.3-0.5
			C170.9,290.8,170.9,290.4,171,289.9L171,289.9z M186.6,274.3c-0.2-0.5-0.3-1.1-0.3-1.7c0-0.2,0-0.4,0.1-0.6
			c0.1-0.2,0.3-0.3,0.5-0.3c0.7,0,0.8,1,0.7,1.4c-0.1,0.7-0.2,1.3-0.4,2C186.9,274.9,186.7,274.6,186.6,274.3L186.6,274.3z"/>
		<path class="st11" d="M174.5,298.4v1.2c-0.5,0-0.9-0.1-1.3-0.3l-25.8-14.9c-0.3-0.1-0.5-0.4-0.5-0.8v-1.2c0,0.3,0.2,0.6,0.5,0.8
			l25.8,14.9C173.6,298.4,174.1,298.5,174.5,298.4z"/>
	</g>
	<g id="freepik--Image--inject-94">
		<path class="st11" d="M288.4,37.6l-55.6,32.1c-0.8,0.5-1.3,1.3-1.3,2.3v52.9c0,0.9,0.5,1.8,1.3,2.3l0.8,0.5c0.8,0.4,1.8,0.4,2.6,0
			l55.6-32.1c0.8-0.5,1.2-1.3,1.3-2.3V40.4c0-0.9-0.5-1.8-1.3-2.3l-0.8-0.5C290.2,37.2,289.2,37.2,288.4,37.6z"/>
		<path class="st6" d="M293.1,40c-0.2-0.5-0.7-0.7-1.3-0.4l-55.6,32.1c-0.4,0.2-0.7,0.6-0.9,1l-3.4-2c0.2-0.4,0.5-0.8,0.9-1
			l55.6-32.1c0.8-0.4,1.8-0.4,2.6,0l0.8,0.5C292.5,38.5,292.9,39.2,293.1,40z"/>
		<path class="st0" d="M291.8,39.6l-55.6,32.1c-0.8,0.5-1.2,1.4-1.3,2.3v53c0,0.8,0.6,1.2,1.3,0.8l55.6-32.1
			c0.8-0.5,1.2-1.3,1.3-2.3V40.4C293.1,39.5,292.5,39.2,291.8,39.6z"/>
		<polygon class="st4" points="238.4,74.4 289.7,44.8 289.7,92.2 238.4,121.9 		"/>
		<polygon class="st35" points="238.4,74.4 289.7,44.8 289.7,92.2 238.4,121.9 		"/>
		<polygon class="st4" points="238.4,106.1 253,80.9 272.9,95.8 268.1,90.4 278.7,76.3 289.7,83.3 289.7,92.2 238.4,121.9 		"/>
		<path class="st4" d="M274.3,62.1c-2,1.3-3.3,3.5-3.4,5.9c0,2.2,1.5,3.1,3.4,2c2-1.3,3.3-3.5,3.4-5.9
			C277.7,61.9,276.2,61,274.3,62.1z"/>
	</g>
</g>
<g id="freepik--Character--inject-94">
	<g id="freepik--character--inject-94">
		<path class="st18" d="M335,324.6c0-0.2,1.1-11.9,1.1-11.9s-0.8,1.2-7.6,0.6c-2.6-0.3-5.1-0.9-7.5-1.7l-0.4,8.5
			c-1.2,3.4-7.1,3-13.5,3.3c-1.1,0.1-2.2,0.1-3.3,0.1h-0.1c-3.4,0.4-6.4,3-2.4,5.3s9.9,2.4,15.4,2.4
			C323.4,331.2,334.9,331.2,335,324.6z"/>
		<path class="st36" d="M290.1,331.3c-0.3,1.2-0.2,2.4,0.1,3.5c0.3,1.2,4.1,4.9,10,6.5s12.6,0.7,15.9,1s6.5,1.7,10.3,1.9
			s7.6,0.1,10.9-3c0.5-1.2,0.8-3.7,0.6-3.9C337.2,336.9,290.1,331.3,290.1,331.3z"/>
		<path class="st4" d="M319.8,321.4c-2.1,2.1-7.2,1.8-12.7,2.1c-5.1,0.3-11.1-0.5-14.3,1.3s-3.8,5.8,1.7,10.1
			c1.6,1.3,3.4,2.9,5.1,3.6c5.8,2.3,11.8,1.1,15.7,1.4c5,0.4,8,2,12.5,1.8c5.9-0.3,9.3-2.4,10-4.1s-0.5-14.3-2.9-13.6
			c0,0-0.4,4.2-10.4,1.9C320.2,324.8,319.8,322.3,319.8,321.4z"/>
		<path class="st12" d="M319.8,321.4c-2.1,2.1-7.2,1.8-12.7,2.1c-5.1,0.3-11.1-0.5-14.3,1.3s-3.8,5.8,1.7,10.1
			c1.6,1.3,3.4,2.9,5.1,3.6c5.8,2.3,11.8,1.1,15.7,1.4c5,0.4,8,2,12.5,1.8c5.9-0.3,9.3-2.4,10-4.1s-0.5-14.3-2.9-13.6
			c0,0-0.4,4.2-10.4,1.9C320.2,324.8,319.8,322.3,319.8,321.4z"/>
		<path class="st6" d="M299.7,338.4c0,0-2-13,5.4-14.9h1c0,0-0.1-0.9-3.1-1.1c-5.6-0.4-9.1,0.3-11.5,2.7c-1.4,1.7-2,4-1.5,6.2
			C290.8,333.7,293.7,336.6,299.7,338.4z"/>
		<path class="st6" d="M305,330.7c0,0-0.4-5.3,3.3-7.4c0.6-0.4,1.5-0.5,2.2-0.1c0,0-3.5,1.1-3.6,7.5c0,0-0.1,0.4-0.9,0.4
			C305.7,331.2,305.1,331.2,305,330.7z"/>
		<path class="st6" d="M313.8,323.1c0,0,0-0.2-1-0.2c-0.4,0-0.7,0.1-1,0.3c0,0-2.7,1.7-2.3,7.3c0.1,0.4,0.5,0.7,1,0.7
			c0.4,0.1,0.9-0.2,0.9-0.7c0,0,0,0,0,0C311.5,330.5,311.1,324.6,313.8,323.1z"/>
		<path class="st6" d="M317,322.7c0,0-0.2-0.3-0.9-0.2c-0.9,0.1-1,0.5-1,0.5s-1.7,2.5-0.9,7c0,0,0,0.8,1.1,0.7s0.8-1,0.8-1
			S315.4,323.9,317,322.7z"/>
		<path class="st2" d="M320,249.3c-0.5,11.7-0.1,65.9-0.1,65.9s7.2,6,16.2,2.9l5.6-62.3L320,249.3z"/>
		<path class="st18" d="M302.9,344.6c0-0.2,2.1-11.3,2.1-11.3s-2.1,1.4-8.9,1c-2.3-0.2-4.5-0.6-6.7-1.3l-1.1,8.2
			c-1.1,3.5-7,3.2-13.4,3.7c-1.1,0.1-2.2,0.1-3.3,0.2h-0.1c-3.4,0.5-6.3,3.2-2.3,5.3s10,2.1,15.5,2
			C291.5,352.3,303,351.2,302.9,344.6z"/>
		<path class="st36" d="M258.2,353.4c-0.2,1.2-0.2,2.4,0.2,3.5c0.4,1.2,4.3,4.8,10.2,6.2s12.6,0.3,15.9,0.6s6.5,1.5,10.4,1.6
			s7.6-0.1,10.8-3.3c0.5-1.2,0.7-3.8,0.5-3.9C305.5,357.6,258.2,353.4,258.2,353.4z"/>
		<path class="st4" d="M287.6,342.6c-2,2.1-7.2,2-12.6,2.4c-5.1,0.5-11.1-0.2-14.3,1.7s-3.6,5.9,2,10.1c1.6,1.2,3.5,2.8,5.2,3.5
			c5.8,2.1,11.8,0.7,15.7,0.9c5,0.2,8,1.8,12.6,1.4c5.9-0.5,9.2-2.7,9.9-4.4s-0.9-14.2-3.3-13.5c0,0-0.2,4.2-10.4,2.2
			C288.1,346,287.7,343.5,287.6,342.6z"/>
		<path class="st12" d="M287.6,342.6c-2,2.1-7.2,2-12.6,2.4c-5.1,0.5-11.1-0.2-14.3,1.7s-3.6,5.9,2,10.1c1.6,1.2,3.5,2.8,5.2,3.5
			c5.8,2.1,11.8,0.7,15.7,0.9c5,0.2,8,1.8,12.6,1.4c5.9-0.5,9.2-2.7,9.9-4.4s-0.9-14.2-3.3-13.5c0,0-0.2,4.2-10.4,2.2
			C288.1,346,287.7,343.5,287.6,342.6z"/>
		<path class="st6" d="M268,360.2c0,0-2.4-13,5-15.1l1-0.1c0,0-0.2-0.9-3.1-1c-5.6-0.3-9.1,0.5-11.4,3c-1.4,1.8-1.8,4.1-1.3,6.2
			C259,355.8,262,358.6,268,360.2z"/>
		<path class="st6" d="M273.1,352.4c0,0-0.5-5.3,3-7.5c0.6-0.5,1.5-0.5,2.2-0.1c0,0-3.5,1.2-3.4,7.6c0,0-0.1,0.4-0.9,0.5
			C273.8,352.8,273.2,352.8,273.1,352.4z"/>
		<path class="st6" d="M281.7,344.5c0,0,0-0.2-1-0.2c-0.4,0-0.7,0.1-1,0.3c0,0-2.6,1.8-2,7.4c0.2,0.4,0.6,0.7,1.1,0.7
			c0.4,0.1,0.8-0.3,0.9-0.7c0,0,0,0,0,0C279.7,352,279.1,346.1,281.7,344.5z"/>
		<path class="st6" d="M284.8,344c0,0-0.2-0.3-0.9-0.1c-0.9,0.2-1,0.5-1,0.5s-1.6,2.5-0.7,7c0,0,0.1,0.8,1.2,0.6s0.8-1,0.8-1
			S283.3,345.2,284.8,344z"/>
		<path class="st3" d="M291.6,272c-1.4,12-2.6,47-3.6,64.5c5.4,2.8,11.6,3.5,17.4,1.9l12.5-62.8L291.6,272z"/>
		<path class="st3" d="M369.9,415.1c-0.8,0-1.5-0.7-1.5-1.5v-93.7c0-0.8,0.7-1.5,1.5-1.5c0.8,0,1.5,0.7,1.5,1.5l0,0v93.7
			C371.4,414.5,370.7,415.1,369.9,415.1L369.9,415.1z"/>
		<path class="st3" d="M427.9,381c-0.6,0-1.1-0.4-1.4-0.9l-28.7-72.7c-0.3-0.7,0.1-1.6,0.8-1.9c0.7-0.3,1.6,0.1,1.9,0.8c0,0,0,0,0,0
			l28.7,72.7c0.3,0.7-0.1,1.6-0.8,1.9c0,0,0,0,0,0C428.3,381,428.1,381,427.9,381z"/>
		<path class="st3" d="M424.4,372.3c-0.4,0-0.8-0.2-1.1-0.5l-53.5-56.6l-53.4,56.4c-0.5,0.6-1.4,0.7-2.1,0.2
			c-0.6-0.5-0.7-1.4-0.2-2.1c0,0,0.1-0.1,0.1-0.1l54.4-57.5c0.3-0.3,0.7-0.5,1.1-0.5l0,0c0.4,0,0.8,0.2,1.1,0.5l54.5,57.7
			c0.6,0.6,0.5,1.5-0.1,2.1C425.2,372.1,424.8,372.3,424.4,372.3z"/>
		<path class="st3" d="M311.9,381c-0.8,0-1.5-0.7-1.4-1.5c0-0.2,0-0.3,0.1-0.5l28.7-72.7c0.3-0.7,1.2-1,1.9-0.7
			c0.7,0.3,1,1.1,0.8,1.8l-28.7,72.7C313.1,380.6,312.5,381,311.9,381z"/>
		<path class="st4" d="M311.2,287.8c-1-5.9,3.8-10.5,12.8-16.5c8.3-5.5,17.1-10.4,26.1-14.7c7.5-3.5,15.3-3.1,24.9,1.8
			c13.4,6.9,53.8,31.4,53.8,31.4s-60.3,34-71.9,32.5s-40.6-20.4-42.9-27S311.2,287.8,311.2,287.8z"/>
		<path class="st4" d="M362.6,315.1c-8.7,7.8-17.7,1.1-32-8.2c-16.2-10.5-19.4-19.1-19.4-19.1s0,6.5,1.2,9.5s3.8,6.5,15.5,14.5
			s20.1,12.1,28,13.6l6.2-0.9"/>
		<path class="st12" d="M330.6,306.9c-16.2-10.5-19.4-19.1-19.4-19.1s0,6.5,1.2,9.5s3.8,6.5,15.5,14.5s20.1,12.1,28,13.6l6.2-0.9
			l0.5-9.4C354,323,344.9,316.2,330.6,306.9z"/>
		<path class="st4" d="M425.9,370l3.8,10c0,0.1,0,0.2,0,0.3c0,0.1,0,0.1,0,0.2c-0.1,0.3-0.3,0.5-0.6,0.6c-0.7,0.4-1.6,0.4-2.3,0
			c-0.2-0.1-0.4-0.3-0.5-0.5l0,0v-0.1l-3.5-9.4L425.9,370z"/>
		<path class="st4" d="M313.9,370l-3.8,10c0,0.1,0,0.2,0,0.3v0.2c0.1,0.3,0.3,0.5,0.6,0.6c0.7,0.4,1.6,0.4,2.3,0
			c0.2-0.1,0.4-0.3,0.5-0.5l0,0v-0.1l3.5-9.4L313.9,370z"/>
		<path class="st4" d="M371.6,406.4v8.3c0,0.3-0.2,0.6-0.5,0.7c-0.7,0.4-1.6,0.4-2.4,0c-0.3-0.1-0.5-0.4-0.5-0.7v-8.3
			C369.3,405.9,370.5,405.9,371.6,406.4z"/>
		<path class="st2" d="M409.8,264.5c0,0-48.4-14.6-56.8-16.9s-24.5-6.2-29.3-4.1s-7.1,4.6-7.5,11.4c-0.1,1.3,0,7.5,0,7.5
			s24.5,10,43.7,10S409.8,264.5,409.8,264.5z"/>
		<path class="st3" d="M410,258.4c3,10.4,4,20.5-3.3,28c-5.3,5.4-27.1,24.8-46.3,19c-21.4-6.6-47-25.2-47-25.2s-16.5,0.5-16.6-4.4
			c0-1.2-5.2-2.7-5.2-4c0.7-14.3,10.3-20.2,24.6-17.6c15,2.7,48.5,12.3,48.5,12.3L410,258.4z"/>
		<path class="st2" d="M386,301.6c3.6-13.2,7.9-29.9,7.9-29.9l-19.8,6.2c-4.1,12.9-6.2,20-16.4,18.3s-44.4-16-44.4-16
			s25.6,18.6,47,25.2C369,308,378.1,305.5,386,301.6z"/>
		<path class="st18" d="M377.6,189.5c-4.5-1.7-8.6-0.1-19.8,3.9c-13,4.7-27.9,10.1-27.9,10.1l-16.9-33.9c-2.1-4.6-3.7-7.6-7.5-10.8
			c-1.7-0.9-3.6-1.4-5.5-1.4c-5.9,0.2-17.4,6.3-11.4,12.2c3.6,3.5,9.8,4.9,13.1,7c1.8,1.1,2.7,4,3.5,6.1c3.4,9.4,9.6,29,11.3,33.3
			c1.8,4.6,6,5.9,11.8,4.6c8.5-1.9,47.2-12.5,47.2-12.5L377.6,189.5z"/>
		<path class="st18" d="M300,165.3l-10.3,5.2c0.3,0.2,0.6,0.4,0.9,0.7l5.8-2.2c1.9-0.7,4.2-1.7,4.2-1.7s4.3,0.5,6.4-0.4
			S300,165.3,300,165.3z"/>
		<path class="st3" d="M377.6,188.6c0,0-1.6-1.7-9.3,0.3s-25.1,9.1-25.1,9.1s-7.6,8.9,2.4,19.5l28.6-7.5l3.4-11.1L377.6,188.6"/>
		<path class="st0" d="M413,199.3c-1.6-5.3-5.5-9.9-11.8-10.4c-1.5,0.3-4.2,0.5-5.7,0.8c-2.6,1.3-9.4,1.9-17.9-0.1
			c-2.9,0.7-5.5,2.1-7.7,4.1c-4.9,4.2-7.8,10.6-10.5,30.3c0,0-3.7,31-3.9,40c5.9,17.1,34.3,16.6,42.5,13.4
			c17.4-6.8,17.8-17.5,17.8-17.5s-0.4-26.3-0.6-40.7C415.1,206.8,414.1,202.9,413,199.3z"/>
		<path class="st11" d="M404.4,193.4c-1.4-0.5-8.4,6.4-8.4,6.4s-3,10.3,0.4,18.6s4.4,11.1,4.4,11.1s-14.3,7.7-20.4,27.3
			c-2.9,9.3-4.9,16.3-6.3,21.1c9.4,2.1,19.5,1.2,23.9-0.6c17.4-6.8,17.8-17.5,17.8-17.5s-0.4-26.3-0.6-40.7c0-3.3-0.2-5.9-0.3-8.1
			C410.1,202.3,405.2,193.7,404.4,193.4z"/>
		<path class="st14" d="M279.1,173c0.1,0.1,0.2,0.1,0.3,0.1l2.2-1.2c0.1-0.1,0.1-0.2,0.1-0.4c-0.1-0.1-0.2-0.1-0.3-0.1l-2.2,1.2
			C279,172.7,279,172.8,279.1,173C279.1,172.9,279.1,172.9,279.1,173L279.1,173z"/>
		<path class="st4" d="M286.8,172l-5.6,0.8c-0.5,0.1-0.9-0.3-1-0.7c0-0.3,0.1-0.5,0.2-0.7l4-4L286.8,172z"/>
		<g class="st15">
			<path d="M286.8,172l-5.6,0.8c-0.5,0.1-0.9-0.3-1-0.7c0-0.3,0.1-0.5,0.2-0.7l4-4L286.8,172z"/>
		</g>
		<path class="st4" d="M313.6,152.7c0.5-0.2,1.1,0,1.5,0.4c1.2,1.2,1.9,3.9,0.5,4.5L286.8,172c-1.1-0.3-1.9-1.2-2.3-2.3
			c-0.3-0.8-0.4-1.7-0.1-2.5L313.6,152.7z"/>
		<g class="st17">
			<path d="M313.6,152.7c0.5-0.2,1.1,0,1.5,0.4c1.2,1.2,1.9,3.9,0.5,4.5L286.8,172c-1.1-0.3-1.9-1.2-2.3-2.3
				c-0.3-0.8-0.4-1.7-0.1-2.5L313.6,152.7z"/>
		</g>
		<path class="st2" d="M317,152.7c0.6-0.3,1.2-0.1,1.5,0.5c0.3,0.5,0.1,1.2-0.5,1.5c0,0,0,0,0,0l-2.3,1.1l0,0
			c-0.2,0.1-0.4,0-0.6-0.1c-0.4-0.3-0.7-0.9-0.7-1.4c0-0.2,0.1-0.4,0.3-0.5l0,0L317,152.7z"/>
		<path class="st18" d="M303.2,157.9c-0.7-0.6-1.4-1.1-2.2-1.5c-1.1-0.7-2.4-1.2-3.8-1.3c-0.5-0.1-1,0-1.5,0.1
			c-0.5,0.2-0.9,0.6-1.2,0.9c-2,1.9-4.8,2.5-6.8,4.3c-1.8,1.6-4.7,6.8-3.5,8.6c0.7,1.1,3.1-0.6,4.3-2.1c0,1.3,2,1.3,3.9-1
			c1.6-1.9,3.5-4.4,3.5-4.4L303.2,157.9z"/>
		<path class="st18" d="M296,159.1c-0.5,0.2-0.9,0.7-1,1.3c-0.1,0.6,0,1.2,0.1,1.8l0.7-0.9L296,159.1z"/>
		<path class="st18" d="M313.1,169.7c-1.8-3.7-1.7-6.8-5-8.2s-5-1-8.9-2.3c-5.5-1.9-4.1,3.6,0.3,5.9s7.5,1.7,7.5,1.7
			S309.7,174.4,313.1,169.7z"/>
		<path class="st4" d="M403.1,146.3c-2-3.1-3.9-2.7-3.9-2.7l-0.5,3.6c-5.5-6.7-20-12.9-26.4-12.9c-8,0-14.5,6.8-14.5,15.1
			s6.5,15.1,14.5,15.1c5.9,0,18.8-2.1,25.1-6.6l-0.5,3.7l-1.4-0.2l0.1,18.7c0,0,3.1-0.8,4.2-2.9s2.7-15,2.7-15
			C405.2,155.1,404.8,149,403.1,146.3z"/>
		<path class="st12" d="M403.1,146.3c-2-3.1-3.9-2.7-3.9-2.7l-0.5,3.6l-1.3,10.6l-0.5,3.7l-1.4-0.2l0.1,18.7c0,0,3.1-0.8,4.2-2.9
			s2.7-15,2.7-15C405.2,155.1,404.8,149,403.1,146.3z"/>
		<path class="st37" d="M372.3,134.3c-8,0-14.5,6.8-14.5,15.1s6.5,15.1,14.5,15.1c5.9,0,18.8-2.1,25.1-6.6l1.3-10.6
			C393.2,140.5,378.7,134.3,372.3,134.3z"/>
		<path class="st18" d="M396,162.8c1,0.6,1.5-1.5,2.8-2.9s4.8-3.1,7.4,1.3s-2,9.9-4.2,10.7c-4.3,1.6-6.2-1-6.2-1l-0.2,18.7
			c-5.5,4.9-22.1,4.7-18,1.4v-6.4c0,0-5,0.8-7.4,0.4c-4-0.6-6.5-4-7.8-8.5c-2-7.3-2.7-13.2-1-27.5c1.8-15.7,19.4-15.9,28.8-9.7
			S396,162.8,396,162.8z"/>
		<path class="st4" d="M405.2,141c-0.7-1.7-2.7-2.4-4.3-1.7c-0.1,0-0.2,0.1-0.3,0.1c-0.4,0.3-0.8,0.6-1.1,1c-0.2-1.6-0.9-3.1-2-4.3
			c-2.4-2.7-6.3-3-13.1-4.1c-2.7-0.3-5.4-0.8-8-1.4c-2.7-0.8-5.4-2.6-8-3.9c-0.8-0.5-1.8-0.8-2.7-0.6c-0.9,0.3-1.5,1.1-1.7,2
			c-0.2,0.9-0.2,1.8,0,2.7c-1.6-1.7-4.6-1.5-6.2,0.2c-1.5,1.8-1.9,4.4-1,6.6c1,2.1,2.5,3.9,4.5,5.2c8.5,5.7,18.5,4.1,28,3
			c0.5-0.1,0.9-0.1,1.4,0.1c1.5,0.7,1.8,5.3,2.1,6.6c0.9,4.5,1.6,12.1,3.3,12.2c0.5,0,1.5-3.4,2.8-4.6c1.5-1.4,0.7-12.6,0.5-15.6
			L405.2,141z"/>
		<path class="st12" d="M405.2,141c-0.7-1.7-2.7-2.4-4.3-1.7c-0.1,0-0.2,0.1-0.3,0.1c-0.4,0.3-0.8,0.6-1.1,1c-0.2-1.6-0.9-3.1-2-4.3
			c-2.4-2.7-6.3-3-13.1-4.1c-2.7-0.3-5.4-0.8-8-1.4c-2.7-0.8-5.4-2.6-8-3.9c-0.8-0.5-1.8-0.8-2.7-0.6c-0.9,0.3-1.5,1.1-1.7,2
			c-0.2,0.9-0.2,1.8,0,2.7c-1.6-1.7-4.6-1.5-6.2,0.2c-1.5,1.8-1.9,4.4-1,6.6c1,2.1,2.5,3.9,4.5,5.2c8.5,5.7,18.5,4.1,28,3
			c0.5-0.1,0.9-0.1,1.4,0.1c1.5,0.7,1.8,5.3,2.1,6.6c0.9,4.5,1.6,12.1,3.3,12.2c0.5,0,1.5-3.4,2.8-4.6c1.5-1.4,0.7-12.6,0.5-15.6
			L405.2,141z"/>
		<path class="st18" d="M377.5,184.7c0,0,9-1.9,12.1-3.6c1.9-1,3.4-2.6,4.3-4.5c-0.5,1.9-1.3,3.7-2.5,5.3c-2.3,3.1-14,5.3-14,5.3
			L377.5,184.7z"/>
		<path class="st14" d="M380.7,159.9c0.1,1,0.9,1.7,1.9,1.7c1-0.1,1.7-0.9,1.7-1.9c-0.1-0.9-0.9-1.7-1.8-1.7
			C381.5,158,380.7,158.9,380.7,159.9z"/>
		<path class="st14" d="M383.8,152.1l3.9,2.2c0.6-1.1,0.2-2.5-0.9-3.2c-1-0.6-2.3-0.2-2.9,0.8C383.9,152,383.9,152.1,383.8,152.1z"
			/>
		<path class="st18" d="M381.1,172.7l-5.7,2.3c0.5,1.6,2.1,2.5,3.7,2.1c0.1,0,0.1,0,0.2-0.1C380.9,176.3,381.7,174.4,381.1,172.7z"
			/>
		<path class="st14" d="M362.8,154l4-2c-0.4-1.1-1.6-1.6-2.7-1.2c-0.1,0-0.1,0.1-0.2,0.1C362.8,151.5,362.3,152.8,362.8,154z"/>
		<path class="st14" d="M364.8,159.9c0,1,0.8,1.9,1.8,1.9c0,0,0,0,0,0c1.1,0.1,2.1-0.7,2.2-1.8s-0.7-2.1-1.8-2.2s-2.1,0.7-2.2,1.8
			C364.8,159.8,364.8,159.9,364.8,159.9z"/>
		<polygon class="st18" points="374.3,158.5 375.3,169.8 368.8,169.1 		"/>
		<path class="st14" d="M382.3,155.3c-2.6,0.1-4.7,2.4-4.6,5c0.1,2.5,2.1,4.5,4.6,4.6h0.9c2.6-0.1,4.7-2.4,4.6-5
			c-0.1-2.5-2.1-4.5-4.6-4.6L382.3,155.3z M383.2,165.9h-0.9c-3.2,0-5.8-2.6-5.8-5.8c0-3.2,2.6-5.8,5.8-5.8h0.9
			c3.2,0,5.8,2.6,5.8,5.8C388.9,163.3,386.4,165.9,383.2,165.9L383.2,165.9z"/>
		<path class="st14" d="M365.1,155.3c-2.6,0.1-4.7,2.4-4.6,5c0.1,2.5,2.1,4.5,4.6,4.6h0.9c2.6-0.1,4.7-2.4,4.6-5
			c-0.1-2.5-2.1-4.5-4.6-4.6L365.1,155.3z M365.9,165.9h-0.9c-3.2-0.1-5.6-2.8-5.5-6c0.1-3,2.5-5.4,5.5-5.5h0.9
			c3.2,0,5.8,2.6,5.8,5.8C371.8,163.3,369.2,165.9,365.9,165.9L365.9,165.9z"/>
		<path class="st14" d="M376.7,159c-0.7-1-1.8-1.5-3-1.6c-1-0.1-2,0.3-2.6,1l-0.8-0.6c0.8-1,2.1-1.5,3.4-1.4c1.5,0,2.9,0.8,3.8,2
			L376.7,159z"/>
		<path class="st14" d="M399.2,159.5h-10.9v-0.9h12.5C400.3,158.8,399.7,159.1,399.2,159.5z"/>
		<path class="st4" d="M362.1,324.5c4.9-0.3,8.8-3.9,20.5-8.8c21.6-9,37.9-16.2,44.1-27.6s10.6-44.1,9-58.3
			c-0.2-1.6-0.5-3.2-1.1-4.7l1.5-0.2l-3.9-3.4l0,0c-4-3.3-10.6-0.4-15.6,2.3c-14.2,7.7-25.3,15.2-34,42.3
			c-6.6,20.4-10.9,38.9-20,48.9"/>
		<path class="st38" d="M434.7,225.2l1.5-0.2l-3.9-3.4l0,0c-4-3.3-10.6-0.4-15.6,2.3c-14.2,7.7-25.3,15.2-34,42.3
			c-6.6,20.4-10.9,38.9-20,48.9l-0.5,9.4c4.9-0.3,8.8-3.9,20.5-8.8c21.6-9,37.9-16.2,44.1-27.6s10.6-44.1,9-58.3
			C435.6,228.3,435.3,226.7,434.7,225.2z"/>
		<path class="st4" d="M420.8,227.5c-14.2,7.7-25.3,15.2-34,42.3s-13.5,51-30.8,55.6c0,0,7.8,3.1,31.7-7c7.6-3.2,16.9-9.1,22.9-12.5
			c11.9-6.7,19.1-12.1,20.3-14.2c6.3-11.3,10.6-44.1,9-58.3S427.9,223.6,420.8,227.5z"/>
		<path class="st39" d="M408.1,235.5l2,4.7l-5.1,29.1c-1.2,2.3-5.1,4.4-7,7.2c-1.3,1.9-2.5,3.9-3.5,5.9c-0.6,1.4-1.2,5,2,2.9
			c2.6-1.8,4.4-4.5,5.1-4.8c0.5-0.2,0.3,2.2,0.3,2.4c-0.4,3.6-2.5,7.3-4.3,10.4c-0.9,1.5-2.6,3.9-0.7,5.2c0.5,0.3,1.1,0.6,1.6,0.8
			c4.1,1.5,8.7,0.4,11.6-2.9c3.7-4.3,5-9.8,5.5-15.4c0.6-6.7,2.1-13.4,4.3-19.8c3.3-9.6,6.6-24.7,6-27.3c-0.2-0.8-1.4-3.7-2.9-7.4
			c-0.7,0.3-1.3,0.7-2,1C416.4,229.8,412.1,232.5,408.1,235.5z"/>
		<path class="st18" d="M428.2,232.8c-0.7-2.9-13.2-31.3-13.2-31.3l-14.2,9.2l11.9,28.3l-5.1,29.2c-1.2,2.3-5.1,4.4-7,7.2
			c-1.3,1.9-2.5,3.9-3.5,5.9c-0.6,1.4-1.2,5,2,2.9c2.6-1.8,4.4-4.5,5.1-4.8c0.5-0.2,0.3,2.2,0.3,2.4c-0.4,3.6-2.5,7.3-4.3,10.4
			c-0.9,1.5-2.6,3.9-0.7,5.2c0.5,0.3,1.1,0.6,1.6,0.8c4.1,1.5,8.7,0.4,11.6-2.9c3.7-4.3,5-9.8,5.5-15.4c0.6-6.7,2.1-13.4,4.3-19.8
			C425.6,250.4,428.8,235.4,428.2,232.8z"/>
		<path class="st3" d="M401.2,188.9c4.9-0.3,8,0.7,11.6,6.6s13.1,26.6,13.1,26.6s-2.7,7.5-18.4,10.7l-9.4-20
			C398.1,212.8,392,195.8,401.2,188.9z"/>
	</g>
</g>
</svg>
