<?xml version="1.0" encoding="utf-8"?>
<!-- Generator: Adobe Illustrator 24.1.1, SVG Export Plug-In . SVG Version: 6.00 Build 0)  -->
<svg version="1.1" id="Layer_1" xmlns="http://www.w3.org/2000/svg" xmlns:xlink="http://www.w3.org/1999/xlink" x="0px" y="0px"
	 viewBox="0 0 500 500" style="enable-background:new 0 0 500 500;" xml:space="preserve">
<style type="text/css">
	.st0{fill:#F5F5F5;}
	.st1{fill:#E0E0E0;}
	.st2{fill:#EBEBEB;}
	.st3{fill:#FAFAFA;}
	.st4{fill:#E6E6E6;}
	.st5{fill:#FFFFFF;}
	.st6{fill:#F0F0F0;}
	.st7{fill:#30A945;}
	.st8{opacity:0.6;fill:#FFFFFF;enable-background:new    ;}
	.st9{opacity:5.000000e-02;enable-background:new    ;}
	.st10{opacity:0.75;fill:#FFFFFF;enable-background:new    ;}
	.st11{opacity:0.1;enable-background:new    ;}
	.st12{opacity:0.85;fill:#FFFFFF;enable-background:new    ;}
	.st13{opacity:0.7;fill:#FFFFFF;enable-background:new    ;}
	.st14{fill:#455A64;}
	.st15{opacity:0.2;enable-background:new    ;}
	.st16{fill:#37474F;}
	.st17{fill:#263238;}
	.st18{opacity:0.25;fill:#FFFFFF;enable-background:new    ;}
	.st19{opacity:0.5;fill:#FFFFFF;enable-background:new    ;}
	.st20{opacity:0.4;fill:#FFFFFF;enable-background:new    ;}
	.st21{fill:#FFBDA7;}
	.st22{opacity:0.3;enable-background:new    ;}
	.st23{opacity:0.15;fill:#30A945;enable-background:new    ;}
	.st24{opacity:0.25;enable-background:new    ;}
	.st25{opacity:0.7;enable-background:new    ;}
	.st26{opacity:0.8;}
	.st27{opacity:0.5;}
	.st28{opacity:0.65;}
	.st29{opacity:0.2;}
	.st30{opacity:0.15;enable-background:new    ;}
	.st31{opacity:2.000000e-02;enable-background:new    ;}
	.st32{fill:#F0997A;}
	.st33{fill:#FFA8A7;}
	.st34{fill:#B16668;}
	.st35{opacity:0.1;}
	.st36{opacity:0.15;}
	.st37{opacity:0.4;}
</style>
<g id="freepik--Floor--inject-39">
	<ellipse id="freepik--floor--inject-39" class="st0" cx="250" cy="346.6" rx="239.4" ry="138.2"/>
</g>
<g id="freepik--Shadows--inject-39">
	<polygon id="freepik--Shadow--inject-39" class="st1" points="286.6,464.8 169.6,397.2 362.5,286.2 479.5,353.8 	"/>
	<path id="freepik--shadow--inject-39" class="st1" d="M191.7,341.3l55.3,31.9c7.2,4.1,18.8,4.1,26,0l39-22.5c7.2-4.1,7.2-10.9,0-15
		l-55.3-31.9c-7.2-4.1-18.8-4.1-26,0l-39,22.5C184.6,330.4,184.6,337.2,191.7,341.3z"/>
	<polygon id="freepik--shadow--inject-39_1_" class="st1" points="165.8,336.3 94.3,295.2 18,339.2 89.5,380.4 	"/>
	<path id="freepik--shadow--inject-39_2_" class="st1" d="M144.6,417.4c-15.4,8.5-15.4,22.3,0,30.9s40.3,8.5,55.7,0
		s15.4-22.3,0-30.9S160,408.9,144.6,417.4z"/>
</g>
<g id="freepik--Plant--inject-39">
	<g id="freepik--plant--inject-39">
		<path id="freepik--shadow--inject-39_3_" class="st1" d="M140.4,291c-12.3,7.1-12.3,18.6,0,25.8s32.3,7.1,44.6,0s12.3-18.6,0-25.8
			S152.8,283.9,140.4,291z"/>
		<g id="freepik--Pot--inject-39">
			<g id="freepik--pot--inject-39">
				<path class="st2" d="M144.3,306.4c-9.9-10.2-15.7-51.7-6.1-59.8h49.1c9.6,8.1,3.8,49.6-6,59.8c-0.1,0.1-0.2,0.2-0.3,0.3
					l-0.3,0.3c-0.3,0.3-0.6,0.5-0.9,0.8l-0.2,0.2c-0.2,0.2-0.5,0.4-0.7,0.6c-0.4,0.3-0.9,0.6-1.3,0.8c-8.1,4.8-21.3,4.8-29.4,0l0,0
					c-0.4-0.2-0.9-0.5-1.3-0.8c-0.2-0.2-0.5-0.4-0.7-0.5l-0.3-0.2c-0.3-0.2-0.6-0.5-0.9-0.8l-0.4-0.4L144.3,306.4z"/>
				<path class="st3" d="M183,243.4c11.2,6.5,11.2,17.1,0,23.7s-29.3,6.5-40.5,0s-11.2-17.1,0-23.7S171.8,236.8,183,243.4z"/>
				<path class="st1" d="M177.6,246.5c8.2,4.8,8.2,12.6,0,17.4s-21.6,4.8-29.8,0s-8.2-12.6,0-17.4S169.4,241.7,177.6,246.5z"/>
				<path class="st0" d="M147.9,254.8c8.2-4.8,21.6-4.8,29.8,0c2,1.1,3.7,2.7,4.9,4.6c-1.2,1.9-2.9,3.5-4.9,4.6
					c-8.2,4.8-21.6,4.8-29.8,0c-2-1.1-3.7-2.7-4.9-4.6C144.2,257.4,145.9,255.8,147.9,254.8z"/>
			</g>
		</g>
		<path class="st0" d="M167.7,221.2c-4.4-1.4-5.8-5.2-4.4-12.8s1-18.3,2.9-20.7s5.8,3.8,8,11.3S174.4,220.2,167.7,221.2z"/>
		<path class="st0" d="M152,183.2c-7.9,1.1-11.5-6.9-10.4-20.5s11-33.6,16.9-33.4s4.3,11,3.7,25.3S159.8,182.1,152,183.2z"/>
		<path class="st4" d="M164.1,249.1c0-3.8-0.3-7.6-0.7-11.3c-0.9-7.6-2.8-15-4.5-22.4c-3.4-14.7-6.6-29.6-7-44.7
			c-0.1-4.5,0-9,0.4-13.5c0.2-2,0.4-4.1,0.6-6.1s0.7-4.2,1.1-6.3c0-0.1-0.1-0.2-0.1,0c-0.6,1.8-1,3.7-1.4,5.5
			c-0.4,1.8-0.8,3.7-1,5.5c-0.5,3.8-0.8,7.6-0.9,11.5c0,7.7,0.5,15.3,1.7,22.9c1.1,7.5,2.7,15,4.4,22.4s3.6,14.8,4.7,22.4
			c0.6,4.2,1,8.4,1.1,12.7c0.1,4.3-0.3,8.6-0.5,13c-0.1,0.9,1.3,0.8,1.4,0C164,257,164.2,253.1,164.1,249.1z"/>
		<path class="st0" d="M147.6,205.3c-1.8,2.8-9,0.7-12.3-6.1s-4.1-15.2-2.4-16.4s7.1,6.4,9.3,9.6C145.6,197.3,150.5,201,147.6,205.3
			z"/>
		<path class="st4" d="M158.4,215.6c-0.6-0.9-1.1-1.7-1.8-2.5c-1.3-1.7-2.7-3.2-4.2-4.6c-2.8-2.6-6.1-4.6-9.1-6.9
			c-1.9-1.4-3.4-3.3-4.5-5.4c-0.1-0.1-0.1,0-0.1,0.1c1.2,3.4,4,6.2,6.8,8.3c1.6,1.2,3.2,2.4,4.6,3.6c1.6,1.4,3.1,2.9,4.4,4.5
			c0.8,0.9,1.5,1.9,2.2,2.9c0.3,0.5,0.6,0.9,0.9,1.4c0.2,0.5,0.6,1,1.1,1.3c0.2,0.1,0.8,0.2,0.8-0.2
			C159.3,217.2,159,216.3,158.4,215.6z"/>
		<path class="st4" d="M170.2,208.8c0-1.6,0-3.1-0.2-4.7c0-0.1-0.1,0-0.1,0c-0.1,1.2,0,2.5-0.2,3.7s-0.3,2.6-0.5,3.9
			c-0.4,2.5-0.9,5-1.6,7.4c-1.4,4.7-3.5,9.1-4.6,13.8c-0.8,2.6-1,5.2-0.7,7.9c0.1,0.6,1.2,0.7,1.2,0c-0.1-2.4,0.1-4.8,0.6-7.1
			c0.6-2.4,1.3-4.7,2.2-7c1.7-4.5,3.3-9,3.8-13.8C170.1,211.5,170.2,210.2,170.2,208.8z"/>
	</g>
</g>
<g id="freepik--Pictures--inject-39">
	<g id="freepik--Picture--inject-39">
		<g id="freepik--Frame--inject-39">
			<polygon class="st3" points="54.9,103.6 56.6,104.6 91.4,84.5 89.7,83.4 			"/>
			<polygon class="st5" points="89.7,83.4 56.6,102.6 56.6,67.9 89.7,48.8 			"/>
			<path class="st6" d="M94.6,42.2L53.4,66v44.1l41.3-23.8V42.2z M91.4,84.5l-34.8,20.1V67.9l34.8-20.1L91.4,84.5z"/>
			<polygon class="st1" points="91.4,84.5 89.7,83.4 89.7,48.8 91.4,47.8 			"/>
			<polygon class="st3" points="94.6,42.2 92.9,41.2 51.7,65 53.4,66 			"/>
			<polygon class="st1" points="51.7,65 53.4,66 53.4,110.1 51.7,109.1 			"/>
		</g>
		<g id="freepik--Land--inject-39">
			<polygon class="st6" points="88.4,82.4 57.9,100.1 57.9,91.2 65.5,73.6 70.3,78 68.6,85.4 79.1,62.8 88.4,73.6 			"/>
			<path class="st6" d="M70,65.1c-1.3,0.9-2.2,2.3-2.3,3.9c0,1.4,1,2,2.3,1.3c1.3-0.9,2.2-2.3,2.3-3.9C72.2,64.9,71.2,64.3,70,65.1z
				"/>
		</g>
	</g>
	<g id="freepik--picture--inject-39">
		<g id="freepik--frame--inject-39">
			<polygon class="st3" points="54.9,169.5 56.6,170.6 91.4,150.4 89.7,149.4 			"/>
			<polygon class="st5" points="89.7,149.4 56.6,168.6 56.6,133.8 89.7,114.7 			"/>
			<path class="st6" d="M94.6,108.2L53.4,132v44.1l41.2-23.8L94.6,108.2z M91.4,150.4l-34.8,20.1v-36.7l34.8-20.1L91.4,150.4z"/>
			<polygon class="st1" points="91.4,150.4 89.7,149.4 89.7,114.7 91.4,113.7 			"/>
			<polygon class="st3" points="94.6,108.2 92.9,107.2 51.7,131 53.4,132 			"/>
			<polygon class="st1" points="51.7,131 53.4,132 53.4,176.1 51.7,175.1 			"/>
		</g>
		<g id="freepik--land--inject-39">
			<polygon class="st6" points="88.4,148.4 57.9,166 57.9,157.2 65.5,139.6 70.3,144 68.6,151.4 79.1,128.8 88.4,139.6 			"/>
			<path class="st6" d="M70,131c-1.4,0.9-2.2,2.4-2.3,4c0,1.4,1,2,2.3,1.3c1.3-0.9,2.2-2.3,2.3-3.9C72.2,130.9,71.2,130.3,70,131z"
				/>
		</g>
	</g>
</g>
<g id="freepik--side-table--inject-39_2_">
	<g id="freepik--side-table--inject-39_1_">
		<g id="freepik--side-table--inject-39">
			<polygon class="st7" points="147.5,342.1 137.1,336.1 147.5,333 			"/>
			<polygon class="st8" points="147.5,342.1 137.1,336.1 147.5,333 			"/>
			<polygon class="st9" points="147.5,342.1 137.1,336.1 147.5,333 			"/>
			<polygon class="st7" points="147.5,342.1 152.8,339.1 152.8,330 147.5,333 			"/>
			<polygon class="st10" points="147.5,342.1 152.8,339.1 152.8,330 147.5,333 			"/>
			<polygon class="st7" points="95,363.4 95,373 31,336.2 31,326.6 			"/>
			<polygon class="st8" points="95,363.4 95,373 31,336.2 31,326.6 			"/>
			<polygon class="st11" points="95,363.4 95,373 31,336.2 31,326.6 			"/>
			<polygon class="st7" points="95,373 100.2,370 100.2,360.4 95,363.4 			"/>
			<polygon class="st10" points="95,373 100.2,370 100.2,360.4 95,363.4 			"/>
			<polygon class="st7" points="25.8,250.8 89.7,287.6 89.7,366.4 25.8,329.6 			"/>
			<polygon class="st8" points="25.8,250.8 89.7,287.6 89.7,366.4 25.8,329.6 			"/>
			<polygon class="st7" points="89.7,287.6 158,248.2 158,327 89.7,366.4 			"/>
			<polygon class="st10" points="89.7,287.6 158,248.2 158,327 89.7,366.4 			"/>
			<polygon class="st7" points="158,248.2 94.1,211.4 25.8,250.8 89.7,287.6 			"/>
			<polygon class="st12" points="158,248.2 94.1,211.4 25.8,250.8 89.7,287.6 			"/>
			<polygon class="st7" points="95,314.9 152.8,281.5 152.8,324 95,357.3 			"/>
			<polygon class="st13" points="95,314.9 152.8,281.5 152.8,324 95,357.3 			"/>
			<polygon class="st11" points="152.8,324 116.3,302.6 95,314.9 95,357.3 			"/>
			<polygon class="st7" points="95,290.7 152.8,257.3 152.8,275.5 95,308.9 			"/>
			<polygon class="st12" points="95,290.7 152.8,257.3 152.8,275.5 95,308.9 			"/>
			<path class="st14" d="M112.9,284.2c0,0.8,2.5,0.1,5.6-1.7l9.8-5.7c3.1-1.8,5.6-3.9,5.6-4.7v-1.5l-21,12.1L112.9,284.2z"/>
		</g>
		<path id="freepik--shadow--inject-39_4_" class="st15" d="M98.7,277.1c16.8-7.9,31.8-16.3,44.2-25.3c2.2-1.6,2.1-4.1-0.3-5.5
			l-48.1-27.9c-2.7-1.4-5.9-1.4-8.7,0l-44.1,25.4c-2.4,1.4-2.4,3.6,0,5l48.2,27.9C92.6,278.1,95.9,278.2,98.7,277.1z"/>
		<g id="freepik--Typewriter--inject-39">
			<polygon class="st1" points="43.7,229.9 91,202.6 91,229.9 55.1,250.6 45,243.4 			"/>
			<polygon class="st11" points="43.7,229.9 91,202.6 91,229.9 55.1,250.6 45,243.4 			"/>
			<path class="st1" d="M94.5,200.6c0.1,2.1,1.1,3.9,2.8,5.1c0.6,0.4,1.3,0.5,2,0.3l4.3-2.3c0.6-0.4,0.9-1.1,0.9-1.8
				c-0.1-2.1-1.1-4-2.8-5.1c-0.6-0.5-1.4-0.5-2.1-0.2l-4.3,2.3C94.7,199.2,94.4,199.9,94.5,200.6z"/>
			<path class="st14" d="M94.2,196.3L94.2,196.3c1.1-0.5,2.5-0.4,3.5,0.4c2.8,1.9,4.5,5.1,4.6,8.5c0.1,1.2-0.5,2.5-1.5,3.1l0,0
				l-46.1,25.1l-6.7-11.9L94.2,196.3z"/>
			<path class="st16" d="M56,230.5c-0.1-3.4-1.8-6.5-4.6-8.5c-2.6-1.6-4.8-0.4-4.9,2.7c0.1,3.4,1.8,6.6,4.6,8.5
				C53.8,234.7,56,233.5,56,230.5z"/>
			<path class="st1" d="M47.7,227c0.1,1.7,0.9,3.3,2.4,4.3c0.5,0.4,1.2,0.5,1.7,0.2l1.1-0.6c0.5-0.3,0.8-0.9,0.7-1.6
				c-0.1-1.7-0.9-3.3-2.4-4.3c-0.5-0.4-1.2-0.5-1.7-0.2l-1.1,0.6C48,225.8,47.7,226.4,47.7,227z"/>
			
				<ellipse transform="matrix(0.8779 -0.4788 0.4788 0.8779 -103.2909 51.9164)" class="st3" cx="50.2" cy="228.5" rx="2" ry="3.5"/>
			<path class="st3" d="M91.6,197.8l-39.1,21.3c-2.4-3.1-4.8-5.9-7-8.3l38.3-22.1C86.6,191.6,89.2,194.6,91.6,197.8z"/>
			<path class="st0" d="M91.6,197.8c1.1-0.5,2.4-0.3,3.4,0.4c2.8,1.9,4.5,5.1,4.6,8.5c0.1,1.2-0.4,2.3-1.4,3L59.2,231
				c0.9-0.7,1.4-1.8,1.4-3c-0.1-3.4-1.8-6.6-4.6-8.5c-1-0.7-2.3-0.9-3.4-0.4L91.6,197.8z"/>
			<path class="st4" d="M99.2,204c0.3,0.9,0.4,1.8,0.4,2.7c0.1,1.2-0.4,2.3-1.4,3L59.2,231c0.9-0.7,1.4-1.8,1.4-3
				c0-0.9-0.1-1.8-0.4-2.7L99.2,204z"/>
			<polygon class="st1" points="93.9,196.5 93.9,195.6 48,220.6 47.9,221.6 			"/>
			<path class="st1" d="M96.9,222.1c14.1,10.3,29,19.3,44.6,27.1c0.4,0.3,0.9,0.2,1.1-0.2c0.1-0.2,0.2-0.4,0.1-0.6l0.1-2.4
				c0-0.9-0.4-1.7-1-2.4l-11.3-11.4c-0.6-0.7-1.1-1.5-1.4-2.3l-3.4-10.5c-0.3-0.8-0.9-1.6-1.6-2.1l-17.7-10.8
				c-0.7-0.4-1.2-0.1-1.2,0.7l-0.2,7.7c0,0.8-0.6,1.1-1.2,0.7l-6.6-4c-0.7-0.4-1.2-0.1-1.2,0.7l-0.2,7.7
				C95.8,220.7,96.2,221.5,96.9,222.1z"/>
			<polygon class="st1" points="98.3,209.7 59.2,231 70.4,237.8 109.5,216.5 			"/>
			<polygon class="st11" points="98.3,209.7 59.2,231 70.4,237.8 109.5,216.5 			"/>
			<path class="st1" d="M91.4,213.4c-0.2,6.1-4.6,13.4-10,16.4s-9.6,0.3-9.5-5.8L91.4,213.4z"/>
			<path class="st2" d="M87.3,215.7c-0.3,3.9-2.4,7.3-5.7,9.4c-3.1,1.7-5.5,0.2-5.4-3.3L87.3,215.7z"/>
			<path class="st2" d="M47.7,238.6l-0.2,7.7c0,0.9,0.4,1.7,1.1,2.2c14.1,10.3,29,19.4,44.6,27.2l0.2,0.1c0.7,0.3,1.6,0.3,2.3,0
				c17.8-8.5,32-16.1,45.8-25c0.7-0.5,1.1-1.3,1.2-2.2l0.1-2.4c0-0.8-0.3-1.6-0.9-2.3l-0.1-0.1l-11.3-11.4c-0.6-0.7-1.1-1.5-1.4-2.3
				l-3.4-10.5c-0.2-0.4-0.4-0.8-0.7-1.2c-0.2-0.3-0.5-0.5-0.7-0.7c-0.1-0.1-0.1-0.1-0.2-0.1l-17.7-10.8c-0.8-0.4-1.6-0.4-2.4-0.1
				l-16,8.7c-0.4,0.1-0.6,0.6-0.5,0.9c0.1,0.2,0.2,0.4,0.5,0.5l2.1,1.3c0.8,0.4,1.6,0.4,2.4,0.1l6.7-3.7c0.8-0.4,1.7-0.3,2.4,0.1
				l2.1,1.3c0.4,0.1,0.6,0.6,0.5,0.9c-0.1,0.2-0.2,0.4-0.5,0.5l-27.5,15c-0.8,0.4-1.7,0.3-2.4-0.1l-2.1-1.3c-0.7-0.4-0.6-1,0-1.4
				l6.7-3.7c0.4-0.1,0.6-0.5,0.5-0.9c-0.1-0.2-0.2-0.4-0.5-0.5l-2.1-1.3c-0.8-0.4-1.7-0.4-2.4,0l-15.9,8.7c-0.1,0-0.2,0.1-0.2,0.1
				c-0.5,0.4-0.9,1-1,1.7c0,0.1,0,0.1,0,0.2l-0.2,7.7c0,0.8-0.6,1.1-1.2,0.7l-6.6-4C48.3,237.6,47.7,237.9,47.7,238.6z M139,245.3
				c-13.7,8.8-28,16.6-42.8,23.3c-0.8,0.3-1.6,0.1-2.3-0.4l-10.2-10.3c-0.6-0.7-1.1-1.5-1.4-2.3l-1-3.2c-0.2-0.8,0.1-1.6,0.8-2
				l42.8-23.4c0.5-0.3,1.2-0.2,1.5,0.4c0.1,0.1,0.1,0.2,0.1,0.3l1.1,3.4c0.3,0.9,0.8,1.6,1.4,2.3l10.1,10.3c0.4,0.4,0.5,1.1,0.1,1.5
				C139.2,245.1,139.1,245.2,139,245.3z"/>
			<path class="st1" d="M43.4,230.7c0-0.8,0.6-1.1,1.2-0.7l2.1,1.3c0.7,0.5,1.1,1.3,1.2,2.1l-0.1,2.4c0,0.9,0.5,1.7,1.2,2.2l6.6,4
				c0.7,0.4,1.2,0.1,1.2-0.7l0.2-7.7c0-0.8,0.6-1.1,1.2-0.7l17.7,10.8c0.7,0.5,1.3,1.2,1.6,2l3.4,10.5c0.3,0.9,0.8,1.6,1.4,2.3
				l11.3,11.4c0.6,0.7,0.9,1.5,0.9,2.4l-0.1,2.5c0.1,0.4-0.3,0.9-0.7,0.9c-0.2,0-0.4,0-0.6-0.1c-16.7-8.5-35.9-20.1-49-29.9
				c-0.7-0.6-1.1-1.4-1.1-2.2l0.2-9.1L43.4,230.7z"/>
			<path class="st6" d="M58.1,233l17.7,10.8c0.7,0.5,1.3,1.2,1.6,2l3.4,10.5c0.3,0.9,0.8,1.6,1.4,2.3l11.3,11.4
				c0.6,0.6,1.5,0.7,2.3,0.4c15.9-7.1,31.2-15.5,45.8-25c0.5-0.3,0.7-1,0.4-1.5c0-0.1-0.1-0.1-0.1-0.2l-0.1-0.1l-11.3-11.4
				c-0.6-0.7-1.1-1.5-1.4-2.3l-3.4-10.5c-0.2-0.4-0.4-0.8-0.7-1.2c-0.2-0.3-0.5-0.5-0.7-0.7c-0.1-0.1-0.1-0.1-0.2-0.1l-17.7-10.8
				c-0.8-0.4-1.6-0.4-2.4-0.1l-16,8.7c-0.4,0.1-0.6,0.6-0.5,0.9c0.1,0.2,0.2,0.4,0.5,0.5l2.1,1.3c0.8,0.4,1.6,0.4,2.4,0.1l6.7-3.7
				c0.8-0.4,1.7-0.3,2.4,0.1l2.1,1.3c0.4,0.1,0.6,0.6,0.5,0.9c-0.1,0.2-0.2,0.4-0.5,0.5l-27.5,15c-0.8,0.4-1.7,0.3-2.4-0.1l-2.1-1.3
				c-0.7-0.4-0.6-1,0-1.4l6.7-3.7c0.4-0.1,0.6-0.5,0.5-0.9c-0.1-0.2-0.2-0.4-0.5-0.5l-2.1-1.3c-0.8-0.4-1.7-0.4-2.4,0l-15.9,8.7
				c-0.1,0-0.2,0.1-0.2,0.1C57.5,232.1,57.6,232.6,58.1,233z M82.1,250.3l42.8-23.4c0.5-0.3,1.2-0.2,1.5,0.4
				c0.1,0.1,0.1,0.2,0.1,0.3l1.1,3.4c0.3,0.9,0.8,1.6,1.4,2.3l10.1,10.3c0.4,0.4,0.5,1.1,0.1,1.5c-0.1,0.1-0.2,0.2-0.3,0.2
				c-13.7,8.8-28,16.5-42.8,23.2c-0.8,0.3-1.6,0.1-2.3-0.4l-10.2-10.3c-0.6-0.7-1.1-1.5-1.4-2.3l-1-3.2
				C81.1,251.5,81.4,250.7,82.1,250.3L82.1,250.3z"/>
			<path class="st3" d="M58.2,231.6l15.9-8.7c0.8-0.4,1.7-0.4,2.4,0l2.1,1.3c0.4,0.1,0.6,0.5,0.5,0.9c-0.1,0.2-0.2,0.4-0.5,0.5
				l-6.7,3.7c-0.4,0.1-0.6,0.5-0.5,0.9c0.1,0.2,0.2,0.4,0.5,0.5l2.1,1.3c0.8,0.4,1.6,0.4,2.4,0.1l27.4-15c0.4-0.1,0.6-0.6,0.5-0.9
				c-0.1-0.2-0.2-0.4-0.5-0.5l-2.1-1.3c-0.7-0.4-1.6-0.4-2.4-0.1l-6.8,3.8c-0.8,0.4-1.7,0.3-2.4-0.1l-2.1-1.3
				c-0.4-0.1-0.6-0.6-0.5-0.9c0.1-0.2,0.2-0.4,0.5-0.5l16-8.7c0.8-0.4,1.7-0.3,2.4,0.1l17.7,10.8c0.4,0.2,0.7,0.5,0.9,0.9
				l-48.3,26.3c-0.3-0.3-0.6-0.6-0.9-0.9L58.1,233c-0.4-0.1-0.7-0.5-0.6-0.9C57.6,231.8,57.9,231.6,58.2,231.6z"/>
			<g id="freepik--Keys--inject-39">
				<path class="st16" d="M131.9,243.9C131.9,243.9,131.9,243.8,131.9,243.9l3.2-1.8c0.1,0,0.2,0,0.3,0l1.9,1.2c0,0,0,0,0,0.1
					s0,1.3,0,1.3c0,0,0,0.1-0.1,0.1l-3.1,1.7c-0.1,0-0.2,0-0.3,0l-1.9-1.2c0,0,0-0.1,0-0.1C131.9,245.2,131.9,243.9,131.9,243.9z"/>
				<path class="st17" d="M131.9,243.8l2.1-1.1l-0.1,3.8c0,0-0.1,0-0.1,0l-1.9-1.2c0,0,0-0.1,0-0.1c0,0,0-1.3,0-1.3
					S131.9,243.8,131.9,243.8z"/>
				<path class="st14" d="M133.8,245.1c0.1,0,0.2,0,0.3,0l3.1-1.7c0.1,0,0.1-0.1,0-0.2l-1.9-1.2c-0.1,0-0.2,0-0.3,0l-3.1,1.7
					c-0.1,0.1-0.1,0.1,0,0.2L133.8,245.1z"/>
				<path class="st16" d="M128.4,245.8C128.4,245.7,128.4,245.7,128.4,245.8l2.6-1.5c0.1,0,0.2,0,0.3,0l1.9,1.2c0,0,0.1,0,0.1,0.1
					c0,0,0,1.3,0,1.3s0,0.1-0.1,0.1l-2.5,1.4c-0.1,0-0.2,0-0.3,0l-1.9-1.2c0,0-0.1,0-0.1-0.1S128.4,245.8,128.4,245.8z"/>
				<path class="st17" d="M128.5,245.7l2.1-1.1l-0.1,3.8c-0.1,0-0.1,0-0.1,0l-1.9-1.2c0,0-0.1,0-0.1-0.1s0-1.3,0-1.3
					C128.4,245.8,128.4,245.7,128.5,245.7C128.5,245.7,128.5,245.7,128.5,245.7z"/>
				<path class="st14" d="M130.4,247c0.1,0,0.2,0,0.3,0l2.5-1.4c0.1,0,0.1-0.1,0-0.2l-1.9-1.2c-0.1,0-0.2,0-0.3,0l-2.5,1.4
					c-0.1,0-0.1,0.1,0,0.2L130.4,247z"/>
				<path class="st16" d="M125,247.6C125,247.6,125,247.6,125,247.6l2.6-1.5c0.1,0,0.2,0,0.3,0l1.9,1.2c0,0,0,0,0.1,0.1
					c0,0,0,1.3,0,1.3s0,0.1-0.1,0.1l-2.5,1.4c-0.1,0-0.2,0-0.3,0L125,249c0,0,0-0.1,0-0.1C125,248.9,125,247.7,125,247.6z"/>
				<path class="st17" d="M125,247.6l2.1-1.1l-0.1,3.8c0,0-0.1,0-0.1,0L125,249c0,0,0-0.1,0-0.1C125,248.9,125,247.6,125,247.6
					C125,247.6,125,247.6,125,247.6z"/>
				<path class="st14" d="M126.9,248.9c0.1,0,0.2,0,0.3,0l2.5-1.4c0.1-0.1,0.1-0.1,0-0.2l-1.9-1.2c-0.1,0-0.2,0-0.3,0l-2.5,1.4
					c-0.1,0.1-0.1,0.1,0,0.2L126.9,248.9z"/>
				<path class="st16" d="M107.2,257.3C107.2,257.3,107.2,257.3,107.2,257.3l16.9-9.3c0.1,0,0.2,0,0.3,0l1.9,1.2c0,0,0.1,0.1,0,0.1
					s0,1.3,0,1.3c0,0,0,0.1-0.1,0.1l-16.8,9.2c-0.1,0-0.2,0-0.3,0l-1.9-1.2c0,0,0,0,0-0.1C107.2,258.7,107.2,257.4,107.2,257.3z"/>
				<path class="st17" d="M107.3,257.3l2.1-1.1l-0.1,3.8c0,0-0.1,0-0.1,0l-1.9-1.2c0,0,0,0,0-0.1c0,0,0-1.3,0-1.3
					C107.2,257.3,107.2,257.3,107.3,257.3z"/>
				<path class="st14" d="M109.2,258.6c0.1,0,0.2,0,0.3,0l16.8-9.2c0.1-0.1,0.1-0.1,0-0.2l-1.9-1.2c-0.1,0-0.2,0-0.3,0l-16.8,9.2
					c-0.1,0-0.1,0.1,0,0.2L109.2,258.6z"/>
				<path class="st16" d="M103.8,259.2C103.8,259.2,103.8,259.2,103.8,259.2l2.6-1.5c0.1,0,0.2,0,0.3,0l1.9,1.2c0,0,0.1,0,0,0.1
					s0,1.3,0,1.3c0,0,0,0.1-0.1,0.1l-2.5,1.4c-0.1,0-0.2,0-0.3,0l-1.9-1.2c0,0-0.1,0,0-0.1S103.8,259.3,103.8,259.2z"/>
				<path class="st17" d="M103.8,259.1l2.1-1.1l-0.1,3.8c0,0-0.1,0-0.1,0l-1.9-1.2c0,0-0.1,0,0-0.1s0-1.3,0-1.3
					S103.8,259.2,103.8,259.1z"/>
				<path class="st14" d="M105.7,260.5c0.1,0,0.2,0,0.3,0l2.5-1.4c0.1,0,0.1-0.1,0-0.2l-1.9-1.2c-0.1,0-0.2,0-0.3,0l-2.5,1.4
					c-0.1,0-0.1,0.1,0,0.2L105.7,260.5z"/>
				<path class="st16" d="M100.3,261.1C100.3,261.1,100.3,261,100.3,261.1l2.6-1.5c0.1,0,0.2,0,0.3,0l1.9,1.2c0,0,0,0,0.1,0.1
					c0,0,0,1.3,0,1.3s0,0.1-0.1,0.1l-2.5,1.4c-0.1,0-0.2,0-0.3,0l-1.9-1.2c0,0,0,0,0-0.1C100.3,262.4,100.3,261.1,100.3,261.1z"/>
				<path class="st17" d="M100.4,261l2.1-1.1l-0.1,3.8c0,0-0.1,0-0.1,0l-1.9-1.2c0,0,0,0,0-0.1c0,0,0-1.3,0-1.3
					C100.3,261.1,100.3,261,100.4,261z"/>
				<path class="st14" d="M102.2,262.3c0.1,0,0.2,0,0.3,0l2.5-1.4c0.1,0,0.1-0.1,0-0.2l-1.9-1.2c-0.1,0-0.2,0-0.3,0l-2.5,1.4
					c0,0-0.1,0.1-0.1,0.1c0,0,0,0,0.1,0.1L102.2,262.3z"/>
				<path class="st16" d="M96.8,263C96.8,263,96.8,262.9,96.8,263l2.6-1.5c0.1,0,0.2,0,0.3,0l1.9,1.2c0,0,0.1,0,0,0.1s0,1.3,0,1.3
					c0,0,0,0.1-0.1,0.1l-2.5,1.4c-0.1,0-0.2,0-0.3,0l-1.9-1.2c0,0-0.1,0,0-0.1S96.8,263,96.8,263z"/>
				<path class="st17" d="M96.9,262.9l2.1-1.1l-0.1,3.8c0,0-0.1,0-0.1,0l-1.9-1.2c0,0-0.1,0,0-0.1s0-1.3,0-1.3
					S96.9,262.9,96.9,262.9z"/>
				<path class="st14" d="M98.8,264.2c0.1,0,0.2,0,0.3,0l2.5-1.4c0.1,0,0.1-0.1,0-0.2l-1.9-1.2c-0.1,0-0.2,0-0.3,0l-2.5,1.4
					c-0.1,0-0.1,0.1,0,0.2L98.8,264.2z"/>
				<path class="st16" d="M92.8,265.2C92.8,265.2,92.8,265.1,92.8,265.2l3.3-1.8c0.1,0,0.2,0,0.3,0l1.9,1.2c0,0,0,0.1,0,0.1
					c0,0,0,1.3,0,1.3s0,0.1-0.1,0.1l-3.1,1.7c-0.1,0-0.2,0-0.3,0l-1.9-1.2c0,0,0-0.1,0-0.1C92.8,266.5,92.8,265.3,92.8,265.2z"/>
				<path class="st17" d="M92.8,265.1l2.1-1.1l-0.1,3.8c0,0-0.1,0-0.1,0l-1.9-1.2c0,0,0-0.1,0-0.1c0,0,0-1.3,0-1.3
					C92.8,265.2,92.8,265.2,92.8,265.1z"/>
				<path class="st14" d="M94.7,266.5c0.1,0,0.2,0,0.3,0l3.2-1.7c0.1,0,0.1-0.1,0-0.2l-1.9-1.2c-0.1,0-0.2,0-0.3,0l-3.2,1.7
					c-0.1,0-0.1,0.1,0,0.2L94.7,266.5z"/>
				<path class="st16" d="M129.8,240.2C129.8,240.2,129.8,240.2,129.8,240.2l2.6-1.5c0.1,0,0.2,0,0.3,0l1.9,1.2c0,0,0,0,0.1,0.1
					c0,0,0,1.3,0,1.3c0,0,0,0.1-0.1,0.1l-2.6,1.4c-0.1,0-0.2,0-0.3,0l-1.9-1.2c0,0-0.1,0-0.1-0.1
					C129.8,241.5,129.8,240.2,129.8,240.2z"/>
				<path class="st17" d="M129.9,240.1l2.1-1.1l-0.1,3.8c0,0-0.1,0-0.1,0l-1.9-1.2c0,0-0.1,0-0.1-0.1c0,0,0-1.3,0-1.3
					S129.8,240.1,129.9,240.1z"/>
				<path class="st14" d="M131.8,241.4c0.1,0,0.2,0,0.3,0l2.5-1.4c0.1,0,0.1-0.1,0-0.2l-1.9-1.2c-0.1,0-0.2,0-0.3,0l-2.5,1.4
					c-0.1,0-0.1,0.1,0,0.2L131.8,241.4z"/>
				<path class="st16" d="M126.8,241.8C126.8,241.8,126.9,241.8,126.8,241.8l2.1-1.2c0.1,0,0.2,0,0.3,0l1.9,1.2c0,0,0.1,0,0.1,0.1
					c0,0,0,1.3,0,1.3s0,0.1-0.1,0.1l-2,1.1c-0.1,0-0.2,0-0.3,0l-1.9-1.1c0,0,0,0,0-0.1S126.8,241.9,126.8,241.8z"/>
				<path class="st17" d="M126.9,241.8l2,1.3v1.4c0,0-0.1,0-0.1,0l-1.9-1.1c0,0,0,0,0-0.1s0-1.3,0-1.3
					C126.9,241.8,126.9,241.8,126.9,241.8z"/>
				<path class="st14" d="M128.8,243.1c0.1,0,0.2,0,0.3,0l2-1.1c0.1-0.1,0.1-0.1,0-0.2l-1.9-1.2c-0.1,0-0.2,0-0.3,0l-2,1.1
					c-0.1,0.1-0.1,0.1,0,0.2L128.8,243.1z"/>
				<path class="st16" d="M123.8,243.5C123.9,243.4,123.9,243.4,123.8,243.5l2.1-1.2c0.1,0,0.2,0,0.3,0l1.9,1.2c0,0,0,0,0.1,0.1
					c0,0,0,1.3,0,1.3s0,0.1-0.1,0.1l-2,1.1c-0.1,0-0.2,0-0.3,0l-1.9-1.2c0,0-0.1,0-0.1-0.1S123.8,243.5,123.8,243.5z"/>
				<path class="st17" d="M123.9,243.4l2,1.3v1.4c0,0-0.1,0-0.1,0l-1.9-1.2c0,0-0.1,0-0.1-0.1s0-1.3,0-1.3
					C123.8,243.4,123.9,243.4,123.9,243.4z"/>
				<path class="st14" d="M125.8,244.7c0.1,0,0.2,0,0.3,0l2-1.1c0.1-0.1,0.1-0.1,0-0.2l-1.9-1.2c-0.1,0-0.2,0-0.3,0l-2,1.1
					c0,0-0.1,0.1-0.1,0.1c0,0,0,0,0.1,0.1L125.8,244.7z"/>
				<path class="st16" d="M120.9,245.1C120.9,245.1,120.9,245,120.9,245.1l2.1-1.2c0.1,0,0.2,0,0.3,0l1.9,1.2c0,0,0,0.1,0,0.1
					c0,0,0,1.3,0,1.3c0,0,0,0.1-0.1,0.1l-2,1.1c-0.1,0-0.2,0-0.3,0l-1.9-1.2c0,0,0,0,0-0.1C120.9,246.4,120.9,245.1,120.9,245.1z"/>
				<path class="st17" d="M120.9,245l2,1.3v1.4c0,0-0.1,0-0.1,0l-1.9-1.2c0,0,0,0,0-0.1c0,0,0-1.3,0-1.3
					C120.9,245.1,120.9,245,120.9,245z"/>
				<path class="st14" d="M122.8,246.3c0.1,0,0.2,0,0.3,0l2-1.1c0.1-0.1,0.1-0.1,0-0.2l-1.9-1.2c-0.1,0-0.2,0-0.3,0l-2,1.1
					c-0.1,0-0.1,0.1,0,0.2L122.8,246.3z"/>
				<path class="st16" d="M117.9,246.7C117.9,246.7,117.9,246.7,117.9,246.7l2.1-1.2c0.1,0,0.2,0,0.3,0l1.9,1.2c0,0,0,0,0,0.1
					c0,0,0,1.3,0,1.3c0,0,0,0.1-0.1,0.1l-2,1.1c-0.1,0-0.2,0-0.3,0l-1.9-1.2c0,0,0,0-0.1-0.1C117.8,248,117.9,246.8,117.9,246.7z"/>
				<path class="st17" d="M118,246.6l2,1.3v1.4c0,0-0.1,0-0.1,0l-1.9-1.2c0,0-0.1,0-0.1-0.1c0,0,0-1.3,0-1.3S117.9,246.7,118,246.6z
					"/>
				<path class="st14" d="M119.8,248c0.1,0,0.2,0,0.3,0l2-1.1c0.1,0,0.1-0.1,0-0.2l-1.9-1.2c-0.1,0-0.2,0-0.3,0l-2,1.1
					c-0.1,0.1-0.1,0.1,0,0.2L119.8,248z"/>
				<path class="st16" d="M114.9,248.4C114.9,248.4,114.9,248.3,114.9,248.4l2.1-1.2c0.1,0,0.2,0,0.3,0l1.9,1.2c0,0,0,0,0,0.1
					s0,1.3,0,1.3c0,0,0,0.1-0.1,0.1l-2,1.1c-0.1,0-0.2,0-0.3,0l-1.9-1.2c0,0-0.1,0-0.1-0.1C114.8,249.7,114.9,248.4,114.9,248.4z"/>
				<path class="st17" d="M115,248.3l2,1.3v1.4c0,0-0.1,0-0.1,0l-1.9-1.2c0,0-0.1,0-0.1-0.1c0,0,0-1.3,0-1.3S114.9,248.3,115,248.3z
					"/>
				<path class="st14" d="M116.8,249.6c0.1,0,0.2,0,0.3,0l2-1.1c0.1,0,0.1-0.1,0-0.2l-1.9-1.2c-0.1,0-0.2,0-0.3,0l-2,1.1
					c-0.1,0.1-0.1,0.1,0,0.2L116.8,249.6z"/>
				<path class="st16" d="M111.9,250C111.9,250,111.9,249.9,111.9,250l2.1-1.2c0.1,0,0.2,0,0.3,0l1.9,1.2c0,0,0,0.1,0,0.1
					c0,0,0,1.3,0,1.3c0,0,0,0.1-0.1,0.1l-2,1.1c-0.1,0-0.2,0-0.3,0l-1.9-1.2c0,0,0,0-0.1-0.1L111.9,250z"/>
				<path class="st17" d="M112,249.9l2,1.3v1.4c0,0-0.1,0-0.1,0l-1.9-1.2c0,0,0,0-0.1-0.1c0,0,0-1.3,0-1.3S111.9,249.9,112,249.9z"
					/>
				<path class="st14" d="M113.9,251.2c0.1,0,0.2,0,0.3,0l2-1.1c0.1,0,0.1-0.1,0-0.2l-1.9-1.2c-0.1,0-0.2,0-0.3,0l-2,1.1
					c-0.1,0.1-0.1,0.1,0,0.2L113.9,251.2z"/>
				<path class="st16" d="M108.9,251.6C108.9,251.6,109,251.5,108.9,251.6l2.1-1.2c0.1,0,0.2,0,0.3,0l1.9,1.2c0,0,0,0.1,0,0.1
					c0,0,0,1.3,0,1.3s0,0.1-0.1,0.1l-2,1.1c-0.1,0-0.2,0-0.3,0L109,253c0,0,0,0,0-0.1S108.9,251.6,108.9,251.6z"/>
				<path class="st17" d="M109,251.5l2,1.3v1.4c0,0-0.1,0-0.1,0L109,253c0,0,0,0,0-0.1S109,251.6,109,251.5
					C109,251.6,109,251.6,109,251.5z"/>
				<path class="st14" d="M110.9,252.9c0.1,0,0.2,0,0.3,0l2-1.1c0.1,0,0.1-0.1,0-0.2l-1.9-1.2c-0.1,0-0.2,0-0.3,0l-2,1.1
					c-0.1,0-0.1,0.1,0,0.2L110.9,252.9z"/>
				<path class="st16" d="M105.9,253.2C105.9,253.2,106,253.2,105.9,253.2l2.1-1.2c0.1,0,0.2,0,0.3,0l1.9,1.2c0,0,0,0.1,0,0.1
					c0,0,0,1.3,0,1.3s0,0.1-0.1,0.1l-2,1.1c-0.1,0-0.2,0-0.3,0l-1.9-1.2c0,0,0,0,0-0.1C105.9,254.6,105.9,253.3,105.9,253.2z"/>
				<path class="st17" d="M106,253.1l2,1.3v1.4c0,0-0.1,0-0.1,0l-1.9-1.2c0,0,0,0,0-0.1c0,0,0-1.3,0-1.3
					C106,253.2,106,253.2,106,253.1z"/>
				<path class="st14" d="M107.9,254.5c0.1,0,0.2,0,0.3,0l2-1.1c0.1-0.1,0.1-0.1,0-0.2l-1.9-1.2c-0.1,0-0.2,0-0.3,0l-2,1.1
					c-0.1,0-0.1,0.1,0,0.2L107.9,254.5z"/>
				<path class="st16" d="M103,254.9c0,0,0-0.1,0.1-0.1l2-1.1c0.1,0,0.2,0,0.3,0l1.9,1.2c0,0,0.1,0.1,0,0.1s0,1.3,0,1.3
					c0,0,0,0.1-0.1,0.1l-2,1.1c-0.1,0-0.2,0-0.3,0l-1.9-1.2c0,0,0,0,0-0.1C103,256.2,103,254.9,103,254.9z"/>
				<path class="st17" d="M103,254.8l2,1.3v1.4c0,0-0.1,0-0.1,0l-1.9-1.2c0,0,0,0,0-0.1c0,0,0-1.3,0-1.3S103,254.8,103,254.8z"/>
				<path class="st14" d="M104.9,256.1c0.1,0,0.2,0,0.3,0l2-1.1c0.1-0.1,0.1-0.1,0-0.2l-1.9-1.2c-0.1,0-0.2,0-0.3,0l-2,1.1
					c-0.1,0-0.1,0.1,0,0.2L104.9,256.1z"/>
				<path class="st16" d="M100,256.5C100,256.5,100,256.4,100,256.5l2.1-1.2c0.1,0,0.2,0,0.3,0l1.9,1.2c0,0,0,0,0,0.1s0,1.3,0,1.3
					c0,0,0,0.1-0.1,0.1l-2,1.1c-0.1,0-0.2,0-0.3,0l-1.9-1.2c0,0,0-0.1,0-0.1C100,257.8,100,256.5,100,256.5z"/>
				<path class="st17" d="M100.1,256.4l2,1.3v1.4c0,0-0.1,0-0.1,0l-1.9-1.2c0,0,0-0.1,0-0.1c0,0,0-1.3,0-1.3
					C100,256.5,100,256.4,100.1,256.4z"/>
				<path class="st14" d="M101.9,257.7c0.1,0,0.2,0,0.3,0l2-1.1c0.1,0,0.1-0.1,0-0.2l-1.9-1.2c-0.1,0-0.2,0-0.3,0l-2,1.1
					c-0.1,0-0.1,0.1,0,0.2L101.9,257.7z"/>
				<path class="st16" d="M97,258.1C97,258.1,97,258.1,97,258.1l2.1-1.2c0.1,0,0.2,0,0.3,0l1.9,1.2c0,0,0,0,0,0.1s0,1.3,0,1.3
					c0,0,0,0.1-0.1,0.1l-2,1.1c-0.1,0-0.2,0-0.3,0l-1.9-1.2c0,0-0.1,0-0.1-0.1C96.9,259.4,97,258.1,97,258.1z"/>
				<path class="st17" d="M97.1,258l2,1.3v1.4c0,0-0.1,0-0.1,0l-1.9-1.2c0,0-0.1,0-0.1-0.1c0,0,0-1.3,0-1.3S97,258.1,97.1,258z"/>
				<path class="st14" d="M98.9,259.4c0.1,0,0.2,0,0.3,0l2-1.1c0.1,0,0.1-0.1,0-0.2l-1.9-1.2c-0.1,0-0.2,0-0.3,0l-2,1.1
					c-0.1,0-0.1,0.1,0,0.2L98.9,259.4z"/>
				<path class="st16" d="M90.1,261.9C90.1,261.9,90.1,261.8,90.1,261.9l6.1-3.3c0.1,0,0.2,0,0.3,0l1.9,1.2c0,0,0,0.1,0,0.1
					c0,0,0,1.3,0,1.3s0,0.1-0.1,0.1l-6,3.3c-0.1,0-0.2,0-0.3,0l-1.9-1.2c0,0-0.1,0,0-0.1S90.1,261.9,90.1,261.9z"/>
				<path class="st17" d="M90.2,261.8l2,1.3v1.4c0,0-0.1,0-0.1,0l-1.9-1.2c0,0-0.1,0,0-0.1s0-1.3,0-1.3S90.1,261.8,90.2,261.8z"/>
				<path class="st14" d="M92,263.1c0.1,0,0.2,0,0.3,0l6-3.3c0.1,0,0.1-0.1,0-0.2l-1.9-1.2c-0.1,0-0.2,0-0.3,0l-6,3.3
					c-0.1,0-0.1,0.1,0,0.2L92,263.1z"/>
				<path class="st16" d="M125.7,237.6C125.7,237.6,125.7,237.6,125.7,237.6l4-2.2c0.1,0,0.2,0,0.3,0l1.9,1.2c0,0,0,0,0.1,0.1
					c0,0,0,1.3,0,1.3c0,0,0,0.1-0.1,0.1l-3.9,2.1c-0.1,0-0.2,0-0.3,0l-1.9-1.2c0,0,0-0.1,0-0.1C125.8,239,125.7,237.7,125.7,237.6z"
					/>
				<path class="st17" d="M125.8,237.6l2.1-1.1l-0.1,3.8c0,0-0.1,0-0.1,0l-1.9-1.2c0,0,0-0.1,0-0.1c0,0,0-1.3,0-1.3
					S125.8,237.6,125.8,237.6z"/>
				<path class="st14" d="M127.7,238.9c0.1,0,0.2,0,0.3,0l3.9-2.1c0.1,0,0.1-0.1,0-0.2l-1.9-1.2c-0.1,0-0.2,0-0.3,0l-3.9,2.1
					c-0.1,0.1-0.1,0.1,0,0.2L127.7,238.9z"/>
				<path class="st16" d="M122.8,239.3C122.8,239.3,122.8,239.2,122.8,239.3l2.1-1.2c0.1,0,0.2,0,0.3,0l1.9,1.2c0,0,0,0.1,0,0.1
					c0,0,0,1.3,0,1.3s0,0.1-0.1,0.1l-2,1.1c-0.1,0-0.2,0-0.3,0l-1.9-1.2c0,0-0.1,0-0.1-0.1C122.7,240.6,122.8,239.3,122.8,239.3z"/>
				<path class="st17" d="M122.8,239.2l2,1.3v1.4c0,0-0.1,0-0.1,0l-1.9-1.2c0,0-0.1,0,0-0.1s0-1.3,0-1.3S122.8,239.2,122.8,239.2z"
					/>
				<path class="st14" d="M124.7,240.5c0.1,0,0.2,0,0.3,0l2-1.1c0.1-0.1,0.1-0.1,0-0.2l-1.9-1.2c-0.1,0-0.2,0-0.3,0l-2,1.1
					c-0.1,0.1-0.1,0.1,0,0.2L124.7,240.5z"/>
				<path class="st16" d="M119.8,240.9C119.8,240.9,119.8,240.8,119.8,240.9l2.1-1.2c0.1,0,0.2,0,0.3,0l1.9,1.2c0,0,0,0,0.1,0.1
					c0,0,0,1.3,0,1.3c0,0,0,0.1-0.1,0.1l-2,1.1c-0.1,0-0.2,0-0.3,0l-1.9-1.1c0,0,0-0.1,0-0.1S119.8,240.9,119.8,240.9z"/>
				<path class="st17" d="M119.8,240.8l2,1.3v1.4c0,0-0.1,0-0.1,0l-1.9-1.1c0,0,0-0.1,0-0.1s0-1.3,0-1.3
					C119.8,240.9,119.8,240.9,119.8,240.8z"/>
				<path class="st14" d="M121.7,242.1c0.1,0,0.2,0,0.3,0l2-1.1c0.1-0.1,0.1-0.1,0-0.2l-1.9-1.2c-0.1,0-0.2,0-0.3,0l-2,1.1
					c-0.1,0.1-0.1,0.1,0,0.2L121.7,242.1z"/>
				<path class="st16" d="M116.8,242.5C116.8,242.5,116.8,242.5,116.8,242.5l2.1-1.2c0.1,0,0.2,0,0.3,0l1.9,1.2c0,0,0.1,0,0,0.1
					s0,1.3,0,1.3s0,0.1-0.1,0.1l-2,1.1c-0.1,0-0.2,0-0.3,0l-1.9-1.2c0,0,0,0,0-0.1S116.8,242.6,116.8,242.5z"/>
				<path class="st17" d="M116.8,242.4l2,1.3v1.4c0,0-0.1,0-0.1,0l-1.9-1.2c0,0,0,0,0-0.1s0-1.3,0-1.3
					C116.8,242.5,116.8,242.5,116.8,242.4z"/>
				<path class="st14" d="M118.7,243.8c0.1,0,0.2,0,0.3,0l2-1.1c0.1,0,0.1-0.1,0-0.2l-1.9-1.2c-0.1,0-0.2,0-0.3,0l-2,1.1
					c-0.1,0-0.1,0.1,0,0.2L118.7,243.8z"/>
				<path class="st16" d="M113.8,244.2c0,0,0-0.1,0.1-0.1l2-1.1c0.1,0,0.2,0,0.3,0l1.9,1.2c0,0,0,0,0.1,0.1c0,0,0,1.3,0,1.3
					c0,0,0,0.1-0.1,0.1l-2,1.1c-0.1,0-0.2,0-0.3,0l-1.9-1.2c0,0,0,0,0-0.1C113.8,245.5,113.8,244.2,113.8,244.2z"/>
				<path class="st17" d="M113.9,244.1l2,1.3v1.4c0,0-0.1,0-0.1,0l-1.9-1.2c0,0,0,0,0-0.1c0,0,0-1.3,0-1.3
					C113.8,244.2,113.8,244.1,113.9,244.1z"/>
				<path class="st14" d="M115.7,245.4c0.1,0,0.2,0,0.3,0l2-1.1c0.1,0,0.1-0.1,0-0.2l-1.8-1.1c-0.1,0-0.2,0-0.3,0l-2,1.1
					c-0.1,0-0.1,0.1,0,0.2L115.7,245.4z"/>
				<path class="st16" d="M110.8,245.8C110.8,245.8,110.8,245.7,110.8,245.8l2.1-1.2c0.1,0,0.2,0,0.3,0l1.9,1.2c0,0,0,0,0,0.1
					s0,1.3,0,1.3c0,0,0,0.1-0.1,0.1l-2,1.1c-0.1,0-0.2,0-0.3,0l-1.9-1.2c0,0,0-0.1,0-0.1C110.8,247.1,110.8,245.8,110.8,245.8z"/>
				<path class="st17" d="M110.9,245.7l2,1.3v1.4c0,0-0.1,0-0.1,0l-1.9-1.2c0,0,0-0.1,0-0.1c0,0,0-1.3,0-1.3
					S110.8,245.7,110.9,245.7z"/>
				<path class="st14" d="M112.8,247c0.1,0,0.2,0,0.3,0l2-1.1c0.1,0,0.1-0.1,0-0.2l-1.9-1.2c-0.1,0-0.2,0-0.3,0l-2,1.1
					c-0.1,0.1-0.1,0.1,0,0.2L112.8,247z"/>
				<path class="st16" d="M107.8,247.4C107.8,247.4,107.8,247.4,107.8,247.4l2.1-1.2c0.1,0,0.2,0,0.3,0l1.9,1.2c0,0,0.1,0,0.1,0.1
					c0,0,0,1.3,0,1.3c0,0,0,0.1-0.1,0.1L110,250c-0.1,0-0.2,0-0.3,0l-1.9-1.2c0,0,0-0.1,0-0.1C107.8,248.8,107.8,247.4,107.8,247.4z
					"/>
				<path class="st17" d="M107.9,247.3l2,1.3v1.4c0,0-0.1,0-0.1,0l-1.9-1.2c0,0,0-0.1,0-0.1c0,0,0-1.3,0-1.3
					S107.8,247.4,107.9,247.3z"/>
				<path class="st14" d="M109.8,248.7c0.1,0,0.2,0,0.3,0l2-1.1c0.1,0,0.1-0.1,0-0.2l-1.9-1.2c-0.1,0-0.2,0-0.3,0l-2,1.1
					c-0.1,0-0.1,0.1,0,0.2L109.8,248.7z"/>
				<path class="st16" d="M104.8,249.1C104.8,249,104.9,249,104.8,249.1l2.1-1.2c0.1,0,0.2,0,0.3,0l1.9,1.2c0,0,0,0.1,0,0.1
					c0,0,0,1.3,0,1.3c0,0,0,0.1-0.1,0.1l-2,1.1c-0.1,0-0.2,0-0.3,0l-1.9-1.1c0,0,0-0.1,0-0.1S104.8,249.1,104.8,249.1z"/>
				<path class="st17" d="M104.9,249l2,1.3v1.4c0,0-0.1,0-0.1,0l-1.9-1.1c0,0,0-0.1,0-0.1s0-1.3,0-1.3
					C104.9,249.1,104.9,249,104.9,249z"/>
				<path class="st14" d="M106.8,250.3c0.1,0,0.2,0,0.3,0l2-1.1c0.1,0,0.1-0.1,0-0.2l-1.9-1.2c-0.1,0-0.2,0-0.3,0l-2,1.1
					c-0.1,0-0.1,0.1,0,0.2L106.8,250.3z"/>
				<path class="st16" d="M101.9,250.7C101.9,250.6,101.9,250.6,101.9,250.7l2.1-1.2c0.1,0,0.2,0,0.3,0l1.9,1.2c0,0,0,0.1,0,0.1
					c0,0,0,1.3,0,1.3s0,0.1-0.1,0.1l-2,1.1c-0.1,0-0.2,0-0.3,0l-1.9-1.2c0,0-0.1,0-0.1-0.1S101.9,250.7,101.9,250.7z"/>
				<path class="st17" d="M101.9,250.6l2,1.3v1.4c0,0-0.1,0-0.1,0l-1.9-1.2c0,0-0.1,0-0.1-0.1s0-1.3,0-1.3
					C101.8,250.7,101.9,250.6,101.9,250.6C101.9,250.6,101.9,250.6,101.9,250.6z"/>
				<path class="st14" d="M103.8,251.9c0.1,0,0.2,0,0.3,0l2-1.1c0.1-0.1,0.1-0.1,0-0.2l-1.9-1.2c-0.1,0-0.2,0-0.3,0l-2,1.1
					c-0.1,0-0.1,0.1,0,0.2L103.8,251.9z"/>
				<path class="st16" d="M98.9,252.3C98.9,252.3,98.9,252.2,98.9,252.3l2.1-1.2c0.1,0,0.2,0,0.3,0l1.9,1.2c0,0,0,0.1,0,0.1
					c0,0,0,1.3,0,1.3c0,0,0,0.1-0.1,0.1l-2,1.1c-0.1,0-0.2,0-0.3,0l-1.9-1.2c0,0,0,0,0-0.1C98.9,253.6,98.9,252.3,98.9,252.3z"/>
				<path class="st17" d="M98.9,252.2l2,1.3v1.4c0,0-0.1,0-0.1,0l-1.9-1.2c0,0,0,0,0-0.1c0,0,0-1.3,0-1.3
					C98.9,252.3,98.9,252.3,98.9,252.2z"/>
				<path class="st14" d="M100.8,253.5c0.1,0,0.2,0,0.3,0l2-1.1c0.1-0.1,0.1-0.1,0-0.2l-1.9-1.2c-0.1,0-0.2,0-0.3,0l-2,1.1
					c-0.1,0-0.1,0.1,0,0.2L100.8,253.5z"/>
				<path class="st16" d="M95.9,253.9C95.9,253.9,95.9,253.9,95.9,253.9l2.1-1.2c0.1,0,0.2,0,0.3,0l1.9,1.2c0,0,0.1,0.1,0,0.1
					s0,1.3,0,1.3c0,0,0,0.1-0.1,0.1l-2,1.1c-0.1,0-0.2,0-0.3,0l-1.9-1.2c0,0,0-0.1,0-0.1C95.9,255.2,95.9,254,95.9,253.9z"/>
				<path class="st17" d="M96,253.8l2,1.3v1.4c0,0-0.1,0-0.1,0l-1.9-1.2c0,0,0-0.1,0-0.1c0,0,0-1.3,0-1.3S95.9,253.9,96,253.8z"/>
				<path class="st14" d="M97.8,255.2c0.1,0,0.2,0,0.3,0l2-1.1c0.1,0,0.1-0.1,0-0.2l-1.9-1.2c-0.1,0-0.2,0-0.3,0l-2,1.1
					c-0.1,0-0.1,0.1,0,0.2L97.8,255.2z"/>
				<path class="st16" d="M92.9,255.6C92.9,255.5,92.9,255.5,92.9,255.6l2.1-1.2c0.1,0,0.2,0,0.3,0l1.9,1.2c0,0,0.1,0.1,0.1,0.1
					s0,1.3,0,1.3c0,0,0,0.1-0.1,0.1l-2,1.1c-0.1,0-0.2,0-0.3,0l-1.9-1.1c0,0,0-0.1,0-0.1C92.9,256.9,92.9,255.6,92.9,255.6z"/>
				<path class="st17" d="M93,255.5l2,1.3v1.4c0,0-0.1,0-0.1,0l-1.9-1.1c0,0,0-0.1,0-0.1c0,0,0-1.3,0-1.3S92.9,255.5,93,255.5z"/>
				<path class="st14" d="M94.8,256.8c0.1,0,0.2,0,0.3,0l2-1.1c0.1,0,0.1-0.1,0-0.2l-1.9-1.2c-0.1,0-0.2,0-0.3,0l-2,1.1
					c-0.1,0.1-0.1,0.1,0,0.2L94.8,256.8z"/>
				<path class="st16" d="M84.7,256.9C84.7,256.9,84.7,256.8,84.7,256.9l2.4-1.4c0.1,0,0.2,0,0.3,0l2.4,1.5c0.1,0,0.2,0,0.3,0l1.8-1
					c0.1,0,0.2,0,0.3,0l1.9,1.2c0,0,0.1,0,0.1,0.1c0,0,0,1.3,0,1.3s0,0.1-0.1,0.1l-4.6,2.5c-0.1,0-0.2,0-0.3,0l-4.6-2.8
					c0,0,0,0,0-0.1C84.7,258.2,84.7,256.9,84.7,256.9z"/>
				<path class="st17" d="M84.8,256.8l4.7,2.9v1.5c0,0-0.1,0-0.1,0l-4.6-2.8c0,0,0,0,0-0.1c0,0,0-1.3,0-1.3
					C84.7,256.9,84.7,256.9,84.8,256.8z"/>
				<path class="st14" d="M94.2,257.1l-1.9-1.1c-0.1,0-0.2,0-0.3,0l-1.9,1c-0.1,0-0.2,0-0.3,0l-2.4-1.5c-0.1,0-0.2,0-0.3,0l-2.4,1.3
					c-0.1,0-0.1,0.1,0,0.2l4.6,2.8c0.1,0,0.2,0,0.3,0l4.6-2.5C94.3,257.3,94.3,257.2,94.2,257.1z"/>
				<path class="st16" d="M123.8,233.9c0,0,0-0.1,0.1-0.1l3.1-1.7c0.1,0,0.2,0,0.3,0l1.9,1.2c0,0,0,0,0.1,0.1c0,0,0,1.3,0,1.3
					c0,0,0,0.1-0.1,0.1l-3.1,1.7c-0.1,0-0.2,0-0.3,0l-1.9-1.2c0,0,0-0.1,0-0.1C123.9,235.2,123.8,233.9,123.8,233.9z"/>
				<path class="st17" d="M123.9,233.8l2,1.3v1.4c0,0-0.1,0-0.1,0l-1.9-1.2c0,0,0-0.1,0-0.1c0,0,0-1.3,0-1.3
					C123.9,233.9,123.9,233.8,123.9,233.8z"/>
				<path class="st14" d="M125.8,235.1c0.1,0,0.2,0,0.3,0l3.1-1.7c0.1,0,0.1-0.1,0-0.2l-1.9-1.2c-0.1,0-0.2,0-0.3,0l-3.1,1.7
					c-0.1,0-0.1,0.1,0,0.2L125.8,235.1z"/>
				<path class="st16" d="M120.9,235.5C120.9,235.5,120.9,235.5,120.9,235.5l2.1-1.2c0.1,0,0.2,0,0.3,0l1.9,1.1c0,0,0.1,0.1,0.1,0.1
					s0,1.3,0,1.3c0,0,0,0.1-0.1,0.1l-2,1.1c-0.1,0-0.2,0-0.3,0l-1.9-1.2c0,0,0-0.1,0-0.1C120.9,236.8,120.9,235.6,120.9,235.5z"/>
				<path class="st17" d="M120.9,235.4l2,1.3v1.4c0,0-0.1,0-0.1,0l-1.9-1.2c0,0,0-0.1,0-0.1c0,0,0-1.3,0-1.3
					S120.9,235.5,120.9,235.4z"/>
				<path class="st14" d="M122.8,236.8c0.1,0,0.2,0,0.3,0l2-1.1c0.1,0,0.1-0.1,0-0.2l-1.9-1.2c-0.1,0-0.2,0-0.3,0l-2,1.1
					c-0.1,0-0.1,0.1,0,0.2L122.8,236.8z"/>
				<path class="st16" d="M117.9,237.1C117.9,237.1,117.9,237.1,117.9,237.1l2.1-1.2c0.1,0,0.2,0,0.3,0l1.9,1.2c0,0,0,0.1,0,0.1
					c0,0,0,1.3,0,1.3s0,0.1-0.1,0.1l-2,1.1c-0.1,0-0.2,0-0.3,0l-1.9-1.2c0,0,0-0.1,0-0.1C117.9,238.5,117.9,237.2,117.9,237.1z"/>
				<path class="st17" d="M118,237.1l2,1.3v1.4c0,0-0.1,0-0.1,0l-1.9-1.2c0,0,0-0.1,0-0.1c0,0,0-1.3,0-1.3
					C118,237.1,118,237.1,118,237.1z"/>
				<path class="st14" d="M119.8,238.4c0.1,0,0.2,0,0.3,0l2-1.1c0.1-0.1,0.1-0.1,0-0.2l-1.9-1.2c-0.1,0-0.2,0-0.3,0l-2,1.1
					c-0.1,0.1-0.1,0.1,0,0.2L119.8,238.4z"/>
				<path class="st16" d="M114.9,238.8C114.9,238.7,114.9,238.7,114.9,238.8l2.1-1.2c0.1,0,0.2,0,0.3,0l1.9,1.2c0,0,0,0.1,0,0.1
					c0,0,0,1.3,0,1.3s0,0.1-0.1,0.1l-2,1.1c-0.1,0-0.2,0-0.3,0l-1.9-1.1c0,0,0,0,0-0.1S114.9,238.8,114.9,238.8z"/>
				<path class="st17" d="M115,238.7l2,1.3v1.4c0,0-0.1,0-0.1,0l-1.9-1.1c0,0,0,0,0-0.1s0-1.3,0-1.3C115,238.8,115,238.7,115,238.7z
					"/>
				<path class="st14" d="M116.8,240c0.1,0,0.2,0,0.3,0l2.1-1.1c0.1-0.1,0.1-0.1,0-0.2l-1.9-1.2c-0.1,0-0.2,0-0.3,0l-2,1.1
					c-0.1,0.1-0.1,0.1,0,0.2L116.8,240z"/>
				<path class="st16" d="M111.9,240.4C111.9,240.4,111.9,240.3,111.9,240.4l2.1-1.2c0.1,0,0.2,0,0.3,0l1.9,1.2c0,0,0.1,0,0.1,0.1
					c0,0,0,1.3,0,1.3s0,0.1-0.1,0.1l-2,1.1c-0.1,0-0.2,0-0.3,0l-1.9-1.2c0,0,0,0,0-0.1S111.9,240.4,111.9,240.4z"/>
				<path class="st17" d="M112,240.3l2,1.3v1.4c0,0-0.1,0-0.1,0l-1.9-1.2c0,0,0,0,0-0.1s0-1.3,0-1.3
					C111.9,240.4,112,240.3,112,240.3z"/>
				<path class="st14" d="M113.9,241.6c0.1,0,0.2,0,0.3,0l2-1.1c0.1-0.1,0.1-0.1,0-0.2l-1.9-1.2c-0.1,0-0.2,0-0.3,0l-2,1.1
					c-0.1,0-0.1,0.1,0,0.2L113.9,241.6z"/>
				<path class="st16" d="M108.9,242C108.9,242,109,242,108.9,242l2.1-1.1c0.1,0,0.2,0,0.3,0l1.9,1.2c0,0,0,0.1,0,0.1
					c0,0,0,1.3,0,1.3c0,0,0,0.1-0.1,0.1l-2,1.1c-0.1,0-0.2,0-0.3,0l-1.9-1.2c0,0,0,0,0-0.1C109,243.4,108.9,242.1,108.9,242z"/>
				<path class="st17" d="M109,242l2,1.3v1.4c0,0-0.1,0-0.1,0l-1.9-1.2c0,0,0,0,0-0.1c0,0,0-1.3,0-1.3C109,242.1,109,242,109,242z"
					/>
				<path class="st14" d="M110.9,243.3c0.1,0,0.2,0,0.3,0l2-1.1c0.1,0,0.1-0.1,0-0.2l-1.9-1.2c-0.1,0-0.2,0-0.3,0l-2,1.2
					c-0.1,0-0.1,0.1,0,0.2L110.9,243.3z"/>
				<path class="st16" d="M105.9,243.7C105.9,243.7,105.9,243.6,105.9,243.7l2.1-1.2c0.1,0,0.2,0,0.3,0l1.9,1.2c0,0,0.1,0,0.1,0.1
					s0,1.3,0,1.3c0,0,0,0.1-0.1,0.1l-2,1.1c-0.1,0-0.2,0-0.3,0l-1.9-1.2c0,0-0.1-0.1,0-0.1S105.9,243.7,105.9,243.7z"/>
				<path class="st17" d="M106,243.6l2,1.3v1.4c0,0-0.1,0-0.1,0l-1.9-1.2c0,0-0.1-0.1,0-0.1s0-1.3,0-1.3S106,243.6,106,243.6z"/>
				<path class="st14" d="M107.9,244.9c0.1,0,0.2,0,0.3,0l2-1.1c0.1,0,0.1-0.1,0-0.2l-1.9-1.2c-0.1,0-0.2,0-0.3,0l-2,1.1
					c-0.1,0.1-0.1,0.1,0,0.2L107.9,244.9z"/>
				<path class="st16" d="M103,245.3C103,245.3,103,245.2,103,245.3l2.1-1.2c0.1,0,0.2,0,0.3,0l1.9,1.2c0,0,0,0,0,0.1s0,1.3,0,1.3
					c0,0,0,0.1-0.1,0.1l-2,1.1c-0.1,0-0.2,0-0.3,0l-1.9-1.2c0,0,0-0.1,0-0.1C103,246.6,103,245.3,103,245.3z"/>
				<path class="st17" d="M103,245.2l2,1.3v1.4c0,0-0.1,0-0.1,0l-1.9-1.2c0,0,0-0.1,0-0.1c0,0,0-1.3,0-1.3S103,245.2,103,245.2z"/>
				<path class="st14" d="M104.9,246.5c0.1,0,0.2,0,0.3,0l2-1.1c0.1,0,0.1-0.1,0-0.2l-1.9-1.2c-0.1,0-0.2,0-0.3,0l-2,1.1
					c-0.1,0.1-0.1,0.1,0,0.2L104.9,246.5z"/>
				<path class="st16" d="M100,246.9C100,246.9,100,246.8,100,246.9l2.1-1.2c0.1,0,0.2,0,0.3,0l1.9,1.2c0,0,0.1,0,0,0.1s0,1.3,0,1.3
					s0,0.1-0.1,0.1l-2,1.1c-0.1,0-0.2,0-0.3,0l-1.9-1.2c0,0,0-0.1,0-0.1C100,248.2,100,247,100,246.9z"/>
				<path class="st17" d="M100,246.8l2,1.3v1.4c0,0-0.1,0-0.1,0l-1.9-1.2c0,0,0-0.1,0-0.1c0,0,0-1.3,0-1.3
					C100,246.9,100,246.9,100,246.8z"/>
				<path class="st14" d="M101.9,248.2c0.1,0,0.2,0,0.3,0l2-1.1c0.1,0,0.1-0.1,0-0.2l-1.9-1.2c-0.1,0-0.2,0-0.3,0l-2,1.1
					c-0.1,0-0.1,0.1,0,0.2L101.9,248.2z"/>
				<path class="st16" d="M97,248.6C97,248.5,97,248.5,97,248.6l2.1-1.2c0.1,0,0.2,0,0.3,0l1.9,1.2c0,0,0,0.1,0,0.1c0,0,0,1.3,0,1.3
					s0,0.1-0.1,0.1l-2,1.1c-0.1,0-0.2,0-0.3,0l-1.9-1.2c0,0,0,0,0-0.1S97,248.6,97,248.6z"/>
				<path class="st17" d="M97.1,248.5l2,1.3v1.4c0,0-0.1,0-0.1,0l-1.9-1.2c0,0,0,0,0-0.1S97,248.6,97.1,248.5
					C97,248.5,97,248.5,97.1,248.5z"/>
				<path class="st14" d="M98.9,249.8c0.1,0,0.2,0,0.3,0l2-1.1c0.1,0,0.1-0.1,0-0.2l-1.9-1.2c-0.1,0-0.2,0-0.3,0l-2,1.1
					c-0.1,0-0.1,0.1,0,0.2L98.9,249.8z"/>
				<path class="st16" d="M94,250.2C94,250.1,94,250.1,94,250.2l2.1-1.2c0.1,0,0.2,0,0.3,0l1.9,1.2c0,0,0,0.1,0,0.1c0,0,0,1.3,0,1.3
					s0,0.1-0.1,0.1l-2,1.1c-0.1,0-0.2,0-0.3,0l-1.9-1.2c0,0,0,0,0-0.1C94,251.5,94,250.2,94,250.2z"/>
				<path class="st17" d="M94.1,250.1l2,1.3v1.4c0,0-0.1,0-0.1,0l-1.9-1.2c0,0,0,0,0-0.1C94,251.5,94,250.2,94.1,250.1
					C94,250.1,94,250.1,94.1,250.1z"/>
				<path class="st14" d="M96,251.4c0.1,0,0.2,0,0.3,0l2-1.1c0.1-0.1,0.1-0.1,0-0.2l-1.9-1.1c-0.1,0-0.2,0-0.3,0l-2,1.1
					c-0.1,0-0.1,0.1,0,0.2L96,251.4z"/>
				<path class="st16" d="M91,251.8C91,251.8,91,251.7,91,251.8l2.1-1.2c0.1,0,0.2,0,0.3,0l1.9,1.2c0,0,0,0,0.1,0.1c0,0,0,1.3,0,1.3
					c0,0,0,0.1-0.1,0.1l-2,1.1c-0.1,0-0.2,0-0.3,0l-2-1.2c0,0,0-0.1,0-0.1C91,253.1,91,251.8,91,251.8z"/>
				<path class="st17" d="M91.1,251.7l2,1.3v1.4c0,0-0.1,0-0.1,0l-1.9-1.2c0,0,0-0.1,0-0.1C91,253.1,91,251.8,91.1,251.7
					C91,251.8,91,251.7,91.1,251.7z"/>
				<path class="st14" d="M93,253c0.1,0,0.2,0,0.3,0l2-1.1c0.1,0,0.1-0.1,0-0.2l-1.9-1.2c-0.1,0-0.2,0-0.3,0l-2,1.1
					c-0.1,0-0.1,0.1,0,0.2L93,253z"/>
				<path class="st16" d="M88,253.4C88,253.4,88,253.4,88,253.4l2.1-1.2c0.1,0,0.2,0,0.3,0l1.9,1.2c0,0,0,0.1,0,0.1s0,1.3,0,1.3
					c0,0,0,0.1-0.1,0.1l-2,1.1c-0.1,0-0.2,0-0.3,0l-1.9-1.2c0,0,0-0.1,0-0.1C88,254.7,88,253.5,88,253.4z"/>
				<path class="st17" d="M88.1,253.3l2,1.3v1.4c0,0-0.1,0-0.1,0l-1.9-1.2c0,0,0-0.1,0-0.1c0,0,0-1.3,0-1.3S88.1,253.4,88.1,253.3z"
					/>
				<path class="st14" d="M90,254.7c0.1,0,0.2,0,0.3,0l2-1.1c0,0,0.1-0.1,0.1-0.1c0,0,0,0-0.1-0.1l-1.9-1.1c-0.1,0-0.2,0-0.3,0
					l-2,1.1c-0.1,0-0.1,0.1,0,0.2L90,254.7z"/>
				<path class="st16" d="M122.3,230C122.3,230,122.3,229.9,122.3,230l2.1-1.2c0.1,0,0.2,0,0.3,0l1.9,1.2c0,0,0,0.1,0,0.1
					c0,0,0,1.3,0,1.3c0,0,0,0.1-0.1,0.1l-2,1.1c-0.1,0-0.2,0-0.3,0l-1.9-1.2c0,0,0,0-0.1-0.1L122.3,230z"/>
				<path class="st17" d="M122.3,229.9l2,1.3v1.4c0,0-0.1,0-0.1,0l-1.9-1.2c0,0,0,0-0.1-0.1c0,0,0-1.3,0-1.3
					C122.3,229.9,122.3,229.9,122.3,229.9z"/>
				<path class="st14" d="M124.2,231.2c0.1,0,0.2,0,0.3,0l2-1.1c0.1-0.1,0.1-0.1,0-0.2l-1.9-1.2c-0.1,0-0.2,0-0.3,0l-2,1.1
					c-0.1,0-0.1,0.1,0,0.2L124.2,231.2z"/>
				<path class="st16" d="M119.3,231.6C119.3,231.6,119.3,231.5,119.3,231.6l2.1-1.2c0.1,0,0.2,0,0.3,0l1.9,1.2c0,0,0,0,0,0.1
					c0,0,0,1.3,0,1.3c0,0,0,0.1-0.1,0.1l-2,1.1c-0.1,0-0.2,0-0.3,0l-1.9-1.1c0,0,0-0.1,0-0.1C119.3,232.9,119.3,231.6,119.3,231.6z"
					/>
				<path class="st17" d="M119.4,231.5l2,1.3v1.4c0,0-0.1,0-0.1,0l-1.9-1.2c0,0,0-0.1,0-0.1c0,0,0-1.3,0-1.3
					S119.3,231.5,119.4,231.5z"/>
				<path class="st14" d="M121.2,232.8c0.1,0,0.2,0,0.3,0l2-1.1c0.1,0,0.1-0.1,0-0.2l-1.9-1.2c-0.1,0-0.2,0-0.3,0l-2,1.1
					c-0.1,0.1-0.1,0.1,0,0.2L121.2,232.8z"/>
				<path class="st16" d="M116.3,233.2C116.3,233.2,116.3,233.2,116.3,233.2l2.1-1.2c0.1,0,0.2,0,0.3,0l1.9,1.2c0,0,0,0.1,0,0.1
					s0,1.3,0,1.3c0,0,0,0.1-0.1,0.1l-2,1.1c-0.1,0-0.2,0-0.3,0l-1.9-1.2c0,0,0-0.1,0-0.1C116.3,234.5,116.3,233.3,116.3,233.2z"/>
				<path class="st17" d="M116.4,233.1l2,1.3v1.4c0,0-0.1,0-0.1,0l-1.9-1.2c0,0,0-0.1,0-0.1c0,0,0-1.3,0-1.3
					S116.3,233.2,116.4,233.1z"/>
				<path class="st14" d="M118.3,234.5c0.1,0,0.2,0,0.3,0l2-1.1c0,0,0.1-0.1,0.1-0.1c0,0,0,0-0.1-0.1l-1.9-1.2c-0.1,0-0.2,0-0.3,0
					l-2,1.1c-0.1,0.1-0.1,0.1,0,0.2L118.3,234.5z"/>
				<path class="st16" d="M113.3,234.9C113.3,234.8,113.4,234.8,113.3,234.9l2.1-1.2c0.1,0,0.2,0,0.3,0l1.9,1.2c0,0,0,0.1,0,0.1
					c0,0,0,1.3,0,1.3s0,0.1-0.1,0.1l-2,1.1c-0.1,0-0.2,0-0.3,0l-1.9-1.2c0,0,0-0.1,0-0.1C113.3,236.2,113.3,234.9,113.3,234.9z"/>
				<path class="st17" d="M113.4,234.8l2,1.3v1.4c0,0-0.1,0-0.1,0l-1.9-1.2c0,0,0-0.1,0-0.1c0,0,0-1.3,0-1.3
					C113.3,234.8,113.3,234.8,113.4,234.8z"/>
				<path class="st14" d="M115.3,236.1c0.1,0,0.2,0,0.3,0l2-1.1c0.1-0.1,0.1-0.1,0-0.2l-1.9-1.2c-0.1,0-0.2,0-0.3,0l-2,1.1
					c-0.1,0.1-0.1,0.1,0,0.2L115.3,236.1z"/>
				<path class="st16" d="M110.3,236.5C110.3,236.4,110.4,236.4,110.3,236.5l2.1-1.2c0.1,0,0.2,0,0.3,0l1.9,1.2c0,0,0,0.1,0,0.1
					c0,0,0,1.3,0,1.3s0,0.1-0.1,0.1l-2,1.1c-0.1,0-0.2,0-0.3,0l-1.9-1.2c0,0,0,0,0-0.1S110.3,236.5,110.3,236.5z"/>
				<path class="st17" d="M110.4,236.4l2,1.3v1.4c0,0-0.1,0-0.1,0l-1.9-1.2c0,0,0,0,0-0.1s0-1.3,0-1.3
					C110.4,236.5,110.4,236.4,110.4,236.4z"/>
				<path class="st14" d="M112.3,237.7c0.1,0,0.2,0,0.3,0l2.1-1.1c0.1,0,0.1-0.1,0-0.2l-1.9-1.2c-0.1,0-0.2,0-0.3,0l-2,1.1
					c-0.1,0.1-0.1,0.1,0,0.2L112.3,237.7z"/>
				<path class="st16" d="M107.3,238.1C107.3,238.1,107.4,238,107.3,238.1l2.1-1.2c0.1,0,0.2,0,0.3,0l1.9,1.2c0,0,0,0.1,0,0.1
					c0,0,0,1.3,0,1.3s0,0.1-0.1,0.1l-2,1.1c-0.1,0-0.2,0-0.3,0l-1.9-1.2c0,0,0,0,0-0.1C107.3,239.4,107.3,238.1,107.3,238.1z"/>
				<path class="st17" d="M107.4,238l2,1.3v1.4c0,0-0.1,0-0.1,0l-1.9-1.2c0,0,0,0,0-0.1c0,0,0-1.3,0-1.3
					C107.4,238.1,107.4,238,107.4,238z"/>
				<path class="st14" d="M109.3,239.3c0.1,0,0.2,0,0.3,0l2-1.1c0.1,0,0.1-0.1,0-0.2l-1.9-1.2c-0.1,0-0.2,0-0.3,0l-2,1.1
					c-0.1,0-0.1,0.1,0,0.2L109.3,239.3z"/>
				<path class="st16" d="M104.4,239.7C104.4,239.7,104.4,239.7,104.4,239.7l2.1-1.2c0.1,0,0.2,0,0.3,0l1.9,1.2c0,0,0,0,0,0.1
					c0,0,0,1.3,0,1.3c0,0,0,0.1-0.1,0.1l-2,1.1c-0.1,0-0.2,0-0.3,0l-1.9-1.2c0,0,0-0.1,0-0.1C104.4,241,104.4,239.8,104.4,239.7z"/>
				<path class="st17" d="M104.4,239.6l2,1.3v1.4c0,0-0.1,0-0.1,0l-1.9-1.2c0,0,0-0.1,0-0.1c0,0,0-1.3,0-1.3
					S104.4,239.7,104.4,239.6z"/>
				<path class="st14" d="M106.3,241c0.1,0,0.2,0,0.3,0l2.1-1.1c0.1,0,0.1-0.1,0-0.2l-1.9-1.2c-0.1,0-0.2,0-0.3,0l-2,1.1
					c-0.1,0.1-0.1,0.1,0,0.2L106.3,241z"/>
				<path class="st16" d="M101.4,241.4C101.4,241.4,101.4,241.3,101.4,241.4l2.1-1.2c0.1,0,0.2,0,0.3,0l1.9,1.1c0,0,0,0.1,0,0.1
					s0,1.3,0,1.3c0,0,0,0.1-0.1,0.1l-2,1.1c-0.1,0-0.2,0-0.3,0l-1.9-1.2c0,0,0-0.1,0-0.1C101.4,242.7,101.4,241.4,101.4,241.4z"/>
				<path class="st17" d="M101.4,241.3l2,1.3v1.4c0,0-0.1,0-0.1,0l-1.9-1.2c0,0,0-0.1,0-0.1c0,0,0-1.3,0-1.3
					S101.4,241.3,101.4,241.3z"/>
				<path class="st14" d="M103.3,242.6c0.1,0,0.2,0,0.3,0l2-1.1c0.1,0,0.1-0.1,0-0.2l-1.9-1.1c-0.1,0-0.2,0-0.3,0l-2,1.1
					c-0.1,0-0.1,0.1,0,0.2L103.3,242.6z"/>
				<path class="st16" d="M98.4,243C98.4,243,98.4,242.9,98.4,243l2.1-1.2c0.1,0,0.2,0,0.3,0l1.9,1.2c0,0,0,0.1,0,0.1
					c0,0,0,1.3,0,1.3s0,0.1-0.1,0.1l-2,1.1c-0.1,0-0.2,0-0.3,0l-1.9-1.2c0,0,0-0.1,0-0.1L98.4,243z"/>
				<path class="st17" d="M98.5,242.9l2,1.3v1.4c0,0-0.1,0-0.1,0l-1.9-1.2c0,0,0-0.1,0-0.1c0,0,0-1.3,0-1.3S98.4,242.9,98.5,242.9z"
					/>
				<path class="st14" d="M100.3,244.2c0.1,0,0.2,0,0.3,0l2.1-1.1c0.1-0.1,0.1-0.1,0-0.2l-1.9-1.2c-0.1,0-0.2,0-0.3,0l-2.1,1.1
					c-0.1,0-0.1,0.1,0,0.2L100.3,244.2z"/>
				<path class="st16" d="M95.4,244.6C95.4,244.6,95.4,244.5,95.4,244.6l2.1-1.2c0.1,0,0.2,0,0.3,0l1.9,1.2c0,0,0.1,0,0.1,0.1
					c0,0,0,1.3,0,1.3s0,0.1-0.1,0.1l-2,1.1c-0.1,0-0.2,0-0.3,0l-1.9-1.2c0,0,0,0,0-0.1S95.4,244.6,95.4,244.6z"/>
				<path class="st17" d="M95.5,244.5l2,1.3v1.4c0,0-0.1,0-0.1,0l-1.9-1.2c0,0,0,0,0-0.1S95.4,244.6,95.5,244.5
					C95.4,244.6,95.4,244.5,95.5,244.5z"/>
				<path class="st14" d="M97.4,245.9c0.1,0,0.2,0,0.3,0l2-1.1c0.1-0.1,0.1-0.1,0-0.2l-1.9-1.2c-0.1,0-0.2,0-0.3,0l-2,1.1
					c-0.1,0.1-0.1,0.1,0,0.2L97.4,245.9z"/>
				<path class="st16" d="M92.4,246.3C92.4,246.2,92.5,246.2,92.4,246.3l2.1-1.2c0.1,0,0.2,0,0.3,0l1.9,1.2c0,0,0,0.1,0,0.1
					c0,0,0,1.3,0,1.3s0,0.1-0.1,0.1l-2,1.1c-0.1,0-0.2,0-0.3,0l-1.9-1.2c0,0,0,0,0-0.1C92.4,247.6,92.4,246.3,92.4,246.3z"/>
				<path class="st17" d="M92.5,246.2l2,1.3v1.4c0,0-0.1,0-0.1,0l-1.9-1.2c0,0,0,0,0-0.1c0,0,0-1.3,0-1.3
					C92.4,246.2,92.5,246.2,92.5,246.2z"/>
				<path class="st14" d="M94.4,247.5c0.1,0,0.2,0,0.3,0l2-1.1c0.1-0.1,0.1-0.1,0-0.2l-1.8-1.2c-0.1,0-0.2,0-0.3,0l-2,1.1
					c-0.1,0-0.1,0.1,0,0.2L94.4,247.5z"/>
				<path class="st16" d="M89.4,247.9c0,0,0-0.1,0.1-0.1l2-1.1c0.1,0,0.2,0,0.3,0l1.9,1.2c0,0,0,0,0.1,0.1c0,0,0,1.3,0,1.3
					c0,0,0,0.1-0.1,0.1l-2,1.1c-0.1,0-0.2,0-0.3,0l-1.9-1.2c0,0,0-0.1,0-0.1C89.5,249.2,89.4,247.9,89.4,247.9z"/>
				<path class="st17" d="M89.5,247.8l2,1.3v1.4c0,0-0.1,0-0.1,0l-1.9-1.2c0,0,0-0.1,0-0.1c0,0,0-1.3,0-1.3S89.5,247.8,89.5,247.8z"
					/>
				<path class="st14" d="M91.4,249.1c0.1,0,0.2,0,0.3,0l2-1.1c0.1-0.1,0.1-0.1,0-0.2l-1.9-1.2c-0.1,0-0.2,0-0.3,0l-2,1.1
					c-0.1,0.1-0.1,0.1,0,0.2L91.4,249.1z"/>
				<path class="st16" d="M86.4,249.5C86.4,249.5,86.4,249.4,86.4,249.5l2.1-1.2c0.1,0,0.2,0,0.3,0l1.9,1.1c0,0,0,0.1,0,0.1
					s0,1.3,0,1.3c0,0,0,0.1-0.1,0.1l-2,1.1c-0.1,0-0.2,0-0.3,0l-1.9-1.2c0,0,0-0.1,0-0.1C86.5,250.8,86.4,249.5,86.4,249.5z"/>
				<path class="st17" d="M86.5,249.4l2,1.3v1.4c0,0-0.1,0-0.1,0l-1.9-1.2c0,0,0-0.1,0-0.1c0,0,0-1.3,0-1.3S86.5,249.4,86.5,249.4z"
					/>
				<path class="st14" d="M88.4,250.7c0.1,0,0.2,0,0.3,0l2-1.1c0,0,0.1-0.1,0.1-0.1c0,0,0,0-0.1-0.1l-1.9-1.1c-0.1,0-0.2,0-0.3,0
					l-2,1.1c-0.1,0.1-0.1,0.1,0,0.2L88.4,250.7z"/>
				<path class="st16" d="M82.1,251.9C82.1,251.9,82.1,251.8,82.1,251.9l3.5-2c0.1,0,0.2,0,0.3,0l1.9,1.2c0,0,0,0.1,0,0.1
					c0,0,0,1.3,0,1.3s0,0.1-0.1,0.1l-3.4,1.9c-0.1,0-0.2,0-0.3,0l-1.9-1.2c0,0-0.1,0,0-0.1S82.1,251.9,82.1,251.9z"/>
				<path class="st17" d="M82.1,251.8l2,1.3v1.4c0,0-0.1,0-0.1,0l-1.9-1.2c0,0-0.1,0,0-0.1s0-1.3,0-1.3S82.1,251.8,82.1,251.8z"/>
				<path class="st14" d="M84,253.1c0.1,0,0.2,0,0.3,0l3.4-1.9c0.1-0.1,0.1-0.1,0-0.2l-1.9-1.2c-0.1,0-0.2,0-0.3,0l-3.4,1.9
					c-0.1,0.1-0.1,0.1,0,0.2L84,253.1z"/>
			</g>
			<path class="st17" d="M49.4,228.6c0-0.4,0.3-0.7,0.8-0.7c0,0,0,0,0,0c0.9,0,2.5,0.1,4.7,0.1c3,0.1,6-0.2,7.2-1.3s2.7-0.7,3.8,0.8
				s1.6,2.3-0.2,2.3l-15.6-0.4C49.7,229.3,49.4,229,49.4,228.6z"/>
		</g>
	</g>
</g>
<g id="freepik--Character--inject-39">
	<g id="freepik--character--inject-39">
		<g id="freepik--Chair--inject-39">
			<path class="st17" d="M310.9,347.5l-8.9-74.3l-7.3-0.4l12.5,74.6l0,0c0.1,0.3,0.2,0.5,0.5,0.6c0.8,0.5,1.8,0.5,2.6,0.1
				C310.6,348.1,310.9,347.8,310.9,347.5L310.9,347.5z"/>
			<path class="st17" d="M302,273.2l-7.3-0.4l2.1,14.1c1.5-0.5,2.9-1.2,4.3-2c0.8-0.3,1.5-0.9,1.9-1.6L302,273.2z"/>
			<path class="st16" d="M205.3,262.3H198l-10.6,70.2l0,0c0,0.3,0.2,0.7,0.5,0.8c0.8,0.4,1.8,0.4,2.6,0c0.3-0.1,0.4-0.4,0.5-0.6l0,0
				L205.3,262.3z"/>
			<path class="st17" d="M198,262.3l-3,19.6c1.7,1.4,3.6,2.5,5.6,3.4l4.6-23H198z"/>
			<path class="st16" d="M262.2,372.4l-6.8-75.6l-7.3-0.4l10.5,75.9l0,0c0.1,0.3,0.2,0.5,0.5,0.6c0.8,0.5,1.8,0.5,2.6,0.1
				C261.9,373.1,262.2,372.7,262.2,372.4L262.2,372.4z"/>
			<path class="st17" d="M256.3,307.7l-0.9-10.9l-7.3-0.4l1.5,11.7C251.8,308.6,254.1,308.5,256.3,307.7z"/>
			<path class="st17" d="M245.1,239.2h-7.3l-10.6,70.1l0,0c0,0.3,0.2,0.7,0.5,0.8c0.8,0.4,1.8,0.4,2.6,0c0.3-0.1,0.4-0.3,0.5-0.6
				l0,0L245.1,239.2z"/>
			<g id="freepik--chair--inject-39">
				<path class="st7" d="M184.5,177.4c-1.7,4.1-2.6,8.4-2.9,12.8c-0.8,9.8,2.3,46,4.3,60.2l0,0c2.9,23.7,6.4,23.8,11.6,27.7
					c8.8,6.8,34.3,20.2,42.7,23.5c15.2,6,27.7-3.3,36.9-7.8c8.5-4.3,16.7-9.2,24.6-14.5c2.3-1.7,3.5-3.4,3.5-5.2c0-0.7,0-3.6,0-4.4
					c0-2.3-2-4.7-6.3-7.5c-7.9-5.1-36.3-21.7-47.3-27.8c0,0,0-0.1-0.1-0.1c-8.5-5.1-13.4-44.6-19.3-63.2c-0.1-0.4-0.3-0.8-0.4-1.2
					s-0.2-0.6-0.3-0.9c-0.4-1-0.8-1.9-1.2-2.8"/>
				<path class="st7" d="M305.1,269.7c0-2.3-2-4.7-6.3-7.5c-7.9-5.1-36.3-21.7-47.3-27.8c0,0,0-0.1-0.1-0.1
					c-8.5-5.1-13.4-44.6-19.3-63.2c-0.3-1.2-0.8-2.3-1.2-3.4c0-0.1-0.1-0.2-0.1-0.3l-0.3-0.8c-0.1-0.1-0.1-0.3-0.2-0.4l0,0
					c-0.9-2.1-2.3-4-3.9-5.7c-0.6-0.5-1.2-1-1.9-1.4l-3.4-1.9c-5.8-3.4-13.3,0.7-22.7,5.8c-5.9,3.2-10.8,7-13.9,14.1l0,0
					c-1.7,4.1-2.6,8.4-2.9,12.8c-0.8,9.8,2.3,46,4.3,60.2l0,0c2.9,23.7,6.4,23.8,11.6,27.7c8.8,6.8,34.3,20.2,42.7,23.5
					c15.2,6,27.7-3.3,36.9-7.8c8.5-4.3,16.7-9.2,24.6-14.5c2.3-1.7,3.5-3.4,3.5-5.2C305.1,273.4,305.1,270.4,305.1,269.7z"/>
				<path class="st18" d="M305.1,269.7c0-2.3-2-4.7-6.3-7.5c-7.9-5.1-36.3-21.7-47.3-27.8c0,0,0-0.1-0.1-0.1
					c-8.5-5.1-13.4-44.6-19.3-63.2c-0.3-1.2-0.8-2.3-1.2-3.4c0-0.1-0.1-0.2-0.1-0.3l-0.3-0.8c-0.1-0.1-0.1-0.3-0.2-0.4l0,0
					c-0.9-2.1-2.3-4-3.9-5.7c-0.6-0.5-1.2-1-1.9-1.4l-3.4-1.9c-5.8-3.4-13.3,0.7-22.7,5.8c-5.9,3.2-10.8,7-13.9,14.1l0,0
					c-1.7,4.1-2.6,8.4-2.9,12.8c-0.8,9.8,2.3,46,4.3,60.2l0,0c2.9,23.7,6.4,23.8,11.6,27.7c8.8,6.8,34.3,20.2,42.7,23.5
					c15.2,6,27.7-3.3,36.9-7.8c8.5-4.3,16.7-9.2,24.6-14.5c2.3-1.7,3.5-3.4,3.5-5.2C305.1,273.4,305.1,270.4,305.1,269.7z"/>
				<path class="st7" d="M277,289.4c8.5-4.3,16.7-9.2,24.6-14.6c5.3-3.8,4.8-7.8-2.8-12.6c-10.5-6.8-53.3-31.1-53.3-31.1
					s-54.1,31.9-51.8,37.8s35.8,24.1,46.4,28.3C255.3,303.2,267.8,294,277,289.4z"/>
				<path class="st8" d="M277,289.4c8.5-4.3,16.7-9.2,24.6-14.6c5.3-3.8,4.8-7.8-2.8-12.6c-10.5-6.8-53.3-31.1-53.3-31.1
					s-54.1,31.9-51.8,37.8s35.8,24.1,46.4,28.3C255.3,303.2,267.8,294,277,289.4z"/>
				<path class="st7" d="M224.5,159.3c-5.7-3-13.1,1.1-22.3,6.1c-5.9,3.2-10.9,7-13.9,14.2l-3.9-2.2c3-7.1,8-10.9,13.9-14.1
					c9.4-5.1,16.9-9.3,22.7-5.8L224.5,159.3z"/>
				<path class="st19" d="M224.5,159.3c-5.7-3-13.1,1.1-22.3,6.1c-5.9,3.2-10.9,7-13.9,14.2l-3.9-2.2c3-7.1,8-10.9,13.9-14.1
					c9.4-5.1,16.9-9.3,22.7-5.8L224.5,159.3z"/>
				<path class="st7" d="M232.2,171.1c-0.1-0.4-2.1-7.2-5.8-10.5c-1.7-1.5-3.9-2.4-6.2-2.4c-5,0-10.9,3.3-17.9,7.1
					c-0.6,0.3-1.2,0.6-1.7,1l-0.6,0.4l-0.8,0.5c-0.2,0.1-0.4,0.2-0.6,0.4c-1.2,0.8-2.4,1.7-3.5,2.7c-0.2,0.1-0.4,0.3-0.5,0.5
					c-0.7,0.7-1.4,1.3-2,2.1c-0.1,0.1-0.2,0.3-0.3,0.4l-0.4,0.5c-0.1,0.2-0.3,0.3-0.4,0.5s-0.3,0.3-0.4,0.5c-0.5,0.7-1,1.5-1.4,2.2
					c-0.1,0.1-0.1,0.2-0.2,0.3s-0.2,0.4-0.3,0.6l-0.4,0.9c-1.8,4.3-2.9,8.8-3.2,13.4c-1.4,16.1,4,73.8,9.6,78.4
					c0,0-0.9-5.2,10.3-12.2c7.6-4.8,12.9-8.8,21-12.7c19.7-9.7,25.2-11.5,25.2-11.5C243,229.2,238.1,189.7,232.2,171.1z"/>
				<path class="st20" d="M232.2,171.1c-0.1-0.4-2.1-7.2-5.8-10.5c-1.7-1.5-3.9-2.4-6.2-2.4c-5,0-10.9,3.3-17.9,7.1
					c-0.6,0.3-1.2,0.6-1.7,1l-0.6,0.4l-0.8,0.5c-0.2,0.1-0.4,0.2-0.6,0.4c-1.2,0.8-2.4,1.7-3.5,2.7c-0.2,0.1-0.4,0.3-0.5,0.5
					c-0.7,0.7-1.4,1.3-2,2.1c-0.1,0.1-0.2,0.3-0.3,0.4l-0.4,0.5c-0.1,0.2-0.3,0.3-0.4,0.5s-0.3,0.3-0.4,0.5c-0.5,0.7-1,1.5-1.4,2.2
					c-0.1,0.1-0.1,0.2-0.2,0.3s-0.2,0.4-0.3,0.6l-0.4,0.9c-1.8,4.3-2.9,8.8-3.2,13.4c-1.4,16.1,4,73.8,9.6,78.4
					c0,0-0.9-5.2,10.3-12.2c7.6-4.8,12.9-8.8,21-12.7c19.7-9.7,25.2-11.5,25.2-11.5C243,229.2,238.1,189.7,232.2,171.1z"/>
			</g>
		</g>
		<g id="freepik--Legs--inject-39">
			<path class="st21" d="M293.9,344.9c0.3-10.4,10-36.4,10-36.4L286,295.4c0,0-1.5,6.4-3.5,15.1s-4.3,12-4.3,12s-4,4.2-4.2,7.1
				s1.7,10,2.8,15.4s1.6,9.5,4.3,14.9c2.6,5.2,15.9,10.4,15.6,5.2C296.3,357.8,293.9,353.4,293.9,344.9z"/>
			<path class="st16" d="M278.2,322.5c-1.1-0.2-2.6,1.6-3.7,3s-3.5,2.2-3.5,5.8s3,6.6,3.1,11.6s-0.5,13.4,6.1,20s14.1,7.9,17,6.6
				c0.9-0.4,1.6-1.1,1.9-2c0.3-0.8,0.2-1.6-0.2-2.3c-0.7-1.9-1.3-3.8-1.8-5.8c-1.1-4-2-8-2.5-12.1c-0.3-2.6-0.1-5.1-0.7-5.5
				c-2-1.5-2.9-1.7-5.2-2.2c-2.8-0.7-4.4-0.7-4.8-0.5c-0.6,0.3-0.5,1.1-0.6,1.7l-0.5,2.5c0,0.2-0.1,0.4-0.2,0.5
				c-0.1,0.2-0.3,0.3-0.5,0.2c-0.2-0.1-0.3-0.3-0.4-0.5c-1.1-3-1.2-6.2-1.7-9.3c-0.3-1.9-0.7-3.8-1.4-5.6c-0.4-1.2-1-2.8-1.2-3.9
				c-0.2-0.5-0.1-1.1,0.1-1.6L278.2,322.5z"/>
			<path class="st21" d="M308.5,346.8c0,0,6.2,14.2,9.7,19.4c3.5,5.5,7.9,10.4,13,14.5c1.2,0.9,3.8,2.6,4.7,3.3
				c0.8,0.5,1.1,1.6,0.5,2.4c-0.1,0.1-0.1,0.2-0.2,0.3c-1.6,2.3-9.8,4.3-15.1,1.7s-11.2-8.3-14.5-10.6c-1.7-1.1-3.2-2.2-4.4-3
				s-1-1.3-1-2.6l-0.6-2.1c-0.9-4.4-7.7-13.9-7.7-13.9L308.5,346.8z"/>
			<path class="st16" d="M300.7,370c-1,0.6-0.9,3-0.8,4.7s-1.2,4,1.3,6.6s6.6,3,10,6.6s8.5,10.4,17.8,11s15.8-3.4,17.1-6.3
				c0.4-0.9,0.4-1.8,0.1-2.7c-0.3-0.9-0.9-1.1-1.7-1.6c-1.8-1-3.5-2-5.1-3.1c-3.5-2.2-6.8-4.7-9.9-7.5c-1.9-1.8-3.4-3.7-4.2-3.7
				c-2.5,0.1-3.3,0.6-5.4,1.8c-2.5,1.3-3.8,2.3-4,2.8c-0.3,0.6,0.3,1.2,0.7,1.7l1.3,2.1c0.1,0.2,0.2,0.3,0.2,0.5
				c0,0.2-0.1,0.4-0.2,0.5c-0.2,0.1-0.4,0-0.6-0.1c-2.8-1.5-5-3.8-7.4-5.9c-1.3-1.2-2.7-2.2-4.2-3.1c-1.1-0.6-2.4-1.3-3.5-1.9
				c-0.8-0.5-1.1-0.7-1.2-1L300.7,370z"/>
			<path class="st7" d="M303.3,323.1c1.6-7.1,4-17.9,5.5-25.1c2.4-11.5,4.2-23.6,2.4-28.9c-1.7-5-11.7-12-22.2-19.1
				s-29.3-18.4-29.3-18.4l-58.4,0.3c-1.6,4.7-2.9,19.6,1.7,28.7c4.4,8.8,15.7,15.6,28.5,23.2c11.5,6.8,25.3,14.1,28.3,15.8
				c3.8,2.2,7.4,3.9,8.9,10.1c1.5,5.9,3.3,16.2,10,28.8l14.6,27.2c0,0,13.4,2.1,21.2-8.1C314.5,357.5,309.1,340.8,303.3,323.1z"/>
			<path class="st22" d="M303.3,323.1c1.6-7.1,4-17.9,5.5-25.1c2.4-11.5,4.2-23.6,2.4-28.9c-1.7-5-11.7-12-22.2-19.1
				s-29.3-18.4-29.3-18.4l-58.4,0.3c-1.6,4.7-2.9,19.6,1.7,28.7c4.4,8.8,15.7,15.6,28.5,23.2c11.5,6.8,25.3,14.1,28.3,15.8
				c3.8,2.2,7.4,3.9,8.9,10.1c1.5,5.9,3.3,16.2,10,28.8l14.6,27.2c0,0,13.4,2.1,21.2-8.1C314.5,357.5,309.1,340.8,303.3,323.1z"/>
			<path class="st23" d="M301.9,318.9c-5.5-16.6-11.1-33.1-12.7-36.6c-3.5-7.5-34.8-29.4-35.8-30.1l0,0l1.6-2.1
				c1.7-2.5,2.9-5.3,3.5-8.3c0.1,3.3-0.6,6.5-1.8,9.6c4.8,3.5,17.1,12.4,22,16.2c6.2,4.7,12.7,10.4,15.1,18.2
				C295.5,291.5,299.8,309.8,301.9,318.9z"/>
			<path class="st24" d="M301.9,318.9c-5.5-16.6-11.1-33.1-12.7-36.6c-3.5-7.5-34.8-29.4-35.8-30.1l0,0l1.6-2.1
				c1.7-2.5,2.9-5.3,3.5-8.3c0.1,3.3-0.6,6.5-1.8,9.6c4.8,3.5,17.1,12.4,22,16.2c6.2,4.7,12.7,10.4,15.1,18.2
				C295.5,291.5,299.8,309.8,301.9,318.9z"/>
			<path class="st7" d="M290,360l2.8,5.9c0,0,16,3.2,22.3-8.3l-2-5.8C310,358.3,297.8,362,290,360z"/>
			<path class="st25" d="M290,360l2.8,5.9c0,0,16,3.2,22.3-8.3l-2-5.8C310,358.3,297.8,362,290,360z"/>
		</g>
		<g id="freepik--Desk--inject-39">
			<polygon class="st17" points="289,360.7 289,454.5 285.5,452.5 285.5,358.6 			"/>
			<polygon class="st16" points="289,360.7 289,454.5 292.5,452.5 292.5,358.6 			"/>
			<polygon class="st17" points="189.3,303 189.3,396.8 185.8,394.8 185.8,301 			"/>
			<polygon class="st16" points="189.3,303 189.3,396.8 192.8,394.8 192.8,301 			"/>
			<polygon class="st17" points="459.9,262 459.9,355.9 456.4,353.8 456.4,260 			"/>
			<polygon class="st16" points="459.9,262 459.9,355.9 463.4,353.8 463.4,260 			"/>
			<polygon class="st16" points="289,354.4 289,367 185.8,307.2 185.8,294.7 			"/>
			<polygon class="st14" points="289,367 463.4,266.3 463.4,253.7 289,354.4 			"/>
			<g id="freepik--desk--inject-39">
				<polygon class="st7" points="289.6,352 181.6,289.7 359.5,187.4 467.5,249.7 				"/>
				<g class="st26">
					<polygon class="st5" points="289.6,352 181.6,289.7 359.5,187.4 467.5,249.7 					"/>
				</g>
				<polygon class="st7" points="181.6,289.7 181.6,298.6 289.6,360.9 289.6,352 				"/>
				<g class="st27">
					<polygon class="st5" points="181.6,289.7 181.6,298.6 289.6,360.9 289.6,352 					"/>
				</g>
				<polygon class="st7" points="289.6,360.9 467.5,258.6 467.5,249.7 289.6,352 				"/>
				<g class="st28">
					<polygon class="st5" points="289.6,360.9 467.5,258.6 467.5,249.7 289.6,352 					"/>
				</g>
			</g>
		</g>
		<g id="freepik--Book--inject-39">
			<g id="freepik--shadow--inject-39_5_" class="st29">
				<path d="M249.5,264.2l51.7,29.8c0.9,0.5,2,0.5,2.9,0l79.2-45.7c0.5-0.2,0.7-0.7,0.5-1.1c-0.1-0.3-0.3-0.5-0.5-0.5l-51.7-29.8
					c-0.9-0.5-2-0.5-2.9,0l-79.2,45.7c-0.5,0-0.9,0.4-0.9,0.9C248.6,263.8,249,264.2,249.5,264.2z"/>
			</g>
			<g id="freepik--book--inject-39">
				<polygon class="st7" points="302.4,291 379.8,246.3 330.3,217.8 252.9,262.5 				"/>
				<polygon class="st30" points="302.4,291 379.8,246.3 330.3,217.8 252.9,262.5 				"/>
				<path class="st0" d="M340.1,268.1v-1.4c0-1.7,3-6.6,6.8-8.8l30.8-17.8v6.2L340.1,268.1z"/>
				<path class="st3" d="M377.6,240.2L346.9,258c-3.8,2.2-6.9,7.1-6.8,8.8v1.4l-47.3-27.3l0,0v-1.4c0-1.7,3-6.6,6.8-8.8l30.7-17.7
					l0,0L377.6,240.2z"/>
				<path class="st3" d="M377.6,240.2L346.9,258c-3.8,2.2-6.9,7.1-6.8,8.8v1.4l-47.3-27.3l0,0v-1.4c0-1.7,3-6.6,6.8-8.8l30.8-17.8
					L377.6,240.2z"/>
				<path class="st6" d="M340.1,266.8l-3-1.7l-3.9-2.3c1.6-0.3,3.3,0,4.8,0.7C339.2,264.2,340,265.4,340.1,266.8z"/>
				<path class="st1" d="M340.1,266.8l-3-1.7l-3.9-2.3c1.6-0.3,3.3,0,4.8,0.7C339.2,264.2,340,265.4,340.1,266.8z"/>
				<polygon class="st7" points="302.4,292.3 302.4,291 252.9,262.5 252.9,263.8 				"/>
				<polygon class="st22" points="302.4,292.3 302.4,291 252.9,262.5 252.9,263.8 				"/>
				<polygon class="st7" points="302.4,292.3 379.8,247.6 379.8,246.3 302.4,291 				"/>
				<path class="st0" d="M340.1,266.8c0-1.7-3.1-3.1-6.9-0.9l-30.7,17.6v6.4l37.7-21.8C340.1,268.1,340.1,268.5,340.1,266.8z"/>
				<polygon class="st2" points="302.4,289.9 302.4,283.5 255.1,256.2 255.1,262.5 				"/>
				<path class="st3" d="M333.1,265.9l-1.4,0.8l-29.4,16.8l-41.8-24.1l-5.5-3.2l30.7-17.6c2.8-1.6,4.4-1.5,5.4-0.9l0,0l48,27.7
					C337.5,264.4,335.5,264.6,333.1,265.9z"/>
				<path class="st11" d="M333.4,264.2c-0.6,0-1.8,0.4-2.4,0.6c-2.8,0.6-7.7,2.9-12.5,5.3c-6.3,3.2-12.3,6.5-12.3,6.5l-43.3-25
					l22.8-13.1c0.9-0.5,1.8-0.9,2.8-1.2c0.7,0.1,1.4,0.3,2,0.7l0.3-0.5c0.1,0,0.2,0.1,0.3,0.2l48,27.7
					C337.6,264.2,335.4,263.8,333.4,264.2z"/>
				<polygon class="st4" points="302.4,284.9 307,282.5 302.4,285.3 297.7,282.6 				"/>
				<polygon class="st4" points="302.4,288.1 311,283.1 302.4,287.7 292.7,282.5 				"/>
				<polygon class="st4" points="255.1,257.6 262.3,261.9 255.1,258.3 				"/>
				<polygon class="st4" points="255.1,260.1 265.8,266.6 255.1,260.6 				"/>
				<path class="st0" d="M333.2,262.9c-0.6,0.1-1.2,0.2-1.8,0.3c-2.8,0.6-7.7,2.9-12.5,5.2c-6.3,3.2-12.3,6.5-12.3,6.5l-47.3-27.3
					c0,0,18-10.4,25.1-11.7c3.3-0.6,5.4-0.2,6.6,0.5l0,0l47,27.1C336.5,262.8,334.9,262.6,333.2,262.9z"/>
				<path class="st1" d="M342.5,255.4c-1.5,0.9-2.7,2-3.8,3.3l-1-0.6c1.1-1.3,2.4-2.4,3.8-3.3L369,239l1,0.6L342.5,255.4z"/>
				<path class="st1" d="M342.5,255.4c-1.5,0.9-2.7,2-3.8,3.3l-1-0.6c1.1-1.3,2.4-2.4,3.8-3.3L369,239l1,0.6L342.5,255.4z"/>
				<path class="st1" d="M340,254c-1.4,0.9-2.7,2-3.8,3.3l-1-0.6c1.1-1.3,2.4-2.4,3.8-3.3l27.6-15.9l1,0.6L340,254z"/>
				<path class="st1" d="M337.6,252.6c-1.4,0.9-2.7,2-3.8,3.3l-1-0.6c1.1-1.3,2.4-2.4,3.8-3.3l27.6-15.9l1,0.6L337.6,252.6z"/>
				<path class="st1" d="M335.2,251.2c-1.4,0.9-2.7,2-3.8,3.3l-1-0.6c1.1-1.3,2.4-2.4,3.8-3.3l27.6-15.9l1,0.6L335.2,251.2z"/>
				<path class="st1" d="M332.8,249.8c-1.4,0.9-2.7,2-3.8,3.3l-1-0.6c1.1-1.3,2.4-2.4,3.8-3.3l27.6-15.9l1,0.6L332.8,249.8z"/>
				<path class="st1" d="M330.4,248.4c-1.4,0.9-2.7,2-3.8,3.3l-1-0.6c1.1-1.3,2.4-2.4,3.8-3.3L357,232l1,0.6L330.4,248.4z"/>
				<path class="st1" d="M328,247c-1.4,0.9-2.7,2-3.8,3.3l-1-0.6c1.1-1.3,2.4-2.4,3.8-3.3l27.6-15.9l1,0.6L328,247z"/>
				<path class="st1" d="M325.5,245.6c-1.4,0.9-2.7,2-3.8,3.3l-1-0.6c1.1-1.3,2.4-2.4,3.8-3.3l27.6-15.9l1,0.6L325.5,245.6z"/>
				<path class="st1" d="M323.1,244.2c-1.4,0.9-2.7,2-3.8,3.3l-1-0.6c1.1-1.3,2.4-2.4,3.8-3.3l27.6-15.9l1,0.6L323.1,244.2z"/>
				<path class="st1" d="M320.7,242.8c-1.5,0.9-2.7,2-3.8,3.3l-1-0.6c1.1-1.3,2.4-2.4,3.8-3.3l27.6-15.9l1,0.6L320.7,242.8z"/>
				<path class="st1" d="M318.3,241.4c-1.4,0.9-2.7,2-3.8,3.3l-1-0.6c1.1-1.3,2.4-2.4,3.8-3.3l27.6-15.9l1,0.6L318.3,241.4z"/>
				<path class="st1" d="M315.9,240c-1.4,0.9-2.7,2-3.8,3.3l-1-0.6c1.1-1.3,2.4-2.4,3.8-3.3l27.6-15.9l1,0.6L315.9,240z"/>
				<polygon class="st4" points="371.2,245.6 377.6,242.2 377.6,241.7 				"/>
				<polygon class="st4" points="377.6,244.1 366.9,250.1 377.6,243.7 				"/>
				<path class="st31" d="M266.7,243.6c5.8-3.1,13.6-6.9,17.7-7.7c3.3-0.6,5.4-0.2,6.6,0.5l0,0l47,27.1c-1.5-0.7-3.2-1-4.8-0.7
					c0,0-23.2-14.2-38.2-19C285.8,240.9,276,240.9,266.7,243.6z"/>
			</g>
		</g>
		<g id="freepik--Arm--inject-39">
			<path class="st21" d="M331.7,197.1c-1.6-1.2-3.4-2.1-5.3-2.4c-3,0-4.7-0.4-7,0.5c-4.3,1.5-6.4,1.8-13.8,0.8l-24.3-4.4
				c0,0-8.1-9.1-14.3-16c-9.2-10.3-14.2-15.6-23.4-14.8c0,0,0.4,16.2,7.1,27.8c0,0,16,14.9,19.8,18.3c2.4,2.1,5.1,3.9,10.9,4.3
				c8.7,0.6,19.5,0.4,27.6,0.5c3.9,0,7.9,0.4,11.7,1c4.1,0.4,7,2.2,12.2,1.7C341.5,213.6,336.3,201.2,331.7,197.1z"/>
			<path class="st32" d="M326.5,203.5l4.9,10.9c-0.4-0.1-0.8-0.1-1.1,0c0,0-2-3.6-3.2-5.6c-1-1.8-2.2-4.1-2.2-4.1s-3.8-2.4-4.9-4.5
				S326.5,203.5,326.5,203.5z"/>
			<path class="st33" d="M338.8,217.4l0.8,7.8c0,0.1-0.1,0.2-0.2,0.3c-0.1,0-0.1,0-0.2-0.1l-5.3-5.7L338.8,217.4z"/>
			<path class="st17" d="M339.1,225.4c0.1,0.1,0.2,0.1,0.3,0c0.1-0.1,0.1-0.1,0.1-0.2l-0.1-1.5l0,0c-0.3,0.4-0.8,0.6-1.3,0.5h-0.1
				L339.1,225.4z"/>
			<path class="st7" d="M320.3,189.7l0.3,0.7l0.4,0.8l12.8,28.5c0.8,0.3,1.7,0.3,2.5,0c1.1-0.3,2.1-1.1,2.5-2.2L325.9,189l-0.7-1.5
				C325.6,188.5,320.7,190.7,320.3,189.7z"/>
			<path class="st2" d="M321.4,192.2l0.7,1.5c0.2,0.4,1.2,0.3,2.3-0.1c1.4-0.5,2.9-1.6,2.7-2.2l-0.5-1.1l-0.2-0.4
				c0.2,0.6-1.2,1.7-2.7,2.2C322.6,192.5,321.7,192.6,321.4,192.2L321.4,192.2C321.4,192.2,321.4,192.2,321.4,192.2z"/>
			<path class="st7" d="M321.5,192.6c0.4,1,5.4-1.3,5-2.3l-0.7-1.5c0.4,1-4.5,3.3-5,2.3L321.5,192.6z"/>
			<path class="st2" d="M320.3,189.7l0.6,1.4c0.4,1,5.2-1.2,5-2.2c0,0,0,0,0-0.1l-0.7-1.5C325.6,188.5,320.7,190.7,320.3,189.7z"/>
			<path class="st30" d="M339.3,225.4l0.2-0.3l-2.5-5.8l-13.6-30.1c0.1-0.1,0.1-0.1,0-0.1c-1.4,0.7-3,1.1-3.2,0.6l0.3,0.7l0.4,0.8
				l12.8,28.5l0,0l5.3,5.7C339.1,225.5,339.2,225.5,339.3,225.4z"/>
			<path class="st33" d="M317.5,183.5l2.8,6.2c0.2,0.4,1.2,0.3,2.3-0.1c1.5-0.5,2.9-1.6,2.7-2.2l0,0l-2.8-6.2
				c-0.5-1.2-3.2-0.4-4.4,0.8C317.5,182.4,317.3,183,317.5,183.5z"/>
			<path class="st11" d="M319.3,184.1c1.3-0.2,2.5-1,3.1-2.1c0.1-0.3,0.1-0.6,0-0.9c-0.7-1-3.1-0.2-4.3,1c-0.5,0.3-0.7,0.9-0.5,1.5
				C317.7,184,318.4,184.2,319.3,184.1z"/>
			<path class="st21" d="M328.8,195.4c0.9,0,1.9,0.1,2.8,0.2c1.4,0.2,2.7,0.7,3.9,1.4c0.5,0.3,0.8,0.6,1.1,1.1
				c0.2,0.5,0.3,1,0.4,1.6c0.4,2.8,2.2,5.1,2.6,7.9c0.4,2.4-0.7,8.5-2.8,9.2c-1.3,0.4-2.1-2.6-2.1-4.4c-0.9,1.1-2.4-0.3-2.4-3.4
				c0-2.6-0.2-6.1-0.2-6.1L328.8,195.4z"/>
			<path class="st32" d="M334,200.2c0.1,0.7,0,1.4-0.3,2c-0.5,0.7-0.9,1.4-1.5,2l0-1.4L334,200.2z"/>
			<path class="st21" d="M313.2,198.4c3.8-1.8,6.5-4.3,9.3-3.8c3.7,0.7,4.2,2.4,8.2,4c1.3,0.5,3.2,1,3.4,1.6
				c0.5,1.5-2.7,4.2-6.7,3.2c-4.7-1.1-5.8-2.6-7.5-2.5C319.8,200.9,312.8,204.4,313.2,198.4z"/>
		</g>
		<g id="freepik--Top--inject-39">
			<path class="st17" d="M261.6,129.3c1.5,0.4,3.1-0.9,3.5-2.5c0.2-1.6-0.1-3.2-0.8-4.7c0.2,1.2-0.7,2.4-1.9,2.5
				c-0.6,0.1-1.3-0.1-1.7-0.5c-1.1-0.9-1.1-2.6-0.6-3.9s1.4-2.5,1.8-3.8c1-3.2-0.9-6.8-3.6-8.8s-6.1-2.9-9.4-3.9
				c-3.9-1.2-7.7-3.3-11.7-4.2c-4-0.9-8.2-0.7-12.1,0.6c-10.2,3.7-11.1,11.3-11.1,11.3s-1.4,0.5-1.5,0.6c-1.4,0.7-2.6,1.8-3.6,3
				c-3.1,3.7-3.6,8.9-7.3,12.1c-1.2,0.8-2.3,1.8-3.3,2.9c-1.2,1.7-1.3,3.9-0.3,5.7c0.7,1.2,1.8,2.2,1.8,3.6c-0.1,2-2.5,2.8-3.8,4.2
				c-1.6,1.8-1.6,4.6,0.1,6.4c0.8,0.8,1.7,1.2,2.5,1.9c0.9,0.6,1.3,1.7,1.1,2.8c-0.2,0.4-0.5,0.8-0.9,1.2c-1.1,1-2.1,2.1-3,3.2
				c-0.9,1.2-1.3,2.7-1.1,4.2c0.4,1.4,1.3,2.6,2.6,3.3c1.2,0.7,2.6,1.1,4,1.3c1.6,0.3,3.5,0.7,3.8,2.2c0.1,0.6,0,1.2-0.1,1.8
				c-0.2,2.5,1.4,4.9,3.8,5.6c3.1,0.9,6.4-1.3,9.7-1s5.9,2.7,9,3.2c2.3,0.3,4.6-0.5,6.2-2.1c0.8-1,1.6-1.9,2.4-2.8
				c5.3-4.3,12.1,0.7,17.8,0.2c1.8-0.1,3.4-1,4.3-2.5c1.1-2.1,0.3-5,2-6.6s4.8-0.4,6.8-1.8c1.1-0.8,1.7-2.2,1.5-3.5
				c-0.2-1.3-0.8-2.6-1.7-3.6c-0.9-1-2.1-2.2-1.9-3.6c0.3-1.7,2.5-2.2,3.7-3.5c0.9-1.1,1.2-2.6,0.7-4c-0.5-1.3-1.5-2.5-2.6-3.3
				c-1.5-1.1-3.5-2.2-3.4-4c0.1-1.4,1.6-2.3,2.2-3.6c0.5-1.3,0.3-2.7-0.6-3.8C264,130.4,262.8,129.7,261.6,129.3z"/>
			<path class="st0" d="M260.1,221.2c0.8-5.4,1-10.8,0.5-16.3c8.2-7.5,6.7-15.7,2.8-22.1c-8-13.1-13.9-18.9-18.7-22
				c-3.4-1.2-14.4-1.2-14.4-1.2c-1.9,0.2-18.9,2.6-24.1,3.6c-2.1,2.8-3.4,6.2-3.7,9.8c-0.1,3.3-1.1,6.3,1.6,16.6l3.8,19.9
				c0,0-2,5.1-3.8,9.9c-1.4,3.8-4.4,9.6-5.1,20c0,0,7.4,9.4,30.9,7.3c27.7-2.5,32.1-13.9,32.1-13.9
				C261.9,228.9,261.1,225,260.1,221.2z"/>
			<path class="st2" d="M260.7,205c6.1-5.6,6.8-11.5,5.3-16.7h-0.1c-2.3,0.3-4.1,2.1-6,3.6c-3.4,2.8-7.6,4.9-11.9,4.7
				c-4.7-0.2-9.3-3.1-13.9-2.3c-4.1,0.8-6.1,4.2-9.1,6.6c-3.6,3-7.6,5.5-11.4,8.3c-2.7,1.9-5.2,3.9-7.6,6.2c-0.5,1.3-1,2.7-1.5,4.1
				c-1.4,3.8-4.4,9.6-5.1,20c0,0,7.4,9.4,30.9,7.3c27.7-2.5,32.1-13.9,32.1-13.9c-0.4-3.9-1.2-7.8-2.2-11.6
				C260.9,215.9,261.1,210.4,260.7,205z"/>
			<path class="st21" d="M253.1,125c0.7,3.3,1.3,6.7,1.5,10.1c1.4,13.4-2.5,17.2-4.6,18.4s-6.3,1.2-9.3,1.1l-1.5,9.2
				c1.6,3.2,3.5,5.1,2.9,10.2c-8.1-2.5-13.9-4.4-21.7-12l0.2-15.1c0,0-3,2.4-6.9-1.4c-2.6-2.5-3.4-6.2-2-8.8
				c1.8-3.3,7.3-3.6,8.6,0.2c1.4,3.9,3.9,2.7,3.5-3.1c-0.1-1.8-2.3-11.7,4.6-15.8c3-1.8,8,2.4,11.6,1.6c2-0.4,2.5-5.1,5.9-4.3
				S251.9,120,253.1,125z"/>
			<path class="st17" d="M236.3,131.9c0.1,1-0.6,1.9-1.5,2c-1,0.1-1.9-0.6-2-1.5c-0.1-0.9,0.5-1.8,1.4-2
				C235.2,130.2,236.1,130.9,236.3,131.9z"/>
			<path class="st34" d="M242.2,145.2c0.2,0.5,0,1.1-0.5,1.3c-0.5,0.2-1.1,0-1.3-0.5c-0.1-0.2-0.1-0.3-0.1-0.5
				c-0.1-0.5,0.2-1,0.8-1.1C241.6,144.3,242.1,144.7,242.2,145.2z"/>
			<path class="st17" d="M251.2,127.3l-3.7-1.9c0.5-1,1.7-1.4,2.7-1c0,0,0.1,0,0.1,0C251.3,125,251.7,126.2,251.2,127.3z"/>
			<path class="st17" d="M232.9,127.9l-3,2.8c-0.8-0.8-0.8-2-0.1-2.8c0,0,0,0,0.1-0.1C230.8,127,232.1,127.1,232.9,127.9z"/>
			<path class="st17" d="M249.3,129.5c0.1,1-0.6,1.9-1.5,2s-1.9-0.6-2-1.5c-0.1-0.9,0.5-1.8,1.4-2
				C248.2,127.8,249.1,128.5,249.3,129.5C249.3,129.5,249.3,129.5,249.3,129.5z"/>
			<polygon class="st32" points="240.7,130.1 243.9,141.3 249.3,137.9 			"/>
			<path class="st32" d="M240.8,154.6c-4.4,0-14.7-1.5-16.5-4.9c0.8,1.7,2,3.1,3.6,4.1c2.9,1.9,12.3,3.8,12.3,3.8L240.8,154.6z"/>
			<path class="st21" d="M247.8,158.7c-0.6-0.7-1.6-1.1-2.6-0.9c0-1.1-0.6-2.2-1.4-2.9c-0.7-0.3-1.5-0.3-2.2-0.1
				c0.2-1.1-1-3.1-2.3-3.1c-1.2,0.2-2.3,0.6-3.3,1.1c0,0-0.9,0.7-2.2,3.7l0.8-4c1.5-0.9,3-1.8,4.3-2.9c1.6-1.4,0.9-3.4,0.2-3.3
				c-1.6,0.5-3.1,1.1-4.6,1.8c-1.9,0.9-4.4,1.6-4.8,3s-0.7,3.1-1.3,6.3s-0.8,4.2-0.1,5.7s1.5,4.8,3.1,8.7s1.1,5.1-0.1,7.9
				c-0.8,1.9-6.3,11.3-12.2,20.7l-3.2-16c0,0-1.8-16.8-9.6-21.2c-8.6,0.9-11.6,5.7-12.2,10.7c-1.1,8.7,5.9,30.8,9.8,42.3
				s9.6,14.8,13.4,14.5s12.3-6.9,16.4-17c3.4-7.1,9-28.9,9.8-31.9c0.6-2.3,1.5-4.6,2.6-6.7c0.9-1.6,0.5-6.7-0.3-9.6
				c0.5,0.8,1.6,1.3,2.3,0.5C248,164.7,248.2,159.6,247.8,158.7z"/>
			<path class="st34" d="M231.4,179.8c0.4-0.9,0.8-1.9,1-2.9c0.2-1,0.1-2.1-0.3-3.1c-0.6-2-1.5-3.8-2.2-5.8s-1.3-3.9-2-5.9
				c-0.2-2.1,0.4-4.1,0.8-6.1l0.6-3c0.3-0.9,0.2-2.2,1.1-2.9c0.9-0.6,1.8-1.1,2.8-1.4l2.8-1.2c1-0.4,1.9-0.8,2.9-1.1
				c0.7-0.2,1.1,0.6,1.1,1.1c0,0.5-0.1,1.1-0.3,1.6c-0.6,0.9-1.4,1.6-2.4,2.1c-0.9,0.6-1.8,1.1-2.6,1.6l0.1-0.1l-0.8,4l-0.3-0.1
				c0.3-0.7,0.6-1.3,1-2c0.3-0.7,0.8-1.3,1.3-1.8l0,0c0.6-0.3,1.2-0.5,1.8-0.7c0.6-0.2,1.3-0.4,1.9-0.3c0.7,0.2,1.2,0.7,1.5,1.3
				c0.4,0.6,0.6,1.2,0.5,1.9l-0.2-0.1c0.5-0.1,0.9-0.2,1.4-0.2c0.5,0,1,0.2,1.3,0.6c0.7,0.7,1,1.7,1.1,2.6l-0.1-0.1
				c1-0.2,2,0.1,2.7,0.9l0,0c0.2,1.2,0.3,2.5,0.3,3.8c0,1.3,0,2.5,0.1,3.7l0,0l0,0c-0.3,0.4-0.8,0.5-1.3,0.3
				c-0.4-0.2-0.8-0.5-1.1-0.9h0.1c0.3,1.4,0.6,2.8,0.6,4.2c0.1,1.4,0.1,2.8-0.1,4.2c-0.1,0.7-0.4,1.4-0.8,2
				c-0.3,0.6-0.6,1.3-0.9,1.9c-0.5,1.3-1,2.6-1.4,4c0.4-1.4,0.8-2.7,1.3-4c0.3-0.6,0.6-1.3,0.9-1.9c0.4-0.6,0.6-1.3,0.8-1.9
				c0.2-1.4,0.2-2.8,0.1-4.2c-0.1-1.4-0.3-2.8-0.7-4.1l-0.1-0.4l0.2,0.3c0.2,0.4,0.6,0.7,1,0.8c0.4,0.2,0.9,0,1.1-0.3v0.1
				c-0.1-1.3-0.1-2.5-0.1-3.8c0-1.2-0.1-2.5-0.3-3.7l0,0c-0.6-0.7-1.5-1.1-2.5-0.8h-0.1v-0.1c0-0.9-0.4-1.8-1-2.5
				c-0.3-0.3-0.7-0.5-1.2-0.5c-0.5,0-0.9,0-1.4,0.2h-0.2v-0.2c0-0.6-0.2-1.2-0.5-1.7c-0.3-0.5-0.8-0.9-1.4-1.1
				c-0.6,0-1.2,0.1-1.8,0.3c-0.6,0.2-1.2,0.4-1.8,0.7l0,0c-0.5,0.5-0.9,1.1-1.2,1.7c-0.3,0.6-0.6,1.3-0.9,1.9l-0.6,1.5l0.3-1.6
				l0.8-4v-0.1h0.1c0.9-0.5,1.8-1.1,2.6-1.6c0.9-0.5,1.7-1.1,2.3-1.9c0.2-0.4,0.4-0.9,0.3-1.4c0-0.4-0.3-1-0.7-0.9
				c-1,0.3-1.9,0.6-2.9,1.1c-1.8,0.9-3.9,1.4-5.6,2.6c-0.9,0.6-0.8,1.8-1,2.8l-0.6,3c-0.4,2-1,4.1-0.8,6.1c0.6,1.9,1.3,3.9,1.9,5.9
				s1.5,3.9,2.1,5.8c0.3,1,0.4,2,0.2,3.1C232.1,177.9,231.8,178.8,231.4,179.8z"/>
			<path class="st34" d="M241.7,154.9c0-0.4-0.1-0.7-0.2-1.1c-0.9,0.5-2.2,1-2.9,1.5c-0.6,0.4-1,1.1-1.2,1.8
				C237.7,156.6,238.8,155.7,241.7,154.9z"/>
			<path class="st34" d="M242,159.6c0.9-0.9,2-1.5,3.3-1.7c0-0.3-0.1-0.7-0.2-1C242.4,158.1,242,159.6,242,159.6z"/>
			<path class="st34" d="M246,166.4c-0.2-1.3-0.6-2.6-1.1-3.8c-0.4-0.7-0.5-1.1,0.4-1.3s1.8-1.5,1.8-0.7c0,0.4-1.4,1.5-1.3,2
				C245.9,163.9,246,165.1,246,166.4z"/>
			<path class="st32" d="M219.2,200.5c-1.7,2.4-7.5,10.1-7,16.1c0,0-2.2-4,0.7-10c1.6-3.4,3.5-6.7,5.5-9.8L219.2,200.5z"/>
		</g>
	</g>
	<g id="freepik--Sheets--inject-39">
		<g class="st29">
			<path d="M211.1,292l45.6,26.4c0.8,0.4,1.8,0.4,2.6,0l33.6-19.4c0.4-0.1,0.6-0.6,0.5-1c-0.1-0.2-0.3-0.4-0.5-0.5l-45.6-26.4
				c-0.8-0.4-1.8-0.4-2.6,0l-33.6,19.4c-0.4,0.2-0.6,0.6-0.4,1C210.7,291.8,210.9,291.9,211.1,292z"/>
		</g>
		<g class="st29">
			<path d="M211.1,296.7l45.6,26.4c0.8,0.4,1.8,0.4,2.6,0l33.6-19.4c0.4-0.1,0.6-0.6,0.5-1c-0.1-0.2-0.3-0.4-0.5-0.5l-45.6-26.4
				c-0.8-0.4-1.8-0.4-2.6,0l-33.6,19.4c-0.4,0.1-0.6,0.6-0.5,1C210.7,296.4,210.8,296.6,211.1,296.7z"/>
		</g>
		<path class="st2" d="M211.1,294.4l45.6,26.4c0.8,0.4,1.8,0.4,2.6,0l33.6-19.4c0.4-0.1,0.6-0.6,0.5-1c-0.1-0.2-0.3-0.4-0.5-0.5
			l-45.6-26.4c-0.8-0.4-1.8-0.4-2.6,0l-33.6,19.4c-0.4,0.1-0.6,0.6-0.5,1C210.7,294.1,210.8,294.3,211.1,294.4z"/>
		<path class="st1" d="M244.7,273.5l-31.9,18.4l44,25.4c0.8,0.4,1.8,0.4,2.6,0l31.9-18.4l-44-25.4
			C246.4,273.1,245.5,273.1,244.7,273.5z"/>
		<path class="st3" d="M211.1,289.7l45.6,26.4c0.8,0.4,1.8,0.4,2.6,0l33.6-19.4c0.4-0.1,0.6-0.6,0.5-1c-0.1-0.2-0.3-0.4-0.5-0.5
			l-45.6-26.4c-0.8-0.4-1.8-0.4-2.6,0l-33.6,19.4c-0.4,0.1-0.6,0.6-0.5,1C210.7,289.5,210.8,289.6,211.1,289.7z"/>
	</g>
	<g id="freepik--Cup--inject-39">
		<g class="st35">
			<path d="M365.1,215.9c-5.2,2.2-5.2,5.8-0.1,8.1s13.5,2.4,18.6,0.2s5.2-5.8,0.1-8.1S370.3,213.7,365.1,215.9z"/>
		</g>
		<path class="st7" d="M362.9,216.1c-1.2,0.2-2.4,0.1-3.5-0.4c-1.4-0.6-2.3-2.3-3.3-5c-0.9-2.3-2.2-8.8-1.3-10.5
			c1.5-2.5,4.6-2.1,7.2-2.1h0.9v3.2h-1c-1.5,0-3.9-0.1-4.3,0.7c-0.6,1.6,1.2,9.9,2.5,10.9c1.2,0.4,2.6,0.3,3.8-0.1l1.1,2.8
			C364.4,215.8,363.7,216,362.9,216.1z"/>
		<g class="st36">
			<path d="M362.9,216.1c-1.2,0.2-2.4,0.1-3.5-0.4c-1.4-0.6-2.3-2.3-3.3-5c-0.9-2.3-2.2-8.8-1.3-10.5c1.5-2.5,4.6-2.1,7.2-2.1h0.9
				v3.2h-1c-1.5,0-3.9-0.1-4.3,0.7c-0.6,1.6,1.2,9.9,2.5,10.9c1.2,0.4,2.6,0.3,3.8-0.1l1.1,2.8C364.4,215.8,363.7,216,362.9,216.1z"
				/>
		</g>
		<path class="st7" d="M361.3,193.8c0.3-1.3,1.6-2.5,3.8-3.4c5.2-2.2,13.5-2.1,18.6,0.2c2.2,1,3.5,2.2,3.8,3.5h0.1
			c0.8,8.3-0.8,18-3.8,23.3c0,0,0,0.1,0,0.1c0,0,0,0.1,0,0.1l0,0c-0.6,1-1.5,1.8-2.5,2.3c-4.5,2.2-9.7,2.2-14.1-0.1
			c-1-0.5-1.8-1.3-2.4-2.3l0,0c0,0,0,0,0-0.1c0,0,0-0.1-0.1-0.1C361.7,211.8,360.3,202.2,361.3,193.8L361.3,193.8z"/>
		<g class="st37">
			<path class="st5" d="M365.1,190.4c-5.2,2.2-5.2,5.8-0.1,8.1s13.5,2.4,18.6,0.2s5.2-5.8,0.1-8.1S370.3,188.2,365.1,190.4z"/>
		</g>
		<path class="st7" d="M366.9,191.8c-4.2,1.4-4.2,3.8,0,5.3c4.9,1.5,10.1,1.5,15,0.1c4.2-1.4,4.2-3.8,0-5.3
			C377,190.5,371.8,190.4,366.9,191.8z"/>
		<g class="st35">
			<path d="M366.9,191.8c-4.2,1.4-4.2,3.8,0,5.3c4.9,1.5,10.1,1.5,15,0.1c4.2-1.4,4.2-3.8,0-5.3C377,190.5,371.8,190.4,366.9,191.8z
				"/>
		</g>
		<path class="st16" d="M366.9,195c-0.7,0.2-1.5,0.6-2.1,1c0.6,0.5,1.3,0.8,2.1,1.1c4.9,1.5,10.1,1.5,15,0.1c0.7-0.2,1.4-0.6,2.1-1
			c-0.6-0.5-1.3-0.8-2.1-1.1C377,193.6,371.8,193.6,366.9,195z"/>
	</g>
	<g id="freepik--pot--inject-39_1_">
		<path class="st30" d="M416.8,242.2c-5.8,3.4-5.8,8.8,0,12.1c5.8,3.4,15.2,3.4,21,0s5.8-8.8,0-12.1S422.6,238.8,416.8,242.2z"/>
		<path class="st16" d="M436.5,249c5-5.1,8-18,3.1-22.1h-25.1c-4.9,4.1-2,16.9,3.1,22.1l0.1,0.1l0.2,0.2c0.1,0.1,0.3,0.3,0.5,0.4
			l0.1,0.1c0.1,0.1,0.2,0.2,0.4,0.3c0.2,0.2,0.4,0.3,0.6,0.4c4.7,2.4,10.3,2.4,15,0l0,0c0.2-0.1,0.4-0.3,0.6-0.4l0.4-0.3l0.1-0.1
			c0.1-0.1,0.3-0.3,0.4-0.4l0.2-0.2L436.5,249z"/>
		<path class="st14" d="M416.7,225.2c-5.7,3.3-5.7,8.7,0,12s15,3.3,20.7,0s5.7-8.6,0-12S422.4,221.9,416.7,225.2z"/>
		<path class="st17" d="M419.4,226.7c-4.3,2.5-4.3,6.4,0,8.9c4.8,2.5,10.6,2.5,15.4,0c4.3-2.5,4.3-6.4,0-8.9
			C429.9,224.3,424.2,224.3,419.4,226.7z"/>
		<path class="st1" d="M434.8,231c-4.8-2.5-10.6-2.5-15.4,0c-1,0.6-1.9,1.4-2.6,2.3c0.6,1,1.5,1.8,2.6,2.3c4.8,2.5,10.6,2.5,15.4,0
			c1-0.5,1.9-1.4,2.5-2.3C436.7,232.4,435.8,231.6,434.8,231z"/>
		<path class="st7" d="M435.1,212v19c-0.1,1.4-1,2.7-2.4,3.3c0,0-0.1,0-0.1,0.1c-1.1,0.6-2.3,1-3.6,1.2c-1.3,0.2-2.6,0.2-4,0
			c-1.3-0.2-2.5-0.6-3.6-1.2l-0.1-0.1c-1.3-0.6-2.2-1.8-2.4-3.3v-19c0-4.4,3.6-8,8-8C431.5,204,435.1,207.6,435.1,212L435.1,212z"/>
		<path class="st11" d="M427.1,204L427.1,204c-0.2,0-5.6,1.4-5.6,8v22.3l-0.1-0.1c-1.3-0.6-2.3-1.8-2.4-3.3v-19
			C419,207.6,422.6,204,427.1,204C427,204,427,204,427.1,204z"/>
		<path class="st11" d="M435.1,212v19c-0.1,1.4-1,2.7-2.4,3.3c0,0-0.1,0-0.1,0.1V212c0-6.6-5.4-8-5.6-8l0,0
			C431.5,204,435.1,207.6,435.1,212C435.1,212,435.1,212,435.1,212z"/>
		<g class="st35">
			<path d="M429,210.4v25c-1.3,0.2-2.6,0.2-4,0v-25c0-2.3,0.7-4.5,2-6.4v1.3c0,0,0-1.3,0-1.3C428.4,205.9,429.1,208.1,429,210.4z"/>
		</g>
		<path class="st4" d="M429,235.7c-0.1,0-0.3-0.1-0.3-0.3v-2.1c0-0.1,0.1-0.3,0.3-0.3c0.1,0,0.3,0.1,0.3,0.3v2.1
			C429.3,235.6,429.2,235.7,429,235.7L429,235.7z M425.1,234.3c-0.1,0-0.3-0.1-0.3-0.3v-2.1c0-0.1,0.1-0.3,0.3-0.3
			c0.1,0,0.3,0.1,0.3,0.3v2.1C425.4,234.2,425.2,234.3,425.1,234.3L425.1,234.3z M429,231.4c-0.1,0-0.3-0.1-0.3-0.3V229
			c0-0.1,0.1-0.3,0.3-0.3c0.1,0,0.3,0.1,0.3,0.3v2.1C429.3,231.3,429.2,231.4,429,231.4L429,231.4L429,231.4z M425.1,230
			c-0.1,0-0.3-0.1-0.3-0.3v-2.1c0-0.1,0.1-0.3,0.3-0.3c0.1,0,0.3,0.1,0.3,0.3v2.1C425.4,229.9,425.2,230,425.1,230z M429.1,227.1
			c-0.1,0-0.3-0.1-0.3-0.3v-2.1c0-0.1,0.1-0.3,0.3-0.3c0.1,0,0.3,0.1,0.3,0.3v2.1C429.3,227,429.2,227.1,429.1,227.1
			C429.1,227.1,429.1,227.1,429.1,227.1L429.1,227.1z M425.1,225.7c-0.1,0-0.3-0.1-0.3-0.3v-2.1c0-0.1,0.1-0.3,0.3-0.3
			c0.1,0,0.3,0.1,0.3,0.3v2.1C425.4,225.6,425.3,225.7,425.1,225.7C425.1,225.7,425.1,225.7,425.1,225.7L425.1,225.7z M429.1,222.8
			c-0.1,0-0.3-0.1-0.3-0.3v-2.1c0-0.1,0.1-0.3,0.3-0.3c0.1,0,0.3,0.1,0.3,0.3v2.1C429.3,222.7,429.2,222.8,429.1,222.8
			C429.1,222.8,429.1,222.8,429.1,222.8L429.1,222.8z M425.1,221.4c-0.1,0-0.3-0.1-0.3-0.3V219c0-0.1,0.1-0.3,0.3-0.3
			c0.1,0,0.3,0.1,0.3,0.3v2.1C425.4,221.3,425.3,221.4,425.1,221.4C425.1,221.4,425.1,221.4,425.1,221.4L425.1,221.4z M429.1,218.5
			c-0.1,0-0.3-0.1-0.3-0.3v-2.1c0-0.1,0.1-0.3,0.3-0.3c0.1,0,0.3,0.1,0.3,0.3v2.1C429.3,218.4,429.2,218.5,429.1,218.5
			C429.1,218.5,429.1,218.5,429.1,218.5L429.1,218.5z M425.1,217.1c-0.1,0-0.3-0.1-0.3-0.3v-2.1c0-0.1,0.1-0.3,0.3-0.3
			c0.1,0,0.3,0.1,0.3,0.3l0,0v2.1C425.4,217,425.3,217.1,425.1,217.1C425.1,217.1,425.1,217.1,425.1,217.1L425.1,217.1z
			 M429.1,214.2c-0.1,0-0.3-0.1-0.3-0.3v-2.1c0-0.1,0.1-0.3,0.3-0.3c0.1,0,0.3,0.1,0.3,0.3l0,0v2.2
			C429.3,214.1,429.2,214.2,429.1,214.2L429.1,214.2z M425.1,212.8c-0.1,0-0.3-0.1-0.3-0.3v-2.1c0-0.1,0.1-0.3,0.3-0.3
			c0.1,0,0.3,0.1,0.3,0.3v2.1C425.4,212.7,425.3,212.8,425.1,212.8C425.1,212.8,425.1,212.8,425.1,212.8L425.1,212.8z M429,209.9
			c-0.1,0-0.3-0.1-0.3-0.2c0,0,0,0,0,0c-0.1-0.7-0.2-1.4-0.4-2.1c0-0.1,0-0.3,0.2-0.3c0.1,0,0.3,0,0.3,0.2c0.2,0.7,0.3,1.4,0.4,2.2
			C429.3,209.8,429.2,209.9,429,209.9C429,209.9,429,209.9,429,209.9L429,209.9z M425.3,208.5L425.3,208.5c-0.2,0-0.3-0.2-0.3-0.3
			c0,0,0,0,0,0c0.1-0.7,0.3-1.4,0.6-2.1c0-0.1,0.2-0.2,0.3-0.2c0.1,0,0.2,0.2,0.2,0.3c0,0,0,0,0,0c-0.3,0.6-0.4,1.3-0.6,2
			C425.6,208.4,425.4,208.5,425.3,208.5L425.3,208.5z M427.9,205.8c-0.1,0-0.2-0.1-0.2-0.2c-0.2-0.4-0.4-0.8-0.6-1.2
			c-0.1,0.1-0.3,0.1-0.4,0c-0.1-0.1-0.2-0.2-0.1-0.4c0.1-0.2,0.2-0.3,0.2-0.3c0.1-0.1,0.1-0.1,0.2-0.1l0,0c0.1,0,0.2,0,0.2,0.1v0.1
			l0,0c0.3,0.5,0.6,1,0.9,1.6C428.2,205.5,428.1,205.6,427.9,205.8C428,205.7,428,205.8,427.9,205.8L427.9,205.8z"/>
		<path class="st3" d="M426.1,204.6c-0.1,0-0.2-0.1-0.3-0.2c-0.1-0.1,0-0.3,0.1-0.4c0.3-0.2,0.7-0.3,1-0.4c0.1,0,0.2,0,0.3,0.1
			c0.1,0.1,0.1,0.3,0,0.4l0,0c0,0-0.1,0.1-0.1,0.1C426.8,204.3,426.5,204.4,426.1,204.6L426.1,204.6z"/>
		<path class="st4" d="M421.5,231.4c-0.1,0-0.3-0.1-0.3-0.3l0,0v-2c0-0.1,0.1-0.3,0.2-0.3c0.1,0,0.3,0.1,0.3,0.2c0,0,0,0.1,0,0.1v2
			C421.8,231.3,421.6,231.4,421.5,231.4z M421.5,227.3c-0.1,0-0.3-0.1-0.3-0.3l0,0v-2c0-0.1,0.1-0.3,0.2-0.3c0.1,0,0.3,0.1,0.3,0.2
			c0,0,0,0.1,0,0.1v2C421.8,227.2,421.6,227.3,421.5,227.3z M421.5,223.2c-0.1,0-0.3-0.1-0.3-0.3l0,0v-2c0-0.1,0.1-0.3,0.2-0.3
			c0.1,0,0.3,0.1,0.3,0.2c0,0,0,0.1,0,0.1v2C421.8,223.1,421.6,223.2,421.5,223.2z M421.5,219.2c-0.1,0-0.3-0.1-0.3-0.3l0,0v-2
			c0-0.1,0.1-0.3,0.2-0.3c0.1,0,0.3,0.1,0.3,0.2c0,0,0,0.1,0,0.1v2C421.8,219,421.6,219.2,421.5,219.2L421.5,219.2z M421.5,215.1
			c-0.1,0-0.3-0.1-0.3-0.3v-2c0-0.1,0.1-0.3,0.2-0.3c0.1,0,0.3,0.1,0.3,0.2c0,0,0,0.1,0,0.1v2C421.8,214.9,421.6,215.1,421.5,215.1
			L421.5,215.1z M421.6,211L421.6,211c-0.1,0-0.2-0.1-0.2-0.3c0,0,0,0,0,0c0.1-0.7,0.2-1.4,0.5-2.1c0-0.1,0.2-0.2,0.3-0.2
			c0,0,0,0,0,0c0.1,0,0.2,0.2,0.2,0.3c-0.2,0.6-0.4,1.3-0.4,1.9C421.9,210.9,421.7,211,421.6,211C421.6,211,421.6,211,421.6,211
			L421.6,211z M423,207.2c-0.1,0-0.1,0-0.2,0c-0.1-0.1-0.1-0.2-0.1-0.4c0,0,0,0,0,0c0.4-0.6,0.9-1.1,1.4-1.6c0.1-0.1,0.3-0.1,0.4,0
			c0.1,0.1,0.1,0.3,0,0.4c-0.5,0.4-1,0.9-1.3,1.4C423.1,207.1,423.1,207.2,423,207.2L423,207.2z"/>
		<path class="st3" d="M421.5,234.6c-0.1,0-0.3-0.1-0.3-0.3v-1.1c0-0.1,0.1-0.3,0.2-0.3c0.1,0,0.3,0.1,0.3,0.2c0,0,0,0.1,0,0.1v1.1
			C421.8,234.4,421.6,234.6,421.5,234.6z"/>
		<path class="st3" d="M428.1,204.6H428c-0.3-0.1-0.6-0.3-0.9-0.3c-0.1,0-0.1,0-0.1-0.1c-0.1-0.1-0.1-0.3,0-0.4
			c0.1-0.1,0.2-0.1,0.3-0.1c0.3,0.1,0.7,0.2,1,0.4c0.1,0.1,0.2,0.2,0.1,0.4C428.3,204.5,428.2,204.6,428.1,204.6z"/>
		<path class="st4" d="M432.6,231.4c-0.1,0-0.3-0.1-0.3-0.3v-2c0-0.1,0.1-0.3,0.2-0.3c0.1,0,0.3,0.1,0.3,0.2c0,0,0,0.1,0,0.1v2
			C432.9,231.3,432.8,231.4,432.6,231.4z M432.6,227.3c-0.1,0-0.3-0.1-0.3-0.3v-2c0-0.1,0.1-0.3,0.2-0.3c0.1,0,0.3,0.1,0.3,0.2
			c0,0,0,0.1,0,0.1v2C432.9,227.2,432.8,227.3,432.6,227.3z M432.6,223.2c-0.1,0-0.3-0.1-0.3-0.3v-2c0-0.1,0.1-0.3,0.2-0.3
			c0.1,0,0.3,0.1,0.3,0.2c0,0,0,0.1,0,0.1v2C432.9,223.1,432.8,223.2,432.6,223.2z M432.6,219.2c-0.1,0-0.3-0.1-0.3-0.3v-2
			c0-0.1,0.1-0.3,0.2-0.3c0.1,0,0.3,0.1,0.3,0.2c0,0,0,0.1,0,0.1v2C432.9,219,432.8,219.1,432.6,219.2L432.6,219.2z M432.6,215.1
			c-0.1,0-0.3-0.1-0.3-0.3v-2c0-0.1,0.1-0.3,0.2-0.3c0.1,0,0.3,0.1,0.3,0.2c0,0,0,0.1,0,0.1v2C432.9,214.9,432.8,215.1,432.6,215.1
			L432.6,215.1z M432.6,211c-0.1,0-0.2-0.1-0.3-0.2c-0.1-0.7-0.2-1.3-0.4-1.9c-0.1-0.1,0-0.3,0.1-0.3c0,0,0,0,0,0
			c0.1-0.1,0.3,0,0.3,0.2c0,0,0,0,0,0c0.2,0.6,0.4,1.3,0.5,2C432.9,210.8,432.8,210.9,432.6,211L432.6,211z M431.2,207.2
			c-0.1,0-0.2,0-0.2-0.1c-0.4-0.5-0.8-1-1.3-1.4c-0.1-0.1-0.1-0.3,0-0.4c0,0,0,0,0,0c0.1-0.1,0.3-0.1,0.4,0c0,0,0,0,0,0
			c0.5,0.4,1,1,1.4,1.6c0.1,0.1,0.1,0.3-0.1,0.4c0,0,0,0,0,0C431.3,207.2,431.3,207.2,431.2,207.2L431.2,207.2z"/>
		<path class="st3" d="M432.6,234.6c-0.1,0-0.3-0.1-0.3-0.3v-1.1c0-0.1,0.1-0.3,0.2-0.3c0.1,0,0.3,0.1,0.3,0.2c0,0,0,0.1,0,0.1v1.1
			C432.9,234.4,432.8,234.6,432.6,234.6z"/>
		<path class="st14" d="M435.8,206.8c-0.2,0.2-0.4,0.4-0.6,0.6c-2.1,1.4-5.6-0.1-6.2-2.5c-0.4-1.3-0.2-2.8,0.6-3.9
			c0.1-0.2,0.3-0.4,0.5-0.6c0.2-0.1,0.5-0.1,0.8,0c0.2,0.2,0.3,0.4,0.4,0.6c0.2,0.6,0.3,1.3,0.3,1.9c0.6-1,1.6-1.7,2.8-1.8
			c0.1,0,0.2,0,0.3,0.1c0.1,0.1,0.1,0.2,0.2,0.3c0.3,1.1,0.2,2.2-0.4,3.2c0.5-0.2,0.9-0.4,1.4-0.5c0.5-0.1,0.9-0.1,0.9,0.4
			C436.7,205.4,436.4,206.2,435.8,206.8z"/>
	</g>
	<g id="freepik--Paper--inject-39">
		<path class="st15" d="M347.8,294.9c2.4,2.4,6,3.2,9.2,1.9c0.1-0.1,0.2-0.1,0.4-0.1c0.2,0,0.3,0.1,0.4,0.2c1,0.8,2.3,1.2,3.6,1.1
			c1.3-0.1,2.5-0.8,3.2-2c0.2-0.5,0.6-1,1-1.4c0.8-0.5,1.8,0,2.6-0.3c1.1-0.3,1.6-1.5,2.5-2.1c0.6-0.5,1.3-0.7,1.8-1.2
			c0.6-0.6,1-1.4,1.1-2.3c0.1-0.9,0.1-1.7-0.1-2.6c-1.6,1.4-3.7,2.2-5.9,2.2c-2.1,0.1-4.3,0-6.4,0.2c-2.7,0.3-5.2,1.3-7.4,2.9
			c-0.9,0.6-1.4,1.5-2.2,2.2C350.6,294.6,349.2,295,347.8,294.9z"/>
		<path class="st6" d="M358.6,294.9c1,0.6,2.2,0.9,3.3,0.8c0.3,0,0.6,0,0.9-0.1c0.4-0.3,0.6-0.6,0.7-1.1c0.2-0.5,0.4-1.1,0.6-1.6
			c0.1-0.3,0.3-0.6,0.6-0.7s0.7,0.3,1.1,0.4c0.4,0.1,0.9,0,1.3-0.3c0.4-0.3,0.6-0.7,0.8-1.1c0.8-1.2,1-2.6,0.7-3.9
			c-0.3-1-1-1.8-1.8-2.3c-1.1-0.7-2.4-1-3.7-0.7c-0.7,0.2-1.4,0.4-2.1,0.8c-0.8,0.4-1.6,0.8-2.4,1.4c-1,1-1.8,2.1-2.4,3.3
			c-0.3,0.5-0.5,1.1-0.3,1.6c0.3,0.7,0.7,1.3,1.2,1.8C357.7,293.9,358.1,294.4,358.6,294.9z"/>
		<path class="st3" d="M359.6,294.1c1.5-1.8,1.9-4.3,3.2-6.2c0.2-0.3,0.4-0.5,0.8-0.7c0.7-0.1,1.3,0.2,1.6,0.9
			c0.3,0.6,0.5,1.3,0.9,1.8c0.9,1.1,2.4,1.4,3.7,0.8c1.2-0.6,2.3-1.5,3.2-2.6c1.2-1.3,2.3-2.9,2.1-4.7l-3.5,0.2
			c-0.3,0-0.6,0-0.9-0.1c-0.6-0.3-0.8-1-0.9-1.7c-0.2-1-0.5-1.9-1-2.9c-0.4-1-1.2-1.7-2.3-1.9c-0.8,0-1.6,0.4-2.1,1.1
			c-0.5,0.7-1,1.3-1.6,1.8c-2.9,2.3-7.7-0.5-10.6,1.7c-1.6,1.3-1.9,3.6-0.6,5.3c1.7,2.1,0,1.8-1.5,2.9c-0.1,0.1-0.2,0.2-0.2,0.3
			c-0.1,0.2,0.1,0.5,0.2,0.7c0.3,0.4,0.5,0.7,0.6,1.1c0.1,0.2,0.1,0.5-0.1,0.7c-0.1,0.1-0.2,0.1-0.3,0.1c-0.7,0.1-1.4,0-2.1-0.2
			c0.5,1,1.3,2,2.2,2.7C353.4,297,357.2,296.6,359.6,294.1z"/>
		<path class="st4" d="M355.3,287.5c0.4,0.1,0.9,0.3,1.3,0.4c0.7,0.4,1.3,1.1,1.5,1.8c0.2,0.8,0.3,1.6,0.1,2.4
			c-0.1-1.2-0.8-2.3-1.9-2.7c-0.5-0.2-0.9-0.3-1.4-0.4c-1.7-0.7-2.8-2.3-2.8-4.1C352.1,286.2,354.3,287.1,355.3,287.5z"/>
	</g>
	<g id="freepik--paper--inject-39">
		<path class="st15" d="M313.6,314.4c-1.5-0.2-3-0.2-4.4,0c-1.7,0.3-3.3,0-4.9,0.7c-1.6,0.7-3.2,1.5-4.7,2.5
			c-0.5,0.3-0.9,0.7-1.2,1.1c-0.5,1-0.3,2.1,0.4,2.9c0.7,0.8,1.6,1.3,2.6,1.6c1,0.3,2,0.6,2.9,1.1c0.6,0.3,1.1,0.7,1.7,1
			c2.1,1,4.6,1,6.7-0.1c2.1-1,4-2.4,5.6-4c0.9-0.6,1.5-1.6,1.7-2.6c0-0.9-0.4-1.7-1.2-2.3c-0.7-0.5-1.5-0.9-2.4-1.1
			C315.5,314.8,314.5,314.6,313.6,314.4z"/>
		<path class="st3" d="M300.1,310.4l-0.1,0.4c-0.2,0.7-0.2,1.5,0.1,2.2c0.3,0.5,0.8,0.9,1,1.5c0.5,1.4-1,2.8-0.8,4.2
			c0.2,0.9,0.9,1.7,1.8,2.1c0.9,0.3,1.8,0.7,2.6,1.2c0.4,0.3,0.8,0.7,1.2,1c2.8,2.1,6.4,0.6,9-1c0.3-0.2,0.6-0.4,0.8-0.6
			c0.6-0.8,0.4-1.9,0.7-2.8c0.7-1.9,3.4-2.2,4.2-4c0.7-1.5-0.2-3.2-1.3-4.4c-0.9-1.2-2.1-2-3.5-2.5c-1.3-0.3-4,1.1-4.8-0.5
			c-0.1-0.4-0.3-0.7-0.3-1.1c-0.3-1.6-1-3.1-2-4.4c-0.4,0.7-0.9,1.4-1.6,1.9c-1.3,1-3,1.5-4.2,2.7c-0.3,0.3-0.4,0.6-0.6,1
			s-0.7,0.6-1,1C300.8,308.8,300.3,309.6,300.1,310.4z"/>
		<path class="st6" d="M305,314.1c-0.9,0.3-1.6,1-1.8,1.9c-0.1,0.7,0,1.4,0.3,2.1c0.3,0.6,0.7,1.2,1.2,1.8c-0.2-0.6-0.5-1.1-0.6-1.8
			c-0.2-0.6,0-1.3,0.4-1.7c0.6-0.5,1.6-0.3,2.4-0.4c0.8-0.2,1.4-0.7,1.8-1.5c0.5-0.9,0.6-2,0.3-3c-0.1-0.4-0.8-2.2-1.3-1.9
			s-0.1,2-0.2,2.4C307.1,313.4,306.1,313.7,305,314.1z"/>
		<path class="st4" d="M317,315.2c-0.9-1-2.8-0.3-3.6,0.5c-0.2,0.2-0.4,0.4-0.5,0.7c-0.1,0.3-0.2,0.7-0.2,1c0,0.4-0.2,0.7-0.4,1
			c-0.2,0.3-0.6,0.4-1,0.3c0.4,0.1,0.9,0.1,1.4,0c0.3,0,0.6-0.2,0.8-0.4c0.2-0.2,0.3-0.4,0.4-0.6c0.4-0.8,0.7-1.8,1.5-2.2
			C315.8,315.3,316.4,315.2,317,315.2z"/>
		<path class="st6" d="M315.8,307.8c0.1,0,0.3-0.1,0.4-0.1l-0.3-0.1c-1.3-0.3-4,1.1-4.8-0.5c0,0,0,0,0,0c-0.1,0.5-0.2,1-0.4,1.5
			c-0.3,0.5-0.4,1.1-0.4,1.7c0.1,0.5,0.5,1,1,1.1c0.7,0.1,1.3-0.1,1.8-0.6c0.4-0.5,0.8-1,1.2-1.6
			C314.7,308.5,315.2,308.1,315.8,307.8z"/>
	</g>
</g>
<g id="freepik--trash-basket--inject-39">
	<g id="freepik--trash-can--inject-39">
		<path class="st7" d="M143.6,429.6c0-9,12.9-16.2,28.8-16.2s28.8,7.3,28.8,16.2v2.1c0,9-12.9,16.2-28.8,16.2s-28.8-7.3-28.8-16.2
			V429.6z"/>
		<path class="st8" d="M143.6,429.6c0-9,12.9-16.2,28.8-16.2s28.8,7.3,28.8,16.2v2.1c0,9-12.9,16.2-28.8,16.2s-28.8-7.3-28.8-16.2
			V429.6z"/>
		<path class="st11" d="M143.6,429.6c0-9,12.9-16.2,28.8-16.2s28.8,7.3,28.8,16.2v2.1c0,9-12.9,16.2-28.8,16.2s-28.8-7.3-28.8-16.2
			V429.6z"/>
		<path class="st7" d="M143.6,429.6c0,9,12.9,16.2,28.8,16.2s28.8-7.3,28.8-16.2s-12.9-16.2-28.8-16.2S143.6,420.7,143.6,429.6z"/>
		<path class="st10" d="M143.6,429.6c0,9,12.9,16.2,28.8,16.2s28.8-7.3,28.8-16.2s-12.9-16.2-28.8-16.2S143.6,420.7,143.6,429.6z"/>
		<path class="st9" d="M143.6,429.6c0,9,12.9,16.2,28.8,16.2s28.8-7.3,28.8-16.2s-12.9-16.2-28.8-16.2S143.6,420.7,143.6,429.6z"/>
		<path class="st3" d="M199.2,382.9c0.3,0,0.6-0.2,0.6-0.5l3.8-27.5c0.1-0.3-0.2-0.6-0.5-0.7c0,0,0,0,0,0c-0.3,0-0.6,0.2-0.7,0.5
			l-3.8,27.5c-0.1,0.3,0.2,0.6,0.5,0.7C199.1,382.9,199.1,382.9,199.2,382.9L199.2,382.9z"/>
		<path class="st3" d="M193.1,389.4c0.3,0,0.6-0.2,0.6-0.5l3.7-35.4c0-0.3-0.3-0.6-0.6-0.6c-0.3,0-0.6,0.2-0.6,0.5l-3.7,35.4
			C192.5,389,192.7,389.3,193.1,389.4C193.1,389.3,193.1,389.3,193.1,389.4L193.1,389.4z"/>
		<path class="st3" d="M185.6,393c0.3,0,0.6-0.3,0.6-0.6L189,349c0-0.3-0.2-0.6-0.6-0.6c-0.3,0-0.6,0.2-0.6,0.5c0,0,0,0,0,0.1
			l-2.8,43.4C185,392.7,185.2,393,185.6,393L185.6,393z"/>
		<path class="st3" d="M177,394.8c0.3,0,0.6-0.3,0.6-0.6c0,0,0,0,0,0l0.9-47.1c0-0.3-0.3-0.6-0.6-0.6c0,0,0,0,0,0
			c-0.3,0-0.6,0.2-0.6,0.5c0,0,0,0.1,0,0.1l-0.9,47.1C176.4,394.5,176.6,394.8,177,394.8L177,394.8z"/>
		<path class="st3" d="M145,382.9c-0.3,0-0.6-0.2-0.6-0.5l-3.8-27.5c-0.1-0.3,0.2-0.6,0.5-0.7c0,0,0,0,0,0c0.3,0,0.6,0.2,0.7,0.5
			l3.8,27.5c0.1,0.3-0.2,0.6-0.5,0.7C145.1,382.9,145.1,382.9,145,382.9L145,382.9z"/>
		<path class="st3" d="M151,389.4c-0.3,0-0.6-0.2-0.6-0.5l-3.7-35.4c0-0.3,0.3-0.6,0.6-0.6c0.3,0,0.6,0.2,0.6,0.5l3.7,35.4
			C151.6,389,151.4,389.3,151,389.4C151.1,389.3,151.1,389.3,151,389.4L151,389.4z"/>
		<path class="st3" d="M158.6,393c-0.3,0-0.6-0.3-0.6-0.6l-2.8-43.4c0-0.3,0.2-0.6,0.6-0.6c0.3,0,0.6,0.2,0.6,0.5c0,0,0,0,0,0.1
			l2.7,43.4C159.2,392.6,158.9,392.9,158.6,393L158.6,393z"/>
		<path class="st3" d="M167.2,394.8c-0.3,0-0.6-0.3-0.6-0.6c0,0,0,0,0,0l-0.9-47.1c0-0.3,0.3-0.6,0.6-0.6c0,0,0,0,0,0
			c0.3,0,0.6,0.2,0.6,0.5c0,0,0,0.1,0,0.1l0.9,47.1C167.8,394.5,167.6,394.8,167.2,394.8C167.2,394.8,167.2,394.8,167.2,394.8
			L167.2,394.8z"/>
		<path class="st3" d="M199.2,401.2c-1.6-1.9-3.7-3.7-4.2-6.3c-0.4-1.9-0.3-4.1-1.5-5.7c-0.9-1-1.9-1.9-3-2.6
			c-2.8-2.6-3.6-6.8-1.9-10.2c-1.8-0.7-3.8,0.2-5.2,1.5s-2.6,2.8-4.1,3.9c-2.1,1.5-4.7,1.9-7.1,2.9s-4.7,2.9-4.8,5.5
			c-0.1,2.4,1.8,5,0.4,6.8c-2.2,2.9-7.8,0.2-7.6,5.5c0.1,2,0.8,3-1.3,4.4s-5,0.6-7.1,2.1c-1.1,0.9-1.9,2.1-2.4,3.4
			c-0.7,1.5-1.4,3-1.9,4.5c-1.5,4.1-1.7,8.5-0.4,12.7c0.6,1.8,1.6,4.4,3.5,5c2.6,0.8,4.9,0,7.3,1.9c0.9,0.8,1.6,1.8,2.5,2.6
			c1.7,1.4,3.9,2.1,6.1,2c1.8,0,3.4-0.6,5.1-0.7c1.2,0.1,2.3,0.4,3.4,0.8c2.5,0.6,5.7,0.6,7.6-1.5c1.4-1.5,1.8-3.8,3.6-4.7
			s4.1,0.2,6.2,0.1c3.5-0.1,6.1-3.6,6.7-7.1s-0.3-7-0.8-10.5c-0.6-4.6,2.8-8.1,2.6-12.4C200.8,403.6,200.2,402.3,199.2,401.2z"/>
		<path class="st2" d="M199.2,401.2c-0.6-0.8-1.4-1.6-2.1-2.4c-0.7,2.2-2.2,4.1-3.1,6.2c-1,2.6-1.1,5.4-1.1,8.2c0,3,0,6-0.1,9.1
			c0.1,0.5-0.1,1.1-0.4,1.5c-0.7,0.8-2,0.2-2.8-0.6s-1.4-1.8-2.5-1.8c-1.3,0-2.3,1.4-3.5,1.1s-1.5-1.7-1-2.8c0.6-1,1.3-1.8,2.2-2.5
			c0.9-0.7,1.4-1.9,1.2-3c-3.4-0.4-6.4,2.2-8.9,4.6c-1.1,1.1-2.3,2.6-1.6,4c0.5,1,1.8,1.5,2.4,2.5c0.6,1.3,0.1,2.8-1,3.5
			c-1.1,0.7-2.4,1.1-3.8,1.2c-0.9,0.2-1.9,0.2-2.8,0c-0.9-0.2-1.7-0.9-1.8-1.9c-0.1-0.9,0.9-1.9,1.8-1.5c-1.6-1.2-3.4-2.4-5.3-2.5
			s-4.1,1.7-3.7,3.6l-7.9-0.2c1.1-1.6-0.2-3.7-1.5-5c-0.9-0.8-1.6-1.7-2.2-2.7c-0.6-1-0.6-2.3,0.1-3.3c0.7-0.9,2-1.3,2.2-2.4
			c0-0.9-0.6-1.7-1.5-1.8c-0.3,0-0.6,0-0.9,0c-0.7,1.4-1.3,2.9-1.8,4.4c-1.5,4.1-1.7,8.5-0.4,12.7c0.6,1.8,1.6,4.4,3.5,5
			c2.6,0.8,4.9,0,7.3,1.9c0.9,0.8,1.6,1.8,2.5,2.6c1.7,1.4,3.9,2.1,6.1,2c1.8,0,3.4-0.6,5.1-0.7c1.2,0.1,2.3,0.4,3.4,0.8
			c2.5,0.6,5.7,0.6,7.6-1.5c1.4-1.5,1.8-3.8,3.6-4.7s4.1,0.2,6.2,0.1c3.5-0.1,6.1-3.6,6.7-7.1s-0.3-7-0.8-10.5
			c-0.6-4.6,2.8-8.1,2.6-12.4C200.8,403.6,200.2,402.3,199.2,401.2z"/>
		<path class="st2" d="M159.8,411.6c0.5,0.7,0.6,1.6,0.4,2.4c-0.1,0.4-0.3,0.8-0.3,1.2c0,0.4,0.2,0.8,0.6,1c0.4,0,0.7-0.1,1-0.3
			c0.8-0.5,1.7-0.7,2.7-0.6c0.9,0.2,1.6,1,1.5,2c0.7-1.2,0.7-2.6,0-3.7c-0.7-1.1-2.2-1.5-3.4-0.8c0,0,0,0,0,0
			c0.3-1.1-0.3-2.2-1.3-2.6c-0.9-0.4-2-0.3-2.9,0.1C158.7,410.6,159.3,411,159.8,411.6z"/>
		<path class="st2" d="M172.9,403.2c-0.3,0.2-0.7,0.4-1,0.6c-0.3,0.2-0.5,0.6-0.5,1c0.7-0.1,1.3,0.5,1.7,1.1
			c0.3,0.6,0.8,1.2,1.4,1.6c0.5,0.3,1.2,0.2,1.6,0.6c0.7,0.5,0.6,1.6,0.4,2.4l3.4-2.3c0.2-0.1,0.4-0.3,0.5-0.5
			c0.4-0.6,0.2-1.4-0.3-1.9c-0.6-0.4-1.2-0.6-1.9-0.6c-0.7,0-1.4-0.1-2.1-0.2c-0.2,0-0.3-0.1-0.4-0.3c-0.1-0.3,0.2-0.5,0.5-0.6
			l3.2-1.2c0.2-0.2,0.2-0.5,0-0.7c0,0,0,0,0,0c-0.2-0.2-0.5-0.3-0.8-0.3c-2-0.5-4.1-0.8-6.2-1C172.4,401.9,174.5,402.1,172.9,403.2z
			"/>
		<path class="st2" d="M180.9,389.8c-1.7-0.3-3.8,0.6-4.1,2.3c1.4,0.1,2.5,1.3,3.5,2.4l1.5,1.7c0.5,0.5,0.9,1.1,1.1,1.8
			c0.1,0.7,0,1.4,0.3,1.9c0.3,0.3,0.7,0.6,1.1,0.7c0.8,0.4,1.8,0.4,2.7,0c0.6-0.5,0.8-1.4,0.5-2.1c-0.3-0.7-0.7-1.4-1.3-1.9
			c1.6-0.3,3.3-0.2,4.8,0.4c0.3,0.2,0.8,0.3,1.1,0.2c0.3-0.2,0.5-0.4,0.6-0.8c0.2-1.1-0.2-2.1-1.1-2.8c-0.9-0.6-1.9-0.9-3-0.9
			C185.4,392.8,183.8,390.2,180.9,389.8z"/>
		<path class="st3" d="M199.8,431.2l7.5-51.4c0-0.3-0.2-0.6-0.5-0.7c-0.3,0-0.6,0.2-0.7,0.5l-7.5,51.4c-0.1,0.3,0.2,0.6,0.5,0.7
			c0,0,0,0,0,0h0.1C199.5,431.7,199.8,431.5,199.8,431.2"/>
		<path class="st3" d="M193.1,438.1c0.3,0,0.6-0.2,0.6-0.5l5.4-51.4c0-0.3-0.2-0.6-0.6-0.7c-0.3,0-0.6,0.2-0.7,0.5l-5.4,51.4
			C192.5,437.8,192.7,438.1,193.1,438.1L193.1,438.1z"/>
		<path class="st3" d="M185.6,441.8c0.3,0,0.6-0.2,0.6-0.6l3.2-51.4c0-0.3-0.2-0.6-0.6-0.6c-0.3,0-0.6,0.2-0.6,0.5c0,0,0,0,0,0
			l-3.2,51.4C185,441.5,185.2,441.8,185.6,441.8C185.6,441.8,185.6,441.8,185.6,441.8L185.6,441.8z"/>
		<path class="st3" d="M177,443.6c0.3,0,0.6-0.3,0.6-0.6l1.1-51.4c0-0.3-0.3-0.6-0.6-0.6c-0.3,0-0.6,0.2-0.6,0.5c0,0,0,0.1,0,0.1
			l-1.1,51.4C176.3,443.3,176.6,443.6,177,443.6L177,443.6z"/>
		<path class="st3" d="M167.9,443.6L167.9,443.6c0.3,0,0.6-0.3,0.6-0.6c0,0,0,0,0,0l-1.1-51.4c0-0.3-0.3-0.6-0.6-0.6l0,0
			c-0.3,0-0.6,0.3-0.6,0.6l1.1,51.4C167.3,443.3,167.6,443.6,167.9,443.6z"/>
		<path class="st3" d="M159.3,441.8L159.3,441.8c0.3,0,0.6-0.3,0.6-0.6l-3.2-51.4c0-0.3-0.2-0.6-0.6-0.6c0,0-0.1,0-0.1,0
			c-0.3,0-0.6,0.3-0.6,0.6c0,0,0,0,0,0l3.2,51.4C158.6,441.5,158.9,441.8,159.3,441.8C159.3,441.8,159.3,441.8,159.3,441.8z"/>
		<path class="st3" d="M151.7,438.1L151.7,438.1c0.4,0,0.6-0.3,0.6-0.7l-5.4-51.4c0-0.3-0.3-0.6-0.6-0.6c0,0,0,0,0,0
			c-0.3,0-0.6,0.3-0.6,0.7c0,0,0,0,0,0l5.4,51.4C151.2,437.9,151.4,438.1,151.7,438.1z"/>
		<path class="st3" d="M145.7,431.7L145.7,431.7c0.4,0,0.7-0.4,0.6-0.7c0,0,0,0,0,0l-7.5-51.4c-0.1-0.3-0.4-0.6-0.7-0.5
			c-0.3,0.1-0.6,0.4-0.5,0.7l7.5,51.4C145.1,431.5,145.4,431.7,145.7,431.7z"/>
		<g id="freepik--Bin--inject-39">
			<path class="st7" d="M132.3,369.7c0.4,2,1.2,4,2.4,5.6c2.4,3.4,5.5,6.1,9.1,8.1c15.8,9.1,41.3,9.1,57.1,0c3.6-2,6.7-4.7,9.1-8.1
				c1.2-1.7,2-3.6,2.4-5.6l0,0c1.4-6.8-2.4-14-11.5-19.2c-15.8-9.1-41.4-9.1-57.1,0C134.8,355.8,130.9,362.9,132.3,369.7z
				 M148.6,380.7c-5.1-2.9-8.2-6.6-9.3-10.4c1.1-4.1,4.2-8,9.3-11.1c13.1-8.1,34.5-8.1,47.6,0c5.1,3.2,8.2,7.1,9.3,11.2
				c-1.2,3.8-4.3,7.4-9.4,10.4C183.1,388.3,161.8,388.3,148.6,380.7L148.6,380.7z"/>
			<path class="st10" d="M132.3,369.7c0.4,2,1.2,4,2.4,5.6c2.4,3.4,5.5,6.1,9.1,8.1c15.8,9.1,41.3,9.1,57.1,0c3.6-2,6.7-4.7,9.1-8.1
				c1.2-1.7,2-3.6,2.4-5.6l0,0c1.4-6.8-2.4-14-11.5-19.2c-15.8-9.1-41.4-9.1-57.1,0C134.8,355.8,130.9,362.9,132.3,369.7z
				 M148.6,380.7c-5.1-2.9-8.2-6.6-9.3-10.4c1.1-4.1,4.2-8,9.3-11.1c13.1-8.1,34.5-8.1,47.6,0c5.1,3.2,8.2,7.1,9.3,11.2
				c-1.2,3.8-4.3,7.4-9.4,10.4C183.1,388.3,161.8,388.3,148.6,380.7L148.6,380.7z"/>
			<path class="st7" d="M134.8,375.4c2.4,3.4,5.5,6.1,9.1,8.1c15.8,9.1,41.4,9.1,57.1,0c3.6-2,6.7-4.7,9.1-8.1
				c1.2-1.7,2-3.6,2.4-5.6l0,0l-1.8,7.1c-0.8,5-4.5,9.8-11.1,13.6c-15,8.7-39.4,8.7-54.4,0c-6.5-3.8-10.2-8.5-11.1-13.4l-0.1-0.6
				l-1.7-6.7C132.7,371.8,133.6,373.7,134.8,375.4z"/>
			<path class="st8" d="M134.8,375.4c2.4,3.4,5.5,6.1,9.1,8.1c15.8,9.1,41.4,9.1,57.1,0c3.6-2,6.7-4.7,9.1-8.1
				c1.2-1.7,2-3.6,2.4-5.6l0,0l-1.8,7.1c-0.8,5-4.5,9.8-11.1,13.6c-15,8.7-39.4,8.7-54.4,0c-6.5-3.8-10.2-8.5-11.1-13.4l-0.1-0.6
				l-1.7-6.7C132.7,371.8,133.6,373.7,134.8,375.4z"/>
			<path class="st7" d="M139,369c0.1,0.5,0.2,0.9,0.3,1.4c1.1-4.1,4.2-8,9.3-11.1c13.1-8.1,34.5-8.1,47.6,0
				c5.1,3.2,8.2,7.1,9.3,11.2c0.1-0.5,0.3-0.9,0.3-1.4c1-5.6-2.3-11.4-9.7-15.7c-13.1-7.6-34.4-7.6-47.6,0
				C141.2,357.6,138,363.4,139,369z"/>
			<path class="st8" d="M139,369c0.1,0.5,0.2,0.9,0.3,1.4c1.1-4.1,4.2-8,9.3-11.1c13.1-8.1,34.5-8.1,47.6,0
				c5.1,3.2,8.2,7.1,9.3,11.2c0.1-0.5,0.3-0.9,0.3-1.4c1-5.6-2.3-11.4-9.7-15.7c-13.1-7.6-34.4-7.6-47.6,0
				C141.2,357.6,138,363.4,139,369z"/>
		</g>
	</g>
</g>
</svg>
